<svg width="20" height="20" viewBox="0 0 20 20" fill="none" xmlns="http://www.w3.org/2000/svg">
<g id="16">
<g id="Vector">
<path d="M10.384 12.9132H5.81148C5.65907 12.9132 5.5257 12.7796 5.5257 12.6269C5.5257 12.4741 5.65907 12.3405 5.81148 12.3405H10.384C10.5364 12.3405 10.6698 12.4741 10.6698 12.6269C10.6698 12.7796 10.5555 12.9132 10.384 12.9132Z" fill="#261F10"/>
<path d="M10.384 14.6315H5.81148C5.65907 14.6315 5.5257 14.4979 5.5257 14.3451C5.5257 14.1924 5.65907 14.0587 5.81148 14.0587H10.384C10.5364 14.0587 10.6698 14.1924 10.6698 14.3451C10.6698 14.4979 10.5555 14.6315 10.384 14.6315Z" fill="#261F10"/>
<path d="M10.384 16.3498H5.81148C5.65907 16.3498 5.5257 16.2161 5.5257 16.0634C5.5257 15.9106 5.65907 15.777 5.81148 15.777H10.384C10.5364 15.777 10.6698 15.9106 10.6698 16.0634C10.6698 16.2161 10.5555 16.3498 10.384 16.3498Z" fill="#261F10"/>
<path d="M10.5936 6.40293H6.02106V10.4122H10.5936V6.40293Z" fill="#261F10"/>
<path d="M11.5462 6.97568H5.06845L8.30731 3.74917L11.5462 6.97568Z" fill="#261F10"/>
<path d="M10.5936 4.30283H9.85053V6.04019H10.5936V4.30283Z" fill="#261F10"/>
<path d="M14.3278 1.97363C14.6517 1.97363 14.8993 2.22183 14.8993 2.54639V18.0107H2.51547C2.19158 18.0107 1.94391 17.7625 1.94391 17.438V2.54639C1.94391 2.22183 2.19158 1.97363 2.51547 1.97363H14.3278ZM14.3278 0.828125H2.51547C1.56287 0.828125 0.800781 1.5918 0.800781 2.54639V17.438C0.800781 18.3926 1.56287 19.1562 2.51547 19.1562H17.0141L16.0234 17.8389V2.54639C16.0425 1.5918 15.2613 0.828125 14.3278 0.828125Z" fill="#261F10"/>
<path d="M17.4142 6.30747C17.7381 6.30747 17.9858 6.55566 17.9858 6.88022V17.0371C17.9858 17.5716 17.5476 18.0107 17.0141 18.0107C16.4807 18.0107 16.0425 17.5716 16.0425 17.0371V6.30747H17.4142ZM17.4142 5.16196H14.8993V17.0371C14.8993 18.2017 15.8519 19.1562 17.0141 19.1562C18.1763 19.1562 19.1289 18.2017 19.1289 17.0371V6.88022C19.1289 5.92563 18.3668 5.16196 17.4142 5.16196Z" fill="#261F10"/>
</g>
</g>
</svg>
