<svg width="150" height="113" viewBox="0 0 150 113" fill="none" xmlns="http://www.w3.org/2000/svg">
<g id="Vector">
<path d="M13.9114 64.4519V53.1607H15.2606V58.7622H15.3911L20.3961 53.1607H22.1587L17.4802 58.255L22.1587 64.4519H20.5267L16.6533 59.2033L15.2606 60.7911V64.4519H13.9114Z" fill="#606161"/>
<path d="M26.621 64.6283C25.8159 64.6283 25.1213 64.4482 24.5374 64.0881C23.9571 63.7242 23.5092 63.2169 23.1937 62.5664C22.8818 61.9121 22.7259 61.1513 22.7259 60.2839C22.7259 59.4165 22.8818 58.652 23.1937 57.9904C23.5092 57.3251 23.9481 56.8068 24.5102 56.4356C25.076 56.0607 25.7361 55.8733 26.4905 55.8733C26.9257 55.8733 27.3554 55.9468 27.7798 56.0938C28.2041 56.2408 28.5904 56.4797 28.9385 56.8105C29.2867 57.1376 29.5642 57.5714 29.7709 58.1117C29.9776 58.652 30.081 59.3172 30.081 60.1075V60.6588H23.6398V59.5341H28.7753C28.7753 59.0563 28.681 58.6299 28.4924 58.255C28.3075 57.8801 28.0427 57.5842 27.6982 57.3674C27.3573 57.1505 26.9547 57.0421 26.4905 57.0421C25.9791 57.0421 25.5366 57.1707 25.163 57.428C24.7931 57.6816 24.5084 58.0124 24.3089 58.4204C24.1095 58.8284 24.0097 59.2658 24.0097 59.7326V60.4824C24.0097 61.1219 24.1185 61.664 24.3361 62.1088C24.5574 62.5498 24.8638 62.8862 25.2555 63.1177C25.6472 63.3456 26.1024 63.4595 26.621 63.4595C26.9583 63.4595 27.263 63.4118 27.535 63.3162C27.8106 63.2169 28.0482 63.0699 28.2476 62.8751C28.4471 62.6766 28.6012 62.4304 28.71 62.1364L29.9504 62.4892C29.8198 62.9156 29.6004 63.2905 29.2921 63.6139C28.9839 63.9337 28.6031 64.1836 28.1497 64.3637C27.6964 64.5401 27.1868 64.6283 26.621 64.6283Z" fill="#606161"/>
<path d="M32.6066 67.6276C32.389 67.6276 32.1949 67.6092 32.0245 67.5724C31.854 67.5394 31.7361 67.5063 31.6709 67.4732L31.9973 66.3264C32.3092 66.4073 32.5848 66.4367 32.8242 66.4146C33.0635 66.3926 33.2757 66.2842 33.4607 66.0894C33.6493 65.8982 33.8215 65.5877 33.9775 65.1576L34.2169 64.496L31.1268 55.9835H32.5195L34.8262 62.7318H34.9132L37.2198 55.9835H38.6125L35.0655 65.6869C34.9059 66.1243 34.7083 66.4863 34.4725 66.773C34.2368 67.0634 33.963 67.2784 33.6511 67.4181C33.3428 67.5577 32.9946 67.6276 32.6066 67.6276Z" fill="#606161"/>
<path d="M54.1905 58.8063C54.1905 59.9972 53.9783 61.0263 53.554 61.8938C53.1296 62.7612 52.5475 63.4301 51.8077 63.9006C51.0678 64.3711 50.2228 64.6063 49.2725 64.6063C48.3223 64.6063 47.4773 64.3711 46.7374 63.9006C45.9976 63.4301 45.4155 62.7612 44.9911 61.8938C44.5668 61.0263 44.3546 59.9972 44.3546 58.8063C44.3546 57.6155 44.5668 56.5863 44.9911 55.7189C45.4155 54.8515 45.9976 54.1825 46.7374 53.7121C47.4773 53.2416 48.3223 53.0064 49.2725 53.0064C50.2228 53.0064 51.0678 53.2416 51.8077 53.7121C52.5475 54.1825 53.1296 54.8515 53.554 55.7189C53.9783 56.5863 54.1905 57.6155 54.1905 58.8063ZM52.8848 58.8063C52.8848 57.8286 52.7234 57.0035 52.4006 56.3309C52.0815 55.6583 51.6481 55.1492 51.1004 54.8037C50.5564 54.4582 49.9471 54.2854 49.2725 54.2854C48.598 54.2854 47.9868 54.4582 47.4392 54.8037C46.8952 55.1492 46.4618 55.6583 46.139 56.3309C45.8198 57.0035 45.6603 57.8286 45.6603 58.8063C45.6603 59.784 45.8198 60.6092 46.139 61.2818C46.4618 61.9544 46.8952 62.4635 47.4392 62.809C47.9868 63.1545 48.598 63.3272 49.2725 63.3272C49.9471 63.3272 50.5564 63.1545 51.1004 62.809C51.6481 62.4635 52.0815 61.9544 52.4006 61.2818C52.7234 60.6092 52.8848 59.784 52.8848 58.8063Z" fill="#606161"/>
<path d="M57.5688 59.3577V64.4519H56.2849V55.9835H57.5253V57.3067H57.6341C57.8299 56.8767 58.1273 56.5312 58.5263 56.2702C58.9252 56.0056 59.4402 55.8733 60.0713 55.8733C60.6371 55.8733 61.1321 55.9909 61.5564 56.2261C61.9808 56.4577 62.3108 56.8105 62.5466 57.2847C62.7823 57.7551 62.9002 58.3506 62.9002 59.071V64.4519H61.6163V59.1592C61.6163 58.4939 61.4458 57.9757 61.1049 57.6044C60.764 57.2295 60.2961 57.0421 59.7013 57.0421C59.2915 57.0421 58.9252 57.1321 58.6024 57.3122C58.2833 57.4923 58.0312 57.7551 57.8463 58.1006C57.6613 58.4461 57.5688 58.8651 57.5688 59.3577Z" fill="#606161"/>
<path d="M68.7497 64.6283C67.9446 64.6283 67.25 64.4482 66.6661 64.0881C66.0858 63.7242 65.6379 63.2169 65.3224 62.5664C65.0105 61.9121 64.8546 61.1513 64.8546 60.2839C64.8546 59.4165 65.0105 58.652 65.3224 57.9904C65.6379 57.3251 66.0768 56.8068 66.6389 56.4356C67.2047 56.0607 67.8648 55.8733 68.6192 55.8733C69.0544 55.8733 69.4841 55.9468 69.9085 56.0938C70.3328 56.2408 70.7191 56.4797 71.0672 56.8105C71.4154 57.1376 71.6929 57.5714 71.8996 58.1117C72.1063 58.652 72.2097 59.3172 72.2097 60.1075V60.6588H65.7685V59.5341H70.904C70.904 59.0563 70.8097 58.6299 70.6211 58.255C70.4362 57.8801 70.1714 57.5842 69.8269 57.3674C69.486 57.1505 69.0834 57.0421 68.6192 57.0421C68.1078 57.0421 67.6653 57.1707 67.2918 57.428C66.9218 57.6816 66.6371 58.0124 66.4377 58.4204C66.2382 58.8284 66.1384 59.2658 66.1384 59.7326V60.4824C66.1384 61.1219 66.2472 61.664 66.4649 62.1088C66.6861 62.5498 66.9925 62.8862 67.3842 63.1177C67.7759 63.3456 68.2311 63.4595 68.7497 63.4595C69.087 63.4595 69.3917 63.4118 69.6637 63.3162C69.9393 63.2169 70.1769 63.0699 70.3763 62.8751C70.5758 62.6766 70.7299 62.4304 70.8387 62.1364L72.0791 62.4892C71.9485 62.9156 71.7291 63.2905 71.4209 63.6139C71.1126 63.9337 70.7318 64.1836 70.2784 64.3637C69.8251 64.5401 69.3155 64.6283 68.7497 64.6283Z" fill="#606161"/>
<path d="M78.6454 64.4519V53.1607H79.9946V58.1888H85.9352V53.1607H87.2844V64.4519H85.9352V59.4018H79.9946V64.4519H78.6454Z" fill="#606161"/>
<path d="M93.206 64.6283C92.4517 64.6283 91.7898 64.4464 91.2204 64.0825C90.6546 63.7187 90.2121 63.2096 89.893 62.5554C89.5774 61.9011 89.4197 61.1366 89.4197 60.2618C89.4197 59.3797 89.5774 58.6097 89.893 57.9518C90.2121 57.2939 90.6546 56.783 91.2204 56.4191C91.7898 56.0552 92.4517 55.8733 93.206 55.8733C93.9604 55.8733 94.6205 56.0552 95.1862 56.4191C95.7557 56.783 96.1981 57.2939 96.5136 57.9518C96.8328 58.6097 96.9924 59.3797 96.9924 60.2618C96.9924 61.1366 96.8328 61.9011 96.5136 62.5554C96.1981 63.2096 95.7557 63.7187 95.1862 64.0825C94.6205 64.4464 93.9604 64.6283 93.206 64.6283ZM93.206 63.4595C93.7791 63.4595 94.2505 63.3107 94.6205 63.013C94.9904 62.7152 95.2642 62.3238 95.4419 61.8386C95.6197 61.3535 95.7085 60.8279 95.7085 60.2618C95.7085 59.6958 95.6197 59.1684 95.4419 58.6795C95.2642 58.1907 94.9904 57.7956 94.6205 57.4942C94.2505 57.1928 93.7791 57.0421 93.206 57.0421C92.633 57.0421 92.1615 57.1928 91.7916 57.4942C91.4216 57.7956 91.1478 58.1907 90.9701 58.6795C90.7924 59.1684 90.7035 59.6958 90.7035 60.2618C90.7035 60.8279 90.7924 61.3535 90.9701 61.8386C91.1478 62.3238 91.4216 62.7152 91.7916 63.013C92.1615 63.3107 92.633 63.4595 93.206 63.4595Z" fill="#606161"/>
<path d="M98.9522 64.4519V55.9835H100.193V57.3067H100.301C100.475 56.8546 100.757 56.5036 101.145 56.2537C101.533 56.0001 101.999 55.8733 102.543 55.8733C103.094 55.8733 103.553 56.0001 103.919 56.2537C104.289 56.5036 104.577 56.8546 104.784 57.3067H104.871C105.085 56.8693 105.406 56.522 105.834 56.2647C106.262 56.0038 106.775 55.8733 107.374 55.8733C108.121 55.8733 108.732 56.1103 109.207 56.5845C109.682 57.0549 109.92 57.7882 109.92 58.7843V64.4519H108.636V58.7843C108.636 58.1594 108.467 57.7129 108.13 57.4446C107.792 57.1762 107.395 57.0421 106.938 57.0421C106.351 57.0421 105.896 57.2222 105.573 57.5824C105.25 57.9389 105.089 58.391 105.089 58.9386V64.4519H103.783V58.652C103.783 58.1705 103.629 57.7827 103.321 57.4887C103.012 57.1909 102.615 57.0421 102.129 57.0421C101.796 57.0421 101.484 57.1321 101.194 57.3122C100.907 57.4923 100.675 57.7423 100.497 58.062C100.323 58.3781 100.236 58.7439 100.236 59.1592V64.4519H98.9522Z" fill="#606161"/>
<path d="M115.771 64.6283C114.965 64.6283 114.271 64.4482 113.687 64.0881C113.107 63.7242 112.659 63.2169 112.343 62.5664C112.031 61.9121 111.875 61.1513 111.875 60.2839C111.875 59.4165 112.031 58.652 112.343 57.9904C112.659 57.3251 113.098 56.8068 113.66 56.4356C114.225 56.0607 114.886 55.8733 115.64 55.8733C116.075 55.8733 116.505 55.9468 116.929 56.0938C117.354 56.2408 117.74 56.4797 118.088 56.8105C118.436 57.1376 118.714 57.5714 118.92 58.1117C119.127 58.652 119.23 59.3172 119.23 60.1075V60.6588H112.789V59.5341H117.925C117.925 59.0563 117.831 58.6299 117.642 58.255C117.457 57.8801 117.192 57.5842 116.848 57.3674C116.507 57.1505 116.104 57.0421 115.64 57.0421C115.129 57.0421 114.686 57.1707 114.313 57.428C113.943 57.6816 113.658 58.0124 113.458 58.4204C113.259 58.8284 113.159 59.2658 113.159 59.7326V60.4824C113.159 61.1219 113.268 61.664 113.486 62.1088C113.707 62.5498 114.013 62.8862 114.405 63.1177C114.797 63.3456 115.252 63.4595 115.771 63.4595C116.108 63.4595 116.412 63.4118 116.684 63.3162C116.96 63.2169 117.198 63.0699 117.397 62.8751C117.597 62.6766 117.751 62.4304 117.86 62.1364L119.1 62.4892C118.969 62.9156 118.75 63.2905 118.442 63.6139C118.133 63.9337 117.753 64.1836 117.299 64.3637C116.846 64.5401 116.336 64.6283 115.771 64.6283Z" fill="#606161"/>
<path d="M127.102 57.8801L125.949 58.2109C125.877 58.0161 125.77 57.8268 125.628 57.643C125.49 57.4556 125.302 57.3012 125.062 57.1799C124.823 57.0586 124.516 56.998 124.143 56.998C123.632 56.998 123.205 57.1174 122.865 57.3563C122.527 57.5916 122.359 57.8911 122.359 58.255C122.359 58.5784 122.475 58.8339 122.707 59.0213C122.939 59.2088 123.302 59.365 123.795 59.49L125.035 59.7987C125.782 59.9825 126.339 60.2637 126.705 60.6423C127.072 61.0172 127.255 61.5005 127.255 62.0922C127.255 62.5774 127.117 63.0111 126.841 63.3934C126.569 63.7756 126.188 64.077 125.699 64.2976C125.209 64.5181 124.64 64.6283 123.991 64.6283C123.138 64.6283 122.433 64.4409 121.874 64.066C121.316 63.6911 120.962 63.1434 120.814 62.423L122.032 62.1143C122.148 62.5701 122.368 62.9119 122.69 63.1398C123.017 63.3676 123.443 63.4816 123.969 63.4816C124.567 63.4816 125.042 63.3529 125.394 63.0957C125.75 62.8347 125.927 62.5223 125.927 62.1584C125.927 61.8644 125.826 61.6181 125.623 61.4196C125.42 61.2175 125.108 61.0668 124.687 60.9675L123.294 60.6367C122.529 60.453 121.967 60.1681 121.608 59.7822C121.252 59.3926 121.075 58.9056 121.075 58.3212C121.075 57.8433 121.207 57.4207 121.472 57.0531C121.74 56.6856 122.105 56.397 122.565 56.1875C123.03 55.978 123.555 55.8733 124.143 55.8733C124.97 55.8733 125.619 56.057 126.091 56.4246C126.566 56.7922 126.903 57.2773 127.102 57.8801Z" fill="#606161"/>
<path d="M62.0535 78.0103L64.5049 85.0546H64.6017L67.053 78.0103H68.1013L65.0694 86.3785H64.0372L61.0052 78.0103H62.0535Z" fill="#F6CA6A"/>
<path d="M69.3875 86.3785V78.0103H74.3709V78.9092H70.3874V81.7368H74.1128V82.6357H70.3874V85.4796H74.4354V86.3785H69.3875Z" fill="#F6CA6A"/>
<path d="M76.1731 86.3785V78.0103H78.9632C79.6083 78.0103 80.1378 78.122 80.5517 78.3453C80.9657 78.566 81.2721 78.8697 81.471 79.2565C81.6699 79.6433 81.7693 80.0833 81.7693 80.5763C81.7693 81.0694 81.6699 81.5066 81.471 81.8879C81.2721 82.2693 80.967 82.5689 80.5558 82.7869C80.1445 83.0021 79.619 83.1097 78.9793 83.1097H76.7215V82.1944H78.947C79.3879 82.1944 79.7427 82.129 80.0115 81.9983C80.2829 81.8675 80.4791 81.6823 80.6001 81.4426C80.7237 81.2001 80.7856 80.9114 80.7856 80.5763C80.7856 80.2413 80.7237 79.9484 80.6001 79.6978C80.4765 79.4472 80.2789 79.2538 80.0074 79.1176C79.7359 78.9787 79.3771 78.9092 78.9309 78.9092H77.173V86.3785H76.1731ZM80.0598 82.6193L82.0919 86.3785H80.9307L78.9309 82.6193H80.0598Z" fill="#F6CA6A"/>
<path d="M84.4354 78.0103V86.3785H83.4355V78.0103H84.4354Z" fill="#F6CA6A"/>
<path d="M86.4403 86.3785V78.0103H91.3914V78.9092H87.4402V81.7368H91.0205V82.6357H87.4402V86.3785H86.4403Z" fill="#F6CA6A"/>
<path d="M94.1038 78.0103V86.3785H93.1039V78.0103H94.1038Z" fill="#F6CA6A"/>
<path d="M96.1087 86.3785V78.0103H101.092V78.9092H97.1086V81.7368H100.834V82.6357H97.1086V85.4796H101.157V86.3785H96.1087Z" fill="#F6CA6A"/>
<path d="M105.442 86.3785H102.894V78.0103H105.555C106.356 78.0103 107.042 78.1778 107.612 78.5129C108.181 78.8452 108.618 79.3233 108.922 79.9471C109.226 80.5681 109.378 81.3118 109.378 82.1781C109.378 83.0497 109.224 83.8002 108.918 84.4295C108.612 85.056 108.165 85.5381 107.579 85.8759C106.993 86.211 106.281 86.3785 105.442 86.3785ZM103.894 85.4796H105.378C106.061 85.4796 106.626 85.3461 107.075 85.0791C107.524 84.8122 107.859 84.4322 108.079 83.9391C108.3 83.4461 108.41 82.8591 108.41 82.1781C108.41 81.5025 108.301 80.9209 108.083 80.4333C107.866 79.943 107.54 79.5671 107.108 79.3056C106.675 79.0413 106.136 78.9092 105.491 78.9092H103.894V85.4796Z" fill="#F6CA6A"/>
<path d="M29.6198 101.532V112.824H28.2707V102.966H28.2054L25.4853 104.796V103.407L28.2707 101.532H29.6198Z" fill="#606161"/>
<path d="M36.741 101.532V112.824H35.3918V102.966H35.3266L32.6065 104.796V103.407L35.3918 101.532H36.741Z" fill="#606161"/>
<path d="M39.9453 112.824V111.831L43.6228 107.751C44.0544 107.274 44.4098 106.858 44.6891 106.505C44.9684 106.149 45.1751 105.814 45.3093 105.502C45.4471 105.186 45.516 104.855 45.516 104.51C45.516 104.113 45.4217 103.769 45.2331 103.479C45.0482 103.188 44.7943 102.964 44.4715 102.806C44.1487 102.648 43.786 102.569 43.3835 102.569C42.9555 102.569 42.5819 102.659 42.2628 102.839C41.9473 103.015 41.7024 103.264 41.5284 103.583C41.3579 103.903 41.2727 104.278 41.2727 104.708H39.9888C39.9888 104.046 40.1393 103.466 40.4403 102.966C40.7413 102.466 41.1512 102.076 41.6698 101.797C42.1921 101.518 42.7778 101.378 43.427 101.378C44.0798 101.378 44.6583 101.518 45.1624 101.797C45.6665 102.076 46.0618 102.453 46.3484 102.927C46.6349 103.401 46.7781 103.929 46.7781 104.51C46.7781 104.925 46.7038 105.331 46.5551 105.728C46.41 106.121 46.1561 106.56 45.7935 107.046C45.4344 107.527 44.9357 108.115 44.2974 108.81L41.7949 111.522V111.611H46.974V112.824H39.9453Z" fill="#606161"/>
<path d="M52.9854 112.978C52.2673 112.978 51.6271 112.853 51.065 112.603C50.5065 112.353 50.0622 112.006 49.7321 111.561C49.4057 111.113 49.228 110.593 49.199 110.001H50.5699C50.5989 110.365 50.7223 110.679 50.9399 110.944C51.1575 111.204 51.4422 111.407 51.794 111.55C52.1458 111.693 52.5357 111.765 52.9636 111.765C53.4423 111.765 53.8667 111.68 54.2366 111.511C54.6065 111.342 54.8967 111.107 55.107 110.806C55.3174 110.504 55.4226 110.155 55.4226 109.758C55.4226 109.343 55.321 108.977 55.1179 108.661C54.9148 108.341 54.6174 108.091 54.2257 107.911C53.834 107.731 53.3553 107.641 52.7895 107.641H51.8973V106.428H52.7895C53.232 106.428 53.6201 106.347 53.9537 106.186C54.291 106.024 54.554 105.796 54.7425 105.502C54.9348 105.208 55.0309 104.862 55.0309 104.465C55.0309 104.083 54.9475 103.751 54.7806 103.468C54.6138 103.185 54.3781 102.964 54.0734 102.806C53.7724 102.648 53.417 102.569 53.0071 102.569C52.6227 102.569 52.26 102.641 51.9191 102.784C51.5818 102.924 51.3062 103.128 51.0922 103.396C50.8782 103.661 50.7621 103.98 50.744 104.355H49.4384C49.4601 103.763 49.636 103.245 49.9661 102.8C50.2961 102.352 50.7277 102.003 51.2608 101.753C51.7976 101.503 52.3869 101.378 53.0289 101.378C53.718 101.378 54.3091 101.52 54.8024 101.803C55.2956 102.082 55.6746 102.451 55.9394 102.911C56.2041 103.37 56.3365 103.866 56.3365 104.399C56.3365 105.035 56.1715 105.577 55.8415 106.026C55.515 106.474 55.0708 106.785 54.5086 106.957V107.046C55.2122 107.163 55.7617 107.466 56.157 107.955C56.5523 108.441 56.75 109.041 56.75 109.758C56.75 110.372 56.5849 110.923 56.2549 111.412C55.9285 111.897 55.4824 112.28 54.9166 112.559C54.3509 112.838 53.7071 112.978 52.9854 112.978Z" fill="#606161"/>
<path d="M66.8089 113C66.0037 113 65.3092 112.82 64.7253 112.46C64.145 112.096 63.6971 111.589 63.3815 110.938C63.0696 110.284 62.9137 109.523 62.9137 108.656C62.9137 107.788 63.0696 107.024 63.3815 106.362C63.6971 105.697 64.1359 105.179 64.6981 104.807C65.2638 104.432 65.9239 104.245 66.6783 104.245C67.1135 104.245 67.5433 104.318 67.9676 104.465C68.3919 104.612 68.7782 104.851 69.1264 105.182C69.4745 105.509 69.752 105.943 69.9587 106.483C70.1654 107.024 70.2688 107.689 70.2688 108.479V109.03H63.8276V107.906H68.9632C68.9632 107.428 68.8689 107.002 68.6803 106.627C68.4953 106.252 68.2305 105.956 67.886 105.739C67.5451 105.522 67.1425 105.414 66.6783 105.414C66.1669 105.414 65.7244 105.542 65.3509 105.8C64.9809 106.053 64.6962 106.384 64.4968 106.792C64.2973 107.2 64.1976 107.637 64.1976 108.104V108.854C64.1976 109.494 64.3064 110.036 64.524 110.48C64.7452 110.921 65.0517 111.258 65.4434 111.489C65.8351 111.717 66.2902 111.831 66.8089 111.831C67.1461 111.831 67.4508 111.783 67.7228 111.688C67.9984 111.589 68.236 111.442 68.4355 111.247C68.6349 111.048 68.7891 110.802 68.8979 110.508L70.1382 110.861C70.0077 111.287 69.7882 111.662 69.48 111.986C69.1717 112.305 68.7909 112.555 68.3375 112.735C67.8842 112.912 67.3746 113 66.8089 113Z" fill="#606161"/>
<path d="M78.8004 104.355L75.7103 112.824H74.4047L71.3147 104.355H72.7074L75.014 111.103H75.101L77.4077 104.355H78.8004Z" fill="#606161"/>
<path d="M80.495 112.824V104.355H81.7788V112.824H80.495ZM81.1478 102.944C80.8975 102.944 80.6817 102.857 80.5004 102.685C80.3227 102.512 80.2338 102.304 80.2338 102.062C80.2338 101.819 80.3227 101.611 80.5004 101.439C80.6817 101.266 80.8975 101.18 81.1478 101.18C81.398 101.18 81.612 101.266 81.7897 101.439C81.9711 101.611 82.0617 101.819 82.0617 102.062C82.0617 102.304 81.9711 102.512 81.7897 102.685C81.612 102.857 81.398 102.944 81.1478 102.944Z" fill="#606161"/>
<path d="M87.6338 113C86.8287 113 86.1342 112.82 85.5502 112.46C84.97 112.096 84.5221 111.589 84.2065 110.938C83.8946 110.284 83.7387 109.523 83.7387 108.656C83.7387 107.788 83.8946 107.024 84.2065 106.362C84.5221 105.697 84.9609 105.179 85.523 104.807C86.0888 104.432 86.7489 104.245 87.5033 104.245C87.9385 104.245 88.3683 104.318 88.7926 104.465C89.2169 104.612 89.6032 104.851 89.9513 105.182C90.2995 105.509 90.577 105.943 90.7837 106.483C90.9904 107.024 91.0938 107.689 91.0938 108.479V109.03H84.6526V107.906H89.7881C89.7881 107.428 89.6938 107.002 89.5053 106.627C89.3203 106.252 89.0555 105.956 88.711 105.739C88.3701 105.522 87.9675 105.414 87.5033 105.414C86.9919 105.414 86.5494 105.542 86.1759 105.8C85.8059 106.053 85.5212 106.384 85.3218 106.792C85.1223 107.2 85.0226 107.637 85.0226 108.104V108.854C85.0226 109.494 85.1314 110.036 85.349 110.48C85.5702 110.921 85.8767 111.258 86.2683 111.489C86.66 111.717 87.1152 111.831 87.6338 111.831C87.9711 111.831 88.2758 111.783 88.5478 111.688C88.8234 111.589 89.061 111.442 89.2604 111.247C89.4599 111.048 89.6141 110.802 89.7229 110.508L90.9632 110.861C90.8327 111.287 90.6132 111.662 90.305 111.986C89.9967 112.305 89.6159 112.555 89.1625 112.735C88.7092 112.912 88.1996 113 87.6338 113Z" fill="#606161"/>
<path d="M94.94 112.824L92.394 104.355H93.7431L95.5493 110.839H95.6363L97.4207 104.355H98.7916L100.554 110.817H100.641L102.447 104.355H103.797L101.251 112.824H99.9885L98.1606 106.318H98.03L96.2021 112.824H94.94Z" fill="#606161"/>
<path d="M111.413 106.252L110.26 106.583C110.187 106.388 110.08 106.198 109.939 106.015C109.801 105.827 109.612 105.673 109.373 105.552C109.133 105.43 108.827 105.37 108.453 105.37C107.942 105.37 107.516 105.489 107.175 105.728C106.838 105.963 106.669 106.263 106.669 106.627C106.669 106.95 106.785 107.206 107.017 107.393C107.249 107.58 107.612 107.737 108.105 107.862L109.346 108.17C110.093 108.354 110.649 108.635 111.016 109.014C111.382 109.389 111.565 109.872 111.565 110.464C111.565 110.949 111.427 111.383 111.152 111.765C110.88 112.147 110.499 112.449 110.009 112.669C109.52 112.89 108.95 113 108.301 113C107.449 113 106.743 112.813 106.185 112.438C105.626 112.063 105.273 111.515 105.124 110.795L106.343 110.486C106.459 110.942 106.678 111.284 107.001 111.511C107.327 111.739 107.753 111.853 108.279 111.853C108.878 111.853 109.353 111.725 109.705 111.467C110.06 111.206 110.238 110.894 110.238 110.53C110.238 110.236 110.136 109.99 109.933 109.791C109.73 109.589 109.418 109.438 108.997 109.339L107.605 109.008C106.839 108.825 106.277 108.54 105.918 108.154C105.563 107.764 105.385 107.277 105.385 106.693C105.385 106.215 105.517 105.792 105.782 105.425C106.051 105.057 106.415 104.769 106.876 104.559C107.34 104.35 107.866 104.245 108.453 104.245C109.28 104.245 109.929 104.429 110.401 104.796C110.876 105.164 111.213 105.649 111.413 106.252Z" fill="#606161"/>
<path d="M22.6762 0C22.6293 0.130798 22.7466 0.0990884 22.7974 0.107016C24.8008 0.388154 26.6132 1.46109 27.8388 3.0916C28.4657 3.88654 29.0084 4.74608 29.4579 5.65604C33.4511 13.4762 37.323 21.3558 40.9564 29.3583C41.6565 30.9041 42.4035 32.4341 42.9666 34.0433C44.6758 38.9542 42.0124 45.7755 35.5357 47.246C35.1798 47.3292 34.8121 47.3728 34.4484 47.4362C34.4575 47.453 34.4679 47.4689 34.4797 47.4838H34.1277C34.0886 47.3887 34.0495 47.3966 34.0104 47.4838H33.0131C32.9739 47.3966 32.9348 47.3887 32.8957 47.4838H32.6063C32.618 47.4702 32.6285 47.4557 32.6376 47.4402C32.6376 47.4402 32.6376 47.4204 32.618 47.4204C32.5656 47.3973 32.5104 47.3813 32.4538 47.3728C30.5057 47.1735 28.6306 46.5152 26.9783 45.4505C25.1438 44.2468 23.4715 42.8065 22.0035 41.1658C21.6945 40.8329 21.6945 40.8369 21.3934 41.1658C20.2643 42.4246 19.0217 43.5737 17.6818 44.5983C15.6637 46.0965 13.4735 47.1746 10.9431 47.4164C10.8844 47.4164 10.771 47.3847 10.7827 47.5234H10.4894C10.4503 47.4283 10.4112 47.4402 10.3721 47.5234H9.42951C9.39431 47.4402 9.3552 47.4283 9.31609 47.5234H8.9641C8.9641 47.5234 8.99148 47.4878 8.99148 47.4759C8.98642 47.4674 8.9796 47.4602 8.97149 47.4547C8.96338 47.4492 8.95418 47.4456 8.94454 47.4442C8.49477 47.3609 8.03718 47.3094 7.59523 47.1984C5.67598 46.7225 3.93948 45.6795 2.60603 44.2018C1.27259 42.7242 0.402311 40.8784 0.1056 38.8987C0.1056 38.8352 0.129064 38.7243 0 38.7362V38.5578C0.0938649 38.5182 0.0821318 38.4785 0 38.4389V38.2605C0.0547545 38.2407 0.0312883 38.2209 0 38.2011V36.4175C0.0312883 36.4175 0.0508424 36.4175 0.0508424 36.3897C0.0508424 36.362 0.0508435 36.3461 0 36.358V36.0607C0 36.0607 5.92321e-07 36.1281 0.0586661 36.0885C0.0804239 36.0691 0.094353 36.0423 0.0977759 36.0132C0.177066 35.4083 0.307923 34.8115 0.48888 34.2296C1.03852 32.6694 1.67843 31.1434 2.40529 29.6595C5.3855 23.0826 8.51432 16.5757 11.7918 10.1389C12.7774 8.18085 13.6886 6.17527 14.8189 4.30049C16.1839 2.02143 18.0925 0.527158 20.752 0.130799C20.795 0.130799 20.9319 0.16647 20.8654 0.0237806H21.2135C21.2526 0.114943 21.2917 0.103052 21.3308 0.0237806H22.2694C22.3086 0.107016 22.3477 0.114943 22.3868 0.0237806L22.6762 0ZM2.98803 37.6065C2.98513 38.1328 3.04688 38.6574 3.17185 39.1682C3.51136 40.5731 4.26645 41.8392 5.33595 42.797C6.40544 43.7548 7.73824 44.3584 9.15574 44.527C10.7368 44.6825 12.329 44.3801 13.7473 43.655C16.0939 42.5016 17.9438 40.7298 19.6764 38.8075C19.7742 38.6926 19.739 38.6252 19.6764 38.53C19.4105 38.1892 19.1445 37.8483 18.8942 37.4995C17.1732 35.2855 15.7781 32.8303 14.7524 30.2105C14.0954 28.4031 13.63 26.556 13.8372 24.5941C13.9229 23.4295 14.2762 22.3013 14.8691 21.2999C15.462 20.2985 16.2779 19.4517 17.2516 18.827C18.9842 17.6827 21.0845 17.257 23.1181 17.638C24.2836 17.7941 25.397 18.2241 26.3693 18.8937C27.3417 19.5633 28.1463 20.4539 28.7187 21.4945C29.7982 23.3852 29.8569 25.4225 29.501 27.5033C29.1087 29.5506 28.3761 31.5155 27.3342 33.314C26.3395 35.1094 25.1904 36.8124 23.9003 38.4032C23.7478 38.5935 23.7556 38.6965 23.9238 38.859C24.2328 39.1603 24.5183 39.4892 24.8194 39.7984C26.1541 41.2462 27.7048 42.4727 29.4149 43.433C30.9121 44.2874 32.6334 44.6516 34.3428 44.4754C35.3697 44.3753 36.3602 44.0373 37.2377 43.4875C38.1153 42.9377 38.8563 42.1908 39.4037 41.3046C40.7491 39.1959 40.8469 36.9248 40.0568 34.6021C39.5589 33.2753 38.995 31.9749 38.3673 30.7059C34.936 23.1962 31.3535 15.7592 27.6197 8.39488C27.1121 7.27401 26.5075 6.20096 25.8128 5.18834C25.043 4.13459 23.8941 3.43115 22.6156 3.23079C21.337 3.03042 20.0321 3.34929 18.9842 4.11817C18.1182 4.80142 17.4263 5.68481 16.9661 6.6945C15.5151 9.53243 14.0602 12.3664 12.6444 15.2202C9.59377 21.3637 6.66832 27.5641 3.86801 33.8213C3.30374 35.0022 3.00329 36.2946 2.98803 37.6065ZM16.7901 25.5057C16.828 26.8509 17.1159 28.1768 17.6388 29.4138C18.6534 31.8018 19.9893 34.036 21.6085 36.0528C21.7571 36.247 21.8197 36.1242 21.9018 36.0132C22.5549 35.1491 23.1846 34.2692 23.7635 33.3536C24.928 31.6241 25.8163 29.7193 26.3956 27.7095C26.7898 26.4213 26.8102 25.0454 26.4543 23.7459C25.6016 21.007 22.9891 20.028 20.6268 20.5393C18.1824 21.0506 16.7705 22.9294 16.7901 25.5057Z" fill="#272219"/>
<path d="M149.984 27.7848C149.832 27.7332 149.883 27.868 149.875 27.9235C149.66 29.5665 149.01 31.1198 147.994 32.4182C146.642 34.1703 144.686 35.3376 142.518 35.6842C141.241 35.9473 139.918 35.8653 138.681 35.4464C137.886 35.1714 137.163 34.7143 136.569 34.1106C136.519 34.0552 136.46 34.0036 136.35 33.8966C136.35 34.1899 136.35 34.4198 136.35 34.6497C136.358 34.7391 136.347 34.8291 136.318 34.9138C136.289 34.9986 136.243 35.0763 136.183 35.1417C136.122 35.2072 136.049 35.2589 135.967 35.2937C135.885 35.3284 135.798 35.3453 135.709 35.3433C134.508 35.3433 133.308 35.3433 132.107 35.3433C131.954 35.3433 131.896 35.2839 131.908 35.1333C131.911 35.0739 131.911 35.0143 131.908 34.9549C131.908 26.3962 131.908 17.8401 131.908 9.28669C131.908 8.83484 131.857 8.89033 132.299 8.89033C133.566 8.89033 134.837 8.89033 136.104 8.89033C136.354 8.89033 136.405 8.96168 136.405 9.20346C136.405 12.3109 136.405 15.4144 136.405 18.5219V18.8944C136.763 18.5219 137.165 18.1957 137.602 17.9234C138.789 17.2188 140.163 16.9083 141.533 17.0355C143.389 17.1299 145.169 17.8166 146.617 18.9975C148.33 20.3954 149.476 22.3832 149.836 24.5822C149.834 24.7783 149.877 24.9722 149.961 25.149H149.98C149.989 25.1445 149.996 25.1376 150 25.1292V25.367C149.973 25.367 149.949 25.367 149.949 25.3987C149.949 25.4304 149.973 25.4383 150 25.4264V27.4439C149.969 27.4439 149.949 27.4439 149.949 27.4756C149.949 27.5073 149.969 27.5192 150 27.5033L149.984 27.7848ZM136.394 26.3896C136.428 27.1821 136.422 27.9759 136.374 28.7677C136.34 29.0902 136.396 29.4158 136.534 29.7083C136.672 30.0008 136.887 30.2488 137.156 30.4245C137.27 30.5157 137.387 30.6068 137.508 30.6901C138.649 31.4061 140.013 31.6656 141.332 31.4179C142.652 31.1702 143.833 30.4331 144.646 29.3504C145.286 28.3575 145.576 27.1742 145.467 25.9932C145.436 24.9893 145.099 24.0199 144.501 23.2187C144.072 22.6667 143.534 22.2111 142.922 21.8809C142.31 21.5506 141.637 21.3529 140.946 21.3003C140.129 21.1897 139.298 21.2876 138.529 21.5853C137.759 21.8829 137.075 22.3708 136.538 23.0047C136.481 23.0641 136.437 23.135 136.409 23.2129C136.38 23.2907 136.368 23.3737 136.374 23.4565C136.397 24.4435 136.394 25.4106 136.394 26.3896Z" fill="#272219"/>
<path d="M21.3269 0C21.2878 0.0792718 21.2487 0.0911626 21.2096 0H21.3269Z" fill="#030101"/>
<path d="M22.3829 0C22.3438 0.0911626 22.3046 0.0832354 22.2655 0H22.3829Z" fill="#030101"/>
<path d="M0.00391187 38.4151C0.0860436 38.4547 0.0977768 38.4944 0.00391187 38.534V38.4151Z" fill="#030101"/>
<path d="M9.32 47.4997C9.35911 47.4045 9.39822 47.4164 9.43342 47.4997H9.32Z" fill="#030101"/>
<path d="M10.3721 47.4997C10.4112 47.4164 10.4503 47.4045 10.4894 47.4997H10.3721Z" fill="#030101"/>
<path d="M32.8683 47.4997C32.9075 47.4045 32.9466 47.4125 32.9857 47.4997H32.8683Z" fill="#030101"/>
<path d="M33.983 47.4997C34.0221 47.4125 34.0612 47.4045 34.1003 47.4997H33.983Z" fill="#030101"/>
<path d="M149.984 25.4106C149.957 25.4106 149.934 25.4106 149.934 25.3828C149.934 25.3551 149.957 25.3392 149.984 25.3511V25.4106Z" fill="#030101"/>
<path d="M149.984 27.4875C149.953 27.4875 149.934 27.4875 149.934 27.4597C149.934 27.432 149.953 27.4161 149.984 27.428V27.4875Z" fill="#030101"/>
<path d="M0.00391187 36.3342C0.0352002 36.3342 0.0547543 36.3342 0.0547543 36.3659C0.0547543 36.3976 0.0547553 36.4095 0.00391187 36.3937V36.3342Z" fill="#030101"/>
<path d="M0.00391187 38.1773C0.0352002 38.1773 0.0586664 38.2169 0.00391187 38.2367V38.1773Z" fill="#030101"/>
<path d="M97.9676 18.9261C98.8145 17.9975 99.9407 17.3787 101.171 17.1663C102.345 16.9646 103.547 17.0048 104.705 17.2843C105.863 17.5638 106.954 18.077 107.912 18.7932C108.87 19.5094 109.676 20.414 110.282 21.4529C110.888 22.4917 111.281 23.6437 111.437 24.8398C111.84 27.1693 111.383 29.5674 110.154 31.5779C109.5 32.6781 108.613 33.618 107.559 34.3306C106.504 35.0432 105.307 35.5108 104.053 35.7C102.485 36.0374 100.85 35.822 99.4185 35.0897C98.8569 34.7813 98.3506 34.3793 97.9206 33.9006C97.9206 34.2058 97.9206 34.4396 97.9206 34.6735C97.9268 34.7627 97.9142 34.8523 97.8838 34.9363C97.8534 35.0203 97.8058 35.0968 97.7441 35.1608C97.6824 35.2249 97.608 35.2749 97.5259 35.3077C97.4437 35.3406 97.3557 35.3554 97.2675 35.3513C96.0746 35.3513 94.8818 35.3513 93.6928 35.3513C93.5403 35.3513 93.4738 35.3037 93.4894 35.1491C93.4933 35.0791 93.4933 35.009 93.4894 34.939C93.4894 26.4015 93.4894 17.8626 93.4894 9.32236C93.4894 8.83088 93.4386 8.926 93.8805 8.926C95.1281 8.926 96.3797 8.926 97.6273 8.926C97.8854 8.926 97.9715 8.98149 97.9676 9.25894C97.9676 12.3585 97.9676 15.454 97.9676 18.5536V18.9261ZM97.9676 26.3935C97.9676 27.1863 98.0223 27.979 97.948 28.7717C97.916 29.0934 97.972 29.4179 98.11 29.7095C98.248 30.001 98.4626 30.2484 98.7302 30.4245C98.8319 30.5038 98.9297 30.587 99.0353 30.6584C100.1 31.3993 101.41 31.6843 102.68 31.4511C103.761 31.3196 104.775 30.8515 105.582 30.1114C107.334 28.4863 107.421 25.4542 106.365 23.623C104.902 21.0903 100.537 20.1073 98.0653 23.0681C98.0218 23.1233 97.9896 23.1869 97.9708 23.255C97.952 23.3231 97.9469 23.3943 97.9558 23.4644C97.9663 24.4368 97.9702 25.4132 97.9676 26.3935Z" fill="#272219"/>
<path d="M66.4954 18.9182C66.4954 18.6368 66.4954 18.4307 66.4954 18.2286C66.487 18.1318 66.4996 18.0344 66.5325 17.9432C66.5653 17.852 66.6176 17.7693 66.6855 17.7008C66.7534 17.6323 66.8354 17.5799 66.9255 17.5471C67.0157 17.5143 67.1119 17.502 67.2073 17.5111C68.361 17.5111 69.5148 17.5111 70.6646 17.5111C70.9149 17.5111 70.9462 17.6023 70.9462 17.8163C70.9462 22.784 70.9462 27.7517 70.9462 32.7194C70.9462 33.5121 70.9462 34.3049 70.9462 35.0976C70.9462 35.3037 70.8875 35.3671 70.6842 35.3671C69.5421 35.3671 68.4001 35.3671 67.2581 35.3671C66.7105 35.3671 66.4954 35.1412 66.4759 34.5942V33.9442C66.206 34.1899 65.9831 34.4238 65.7289 34.618C64.7255 35.3849 63.5085 35.8108 62.252 35.8348C59.9569 35.9531 57.7058 35.1662 55.9708 33.639C54.3639 32.2418 53.3084 30.3038 52.9985 28.1811C52.5754 25.9264 52.9536 23.5927 54.0662 21.5936C54.7155 20.3978 55.6327 19.3732 56.744 18.6022C57.8553 17.8311 59.1297 17.3352 60.4646 17.1544C61.8621 16.8794 63.3087 17.0297 64.6221 17.5864C64.9608 17.7366 65.2843 17.9198 65.5881 18.1334C65.9155 18.3639 66.2194 18.6268 66.4954 18.9182ZM66.4954 26.4213C66.4954 25.4898 66.4954 24.5624 66.4954 23.6468C66.5032 23.5106 66.482 23.3744 66.4334 23.2473C66.3849 23.1201 66.31 23.0049 66.2139 22.9095C65.659 22.3001 64.9626 21.8409 64.188 21.5737C63.4135 21.3065 62.5852 21.2398 61.7787 21.3796C59.0645 21.7482 57.3632 23.734 57.3945 26.5045C57.3647 27.2614 57.5114 28.0146 57.8226 28.7033C58.1338 29.3919 58.6008 29.9966 59.1857 30.4681C60.0847 31.1676 61.1813 31.5566 62.3145 31.5779C63.0701 31.6438 63.8302 31.5232 64.5297 31.2264C65.2292 30.9296 65.8474 30.4654 66.3312 29.8736C66.4525 29.7326 66.5143 29.549 66.5033 29.3623C66.4915 28.3595 66.4954 27.3884 66.4954 26.4253V26.4213Z" fill="#272219"/>
<path d="M117.648 18.9182C117.867 18.724 118.039 18.5655 118.211 18.4188C119.236 17.5978 120.489 17.1224 121.794 17.0593C123.556 16.8793 125.325 17.3202 126.804 18.3078C127.542 18.8033 128.162 19.4604 128.617 20.2307C129.072 21.0011 129.35 21.865 129.432 22.7589C129.511 23.4656 129.549 24.1763 129.545 24.8874C129.545 28.2802 129.545 31.677 129.545 35.0698C129.545 35.3552 129.451 35.4028 129.201 35.3988C127.934 35.3988 126.663 35.3988 125.396 35.3988C125.134 35.3988 125.051 35.3433 125.055 35.0619C125.055 31.891 125.055 28.7056 125.055 25.5057C125.065 24.8641 125.014 24.223 124.903 23.5913C124.633 22.1842 123.847 21.3994 122.443 21.2131C121.658 21.0929 120.856 21.1647 120.104 21.4226C119.353 21.6805 118.673 22.117 118.121 22.6955C118.054 22.758 118.001 22.8349 117.967 22.9206C117.932 23.0062 117.917 23.0986 117.922 23.191C117.922 27.1268 117.922 31.0666 117.922 35.0025C117.922 35.2839 117.859 35.3671 117.574 35.3631C116.295 35.3631 115.016 35.3631 113.737 35.3631C113.494 35.3631 113.404 35.3195 113.404 35.0421C113.404 29.3028 113.404 23.5649 113.404 17.8282C113.404 17.5864 113.459 17.5111 113.706 17.5111C114.762 17.5111 115.818 17.5111 116.87 17.5111C116.972 17.4966 117.076 17.5064 117.175 17.5398C117.273 17.5731 117.362 17.629 117.435 17.7031C117.508 17.7773 117.563 17.8676 117.596 17.967C117.629 18.0665 117.639 18.1723 117.624 18.2761L117.648 18.9182Z" fill="#272219"/>
<path d="M85.5031 18.9301C86.1787 18.2356 86.9992 17.7033 87.9045 17.3724C89.0555 16.9753 90.2949 16.9217 91.4752 17.2178C91.4992 17.2193 91.5227 17.2257 91.5442 17.2365C91.5658 17.2474 91.5849 17.2625 91.6006 17.2809C91.6163 17.2994 91.6282 17.3209 91.6355 17.3441C91.6429 17.3673 91.6455 17.3917 91.6434 17.416C91.6434 18.7597 91.6434 20.1073 91.6434 21.4787C90.8668 21.2564 90.06 21.1614 89.2538 21.1973C87.9724 21.2216 86.7473 21.7355 85.8238 22.6361C85.7334 22.7155 85.6615 22.8143 85.6135 22.9254C85.5654 23.0364 85.5424 23.1569 85.5461 23.2782C85.5461 27.2021 85.5461 31.13 85.5461 35.0579C85.5461 35.3195 85.4913 35.4028 85.2176 35.4028C83.9191 35.4028 82.6207 35.4028 81.3065 35.4028C81.1032 35.4028 81.0445 35.3473 81.0445 35.1412C81.0445 29.3543 81.0445 23.5675 81.0445 17.7807C81.0445 17.5785 81.0875 17.5072 81.2987 17.5111C82.472 17.5111 83.6219 17.5111 84.7835 17.5111C84.8739 17.5038 84.9648 17.5159 85.0502 17.5468C85.1357 17.5777 85.2137 17.6266 85.2791 17.6903C85.3445 17.7539 85.3959 17.831 85.4298 17.9162C85.4637 18.0015 85.4793 18.0931 85.4757 18.1849C85.5109 18.4109 85.5031 18.6328 85.5031 18.9301Z" fill="#272219"/>
<path d="M73.7621 26.449C73.7621 23.5715 73.7621 20.6939 73.7621 17.8163C73.7621 17.5746 73.813 17.5032 74.0633 17.5032C75.367 17.5191 76.6641 17.5191 77.9548 17.5032C78.2051 17.5032 78.2598 17.5746 78.2598 17.8203C78.2598 23.5649 78.2598 29.3094 78.2598 35.054C78.2598 35.2839 78.2051 35.3592 77.9704 35.3552C76.6667 35.3552 75.3631 35.3552 74.0594 35.3552C73.8169 35.3552 73.7739 35.2759 73.7778 35.054C73.77 32.1843 73.7648 29.316 73.7621 26.449Z" fill="#272219"/>
<path d="M75.9954 15.022C75.3935 15.0212 74.8054 14.8393 74.3057 14.4994C73.806 14.1594 73.4171 13.6767 73.1884 13.1125C72.9597 12.5483 72.9015 11.928 73.0211 11.3302C73.1407 10.7325 73.4328 10.1841 73.8603 9.75479C74.2878 9.32545 74.8315 9.03442 75.4224 8.91861C76.0133 8.8028 76.6248 8.86742 77.1794 9.10428C77.7341 9.34114 78.2068 9.73958 78.5377 10.2491C78.8686 10.7586 79.0428 11.3561 79.0381 11.9661C79.0319 12.7794 78.7085 13.5573 78.1384 14.1298C77.5684 14.7023 76.7979 15.0231 75.9954 15.022Z" fill="#272219"/>
<path d="M53.765 77.9836C53.765 78.1065 53.765 78.2254 53.7455 78.3483C53.7318 78.4957 53.7646 78.6438 53.839 78.7712C53.9135 78.8987 54.0259 78.999 54.16 79.0578C54.3634 79.1568 54.5511 79.2639 54.7702 79.3788C54.8429 79.4088 54.9088 79.4536 54.9638 79.5104C55.0188 79.5672 55.0618 79.6348 55.09 79.7091C55.1182 79.7834 55.1311 79.8627 55.1279 79.9423C55.1247 80.0218 55.1054 80.0998 55.0713 80.1715C54.9853 80.4054 54.8797 80.6353 54.7858 80.8691C54.7322 80.9903 54.7159 81.1251 54.7389 81.2559C54.7619 81.3867 54.8232 81.5074 54.9149 81.6024C55.0909 81.7966 55.2747 81.9987 55.435 82.189C55.4871 82.2407 55.5284 82.3023 55.5566 82.3704C55.5848 82.4384 55.5994 82.5115 55.5994 82.5853C55.5994 82.6592 55.5848 82.7323 55.5566 82.8003C55.5284 82.8684 55.4871 82.93 55.435 82.9817C55.2988 83.1567 55.1498 83.321 54.9892 83.4732C54.8533 83.5874 54.761 83.7461 54.7281 83.9219C54.6953 84.0977 54.724 84.2797 54.8093 84.4363C54.9031 84.6385 54.9931 84.8327 55.0674 85.0507C55.0989 85.1172 55.1171 85.1894 55.1208 85.2631C55.1244 85.3368 55.1136 85.4105 55.0888 85.4799C55.0641 85.5493 55.0259 85.6129 54.9765 85.6672C54.9272 85.7214 54.8677 85.7652 54.8014 85.7959C54.5863 85.9267 54.3634 86.0376 54.1405 86.1526C54.0136 86.2111 53.9079 86.3082 53.8378 86.4303C53.7677 86.5525 53.7368 86.6936 53.7494 86.8343C53.7494 87.1078 53.7689 87.3773 53.7728 87.6508C53.7836 87.7901 53.7395 87.928 53.65 88.0343C53.5605 88.1405 53.4331 88.2065 53.2957 88.2176C53.0532 88.2612 52.8029 88.2929 52.5565 88.3207C52.4005 88.3301 52.2519 88.3909 52.1332 88.494C52.0146 88.5971 51.9325 88.7366 51.8995 88.8914C51.8369 89.1054 51.7782 89.3195 51.7078 89.5295C51.6916 89.61 51.6586 89.6861 51.6112 89.7526C51.5637 89.8192 51.5028 89.8747 51.4325 89.9156C51.3622 89.9565 51.2842 89.9817 51.2035 89.9896C51.1228 89.9976 51.0414 89.988 50.9647 89.9616C50.7809 89.9259 50.5971 89.8744 50.4133 89.8268C50.2383 89.7584 50.0448 89.756 49.8682 89.82C49.6916 89.884 49.5436 90.0102 49.4511 90.1756C49.3423 90.345 49.2221 90.5065 49.0913 90.6592C49.048 90.7254 48.9917 90.7819 48.9259 90.8252C48.8602 90.8685 48.7864 90.8978 48.7091 90.9111C48.6318 90.9245 48.5527 90.9217 48.4765 90.9029C48.4003 90.8841 48.3287 90.8497 48.2661 90.8019C48.0998 90.7087 47.9392 90.6054 47.785 90.4927C47.6404 90.3568 47.4504 90.2812 47.2531 90.2812C47.0559 90.2812 46.8659 90.3568 46.7212 90.4927C46.5773 90.6028 46.4257 90.7021 46.2676 90.79C46.2028 90.8408 46.1282 90.8774 46.0486 90.8972C45.969 90.9171 45.8862 90.9198 45.8055 90.9053C45.7248 90.8907 45.648 90.8592 45.58 90.8127C45.5121 90.7662 45.4545 90.7058 45.411 90.6354C45.2585 90.4491 45.1099 90.239 44.9691 90.0607C44.8984 89.9553 44.7975 89.8745 44.6799 89.8291C44.5624 89.7837 44.434 89.776 44.312 89.807C44.0774 89.8506 43.8427 89.9101 43.6081 89.9576C43.529 89.9881 43.4443 90.0008 43.3598 89.995C43.2754 89.9892 43.1932 89.9649 43.1189 89.9239C43.0446 89.8829 42.9799 89.826 42.9294 89.7573C42.8788 89.6885 42.8435 89.6095 42.8259 89.5256C42.7398 89.2917 42.6733 89.046 42.5951 88.8082C42.5631 88.6848 42.4946 88.5742 42.3988 88.4913C42.303 88.4085 42.1846 88.3572 42.0593 88.3444C41.8129 88.3088 41.5626 88.281 41.3201 88.2374C40.8899 88.1621 40.7647 88.0036 40.7686 87.5596C40.7686 87.3258 40.7686 87.0919 40.7686 86.8621C40.7835 86.72 40.7537 86.5768 40.6834 86.453C40.6132 86.3291 40.5061 86.2309 40.3775 86.1724C40.1859 86.0654 39.9864 85.9702 39.7948 85.8632C39.7085 85.8337 39.6299 85.7847 39.565 85.7199C39.5001 85.6551 39.4505 85.5763 39.42 85.4893C39.3895 85.4023 39.3789 85.3094 39.3889 85.2177C39.399 85.1259 39.4294 85.0376 39.478 84.9595C39.5562 84.7534 39.6462 84.5632 39.7283 84.3412C39.7878 84.2172 39.8073 84.0775 39.7841 83.9416C39.761 83.8058 39.6963 83.6807 39.5992 83.5842C39.435 83.4098 39.2668 83.2354 39.1143 83.0491C39.0494 82.9914 38.9975 82.9204 38.9619 82.8408C38.9263 82.7611 38.9079 82.6748 38.9079 82.5873C38.9079 82.4999 38.9263 82.4135 38.9619 82.3339C38.9975 82.2542 39.0494 82.1832 39.1143 82.1256C39.2668 81.9512 39.4311 81.7887 39.5875 81.6182C39.6884 81.5165 39.7549 81.385 39.7774 81.2425C39.7999 81.1001 39.7772 80.9541 39.7127 80.8255C39.611 80.5837 39.5015 80.3419 39.4232 80.0922C39.3935 80.0246 39.3778 79.9515 39.3769 79.8775C39.3761 79.8034 39.3902 79.73 39.4184 79.6617C39.4466 79.5934 39.4883 79.5317 39.5409 79.4803C39.5936 79.4289 39.656 79.389 39.7244 79.3629C39.916 79.2559 40.1155 79.1568 40.3111 79.0578C40.4561 79.0005 40.5786 78.8966 40.6599 78.762C40.7411 78.6274 40.7766 78.4696 40.7608 78.3126C40.7608 78.051 40.7608 77.7854 40.7608 77.5199C40.7485 77.3916 40.7856 77.2635 40.8643 77.1623C40.943 77.0611 41.0573 76.9947 41.1832 76.9769C41.4257 76.9293 41.676 76.9016 41.9224 76.8698C42.0834 76.8664 42.2388 76.8088 42.364 76.7062C42.4893 76.6037 42.5775 76.4619 42.6147 76.3031C42.6733 76.089 42.7359 75.875 42.8102 75.6649C42.9549 75.2686 43.0996 75.1734 43.5142 75.221C43.7404 75.251 43.964 75.2987 44.183 75.3637C44.341 75.4176 44.5125 75.4152 44.669 75.3568C44.8255 75.2984 44.9576 75.1875 45.0434 75.0426C45.1857 74.8227 45.3466 74.6158 45.5245 74.4243C45.601 74.3366 45.7051 74.2784 45.8192 74.2596C45.9333 74.2408 46.0502 74.2626 46.1502 74.3213C46.3452 74.4229 46.5321 74.5395 46.7095 74.6701C46.8638 74.8102 47.0636 74.8876 47.2707 74.8876C47.4779 74.8876 47.6777 74.8102 47.832 74.6701C47.9992 74.5421 48.1772 74.4294 48.3639 74.3332C48.4677 74.2699 48.5902 74.2459 48.7098 74.2655C48.8294 74.2851 48.9382 74.347 49.017 74.4402C49.1784 74.6062 49.3213 74.7896 49.4433 74.9871C49.533 75.1597 49.6823 75.2928 49.8627 75.3608C50.0431 75.4288 50.2419 75.427 50.4211 75.3558C50.6289 75.2797 50.846 75.233 51.0664 75.217C51.4575 75.217 51.567 75.2765 51.7 75.6134C51.7743 75.8195 51.8447 76.0335 51.8995 76.2476C51.934 76.4173 52.0244 76.5702 52.1558 76.6811C52.2873 76.792 52.452 76.8543 52.623 76.858L53.1001 76.9095C53.6242 76.965 53.7807 77.1394 53.7846 77.6665V77.94L53.765 77.9836ZM53.6242 82.6091C53.6211 81.3337 53.2452 80.0879 52.5438 79.0289C51.8425 77.97 50.8472 77.1454 49.6837 76.6593C48.5203 76.1732 47.2407 76.0474 46.0068 76.2979C44.7728 76.5483 43.6397 77.1637 42.7507 78.0664C41.8616 78.9691 41.2564 80.1185 41.0116 81.3695C40.7667 82.6205 40.8932 83.917 41.375 85.0952C41.8567 86.2735 42.6722 87.2806 43.7184 87.9894C44.7646 88.6982 45.9947 89.0769 47.2531 89.0777C48.0915 89.0803 48.9221 88.9147 49.697 88.5904C50.4719 88.2661 51.1758 87.7896 51.7681 87.1882C52.3604 86.5869 52.8293 85.8727 53.1479 85.0867C53.4665 84.3008 53.6284 83.4588 53.6242 82.6091Z" fill="#F6CA6A"/>
<path d="M43.3343 82.1256C43.3258 81.9813 43.3651 81.8382 43.4458 81.7191C43.5266 81.5999 43.6442 81.5114 43.7801 81.4676C43.9029 81.418 44.0387 81.4121 44.1652 81.451C44.2917 81.4899 44.4014 81.5712 44.4763 81.6816C44.7696 82.078 45.0395 82.514 45.3211 82.9341C45.6027 83.3543 45.9077 83.8022 46.1854 84.2461C46.3145 84.4522 46.381 84.4165 46.5061 84.2461C47.6364 82.625 48.7745 81.0158 49.9087 79.4026C49.9693 79.2865 50.0591 79.1887 50.169 79.1191C50.2789 79.0495 50.405 79.0105 50.5345 79.0062C50.6499 79.0016 50.7643 79.0304 50.864 79.0894C50.9638 79.1484 51.0449 79.2351 51.0977 79.3392C51.1609 79.4549 51.188 79.5872 51.1754 79.7189C51.1628 79.8505 51.1112 79.9751 51.0273 80.0764C50.5501 80.7502 50.0743 81.4253 49.5998 82.1018C48.7159 83.349 47.8333 84.5988 46.952 85.8513C46.5609 86.4261 46.0642 86.4102 45.677 85.8196C44.9574 84.7257 44.2299 83.6397 43.5064 82.5497C43.4048 82.4312 43.3443 82.2822 43.3343 82.1256Z" fill="#F6CA6A"/>
</g>
</svg>
