<svg width="74" height="52" viewBox="0 0 74 52" fill="none" xmlns="http://www.w3.org/2000/svg">
<g id="Vector">
<path d="M4.71246 15.8377C7.0952 15.8377 8.18188 17.24 8.18188 18.9593C8.18188 20.6785 7.03159 22.0043 4.50308 22.0043H2.87307V26.7051H1.30666V15.8377H4.71246ZM2.87307 20.6019H4.64885C5.81504 20.6019 6.56776 19.9813 6.56776 18.8959C6.56776 18.0983 6.13574 17.24 4.71246 17.24H2.87307V20.6019Z" fill="white"/>
<path d="M12.3245 15.8377C14.5323 15.8377 15.9079 17.0023 15.9079 18.88C15.9079 20.1398 15.2506 21.0799 14.0844 21.5421C15.0756 22.1944 15.6852 23.198 16.5148 24.5528C16.9787 25.3028 17.2516 25.6699 18.0017 26.7051H16.1305L14.6913 24.4735C13.2521 22.2446 12.5975 21.9884 11.7971 21.9884H11.1424V26.7051H9.57335V15.8377H12.3245ZM11.1424 20.5861H12.1496C13.8299 20.5861 14.307 19.7251 14.2938 18.8167C14.2779 17.7973 13.6683 17.1766 12.1496 17.1766H11.1424V20.5861Z" fill="white"/>
<path d="M23.618 15.6951C27.2173 15.6951 29.486 18.2462 29.486 21.2727C29.486 24.2992 27.2782 26.8477 23.5835 26.8477C19.8888 26.8477 17.7632 24.22 17.7632 21.2727C17.7632 18.3254 20.0823 15.6951 23.618 15.6951ZM23.618 25.4164C26.0643 25.4164 27.8719 23.6469 27.8719 21.2727C27.8719 18.8985 26.0643 17.1291 23.618 17.1291C21.1716 17.1291 19.3799 18.8827 19.3799 21.2727C19.3799 23.6628 21.1875 25.4164 23.618 25.4164Z" fill="white"/>
<path d="M34.7339 15.8377C37.1166 15.8377 38.2059 17.24 38.2059 18.9593C38.2059 20.6785 37.053 22.0043 34.5271 22.0043H32.8945V26.7051H31.3281V15.8377H34.7339ZM32.8945 20.6019H34.6703C35.8365 20.6019 36.5892 19.9813 36.5892 18.8959C36.5892 18.0983 36.1572 17.24 34.7339 17.24H32.8945V20.6019Z" fill="white"/>
<path d="M45.7517 17.24H41.132V20.5227H45.5927V21.925H41.132V25.3054H45.8975V26.7051H39.563V15.8377H45.7517V17.24Z" fill="white"/>
<path d="M50.3423 15.8377C52.5501 15.8377 53.9256 17.0023 53.9256 18.88C53.9256 20.1398 53.271 21.0799 52.1021 21.5421C53.0934 22.1944 53.703 23.198 54.5326 24.5528C54.9964 25.3028 55.2668 25.6699 56.0195 26.7051H54.1509L52.7118 24.4735C51.2726 22.2446 50.6179 21.9884 49.8175 21.9884H49.1628V26.7051H47.5938V15.8377H50.3449H50.3423ZM49.1602 20.5861H50.1673C51.8477 20.5861 52.3248 19.7251 52.3089 18.8167C52.293 17.7973 51.686 17.1766 50.1673 17.1766H49.1602V20.5861Z" fill="white"/>
<path d="M63.9708 17.24H60.1966V26.7051H58.6302V17.24H54.8559V15.8377H63.9708V17.24Z" fill="white"/>
<path d="M72.0148 15.8377H73.9019L69.8574 20.969V26.7078H68.291V20.9532L64.2438 15.8377H66.1309L69.0569 19.5825L72.0148 15.8377Z" fill="white"/>
<path d="M12.2662 42.5032H10.4268L8.75437 38.8191H3.42171L1.8394 42.5032H0L5.38832 29.9324H6.65788L12.2662 42.5032ZM8.01755 37.2055L5.99262 32.6789L4.11612 37.2055H8.01755Z" fill="white"/>
<path d="M24.8504 42.6115H24.5006L20.3792 32.3858L16.2259 42.6115H15.8761L10.7979 30.0037H12.6001L16.059 38.6157L19.5337 30.0037H21.2458L24.7391 38.6157L28.1608 30.0037H29.9446L24.8504 42.6115Z" fill="white"/>
<path d="M38.9242 42.5032L37.2518 38.8191H31.9191L30.3368 42.5032H28.4974L33.8857 29.9324H35.1553L40.7663 42.5032H38.9242ZM36.5123 37.2055L34.4874 32.6789L32.6109 37.2055H36.5123Z" fill="white"/>
<path d="M45.3436 30.0037C47.88 30.0037 49.4623 31.34 49.4623 33.5029C49.4623 34.9501 48.7096 36.0303 47.3658 36.5637C48.5082 37.3138 49.2052 38.4679 50.1594 40.026C50.6948 40.8869 51.0049 41.3095 51.8716 42.5006H49.7194L48.0655 39.9336C46.409 37.3666 45.6563 37.0761 44.7366 37.0761H43.9839V42.5006H42.1816V30.001H45.3462L45.3436 30.0037ZM43.9812 35.4625H45.1395C47.0716 35.4625 47.6229 34.4748 47.6044 33.429C47.5858 32.2564 46.8861 31.5407 45.1395 31.5407H43.9812V35.4625Z" fill="white"/>
<path d="M53.2683 30.0037H58.1425C62.7781 30.0037 64.8189 33.3022 64.8189 36.2521C64.8189 39.4608 62.2984 42.5032 58.161 42.5032H53.2683V30.0037ZM55.0706 40.887H57.9384C62.0227 40.887 62.961 37.7891 62.961 36.2495C62.961 33.7406 61.3601 31.6146 57.8483 31.6146H55.0706V40.887Z" fill="white"/>
<path d="M73.0034 32.7529C71.938 31.744 70.9069 31.4509 70.0615 31.4509C68.9006 31.4509 68.0763 32.0557 68.0763 32.9351C68.0763 35.3357 73.5017 35.2987 73.5017 39.276C73.5017 41.2355 72.0122 42.6669 69.9872 42.6669C68.6276 42.6669 67.525 42.2999 66.4754 41.5129V39.239C67.3951 40.4116 68.5534 41.0533 69.7858 41.0533C71.1852 41.0533 71.8293 40.1739 71.8293 39.4767C71.8293 36.8912 66.4039 36.5981 66.4039 33.1728C66.4039 31.1393 67.912 29.8373 70.2099 29.8373C71.1667 29.8373 72.1235 30.1304 73.0061 30.7167V32.7529H73.0034Z" fill="white"/>
<path d="M13.117 12.0321H11.3571L9.75623 8.50645H4.64885L3.13546 12.0321H1.37557L6.53066 0H7.74721L13.117 12.0321ZM9.04857 6.96414L7.1111 2.63037L5.31411 6.96414H9.04857Z" fill="white"/>
<path d="M17.5034 0.0686643C19.9339 0.0686643 21.4473 1.34952 21.4473 3.42001C21.4473 4.8065 20.7237 5.83911 19.4409 6.34881C20.5302 7.06714 21.2008 8.17369 22.1178 9.66318C22.6267 10.4872 22.9262 10.8912 23.7532 12.0321H21.6938L20.1088 9.57603C18.5239 7.11996 17.8029 6.84002 16.923 6.84002H16.1994V12.0321H14.474V0.0686643H17.5034ZM16.2021 5.29771H17.3126C19.16 5.29771 19.69 4.34962 19.6715 3.35135C19.6529 2.22895 18.985 1.54495 17.3126 1.54495H16.2021V5.29771Z" fill="white"/>
<path d="M33.74 12.0321L32.1391 8.50645H27.0344L25.5183 12.0321H23.7585L28.9162 0H30.1327L35.5025 12.0321H33.74ZM27.7023 6.96414H31.4341L29.4993 2.63037L27.7023 6.96414Z" fill="white"/>
<path d="M36.8277 0.0686643H40.3157C42.9025 0.0686643 44.013 1.61361 44.013 3.12158C44.013 4.36546 43.4326 5.17359 42.1816 5.68065V5.71762C43.9759 6.05038 45.0679 7.2256 45.0679 8.83921C45.0679 10.3128 43.9574 12.0321 40.9491 12.0321H36.8304V0.0686643H36.8277ZM38.5532 5.19208H39.6981C41.405 5.19208 42.2319 4.56089 42.2319 3.28004C42.2319 2.38476 41.7204 1.61361 40.1381 1.61361H38.5532V5.19208ZM38.5532 10.4872H40.7186C42.7435 10.4872 43.2868 9.48888 43.2868 8.5936C43.2868 7.50554 42.444 6.73438 40.6284 6.73438H38.5532V10.4872Z" fill="white"/>
<path d="M48.487 0.0686643H46.7589V12.0295H48.487V0.0686643Z" fill="white"/>
<path d="M61.5668 12.0321H59.8043L58.2034 8.50645H53.0987L51.5853 12.0321H49.8254L54.9832 0H56.1971L61.5668 12.0321ZM53.7693 6.96414H57.5011L55.5663 2.63037L53.7693 6.96414Z" fill="white"/>
<path d="M74 12.0321H72.5211L64.4956 2.82316V12.0321H62.8735V0.0686643H64.2464L72.3779 9.33042V0.0686643H74V12.0321Z" fill="white"/>
<path d="M2.12034 46.1134C3.29978 46.1134 4.0366 46.7366 4.0366 47.7402C4.0366 48.4136 3.68675 48.9154 3.06125 49.161C3.59133 49.5096 3.91468 50.0457 4.35996 50.7693C4.6091 51.1707 4.75222 51.3662 5.15509 51.9208H4.15587L3.38725 50.7271C2.61862 49.536 2.26877 49.3987 1.8394 49.3987H1.48954V51.9208H0.652006V46.1134H2.12299H2.12034ZM1.48689 48.6513H2.02493C2.92342 48.6513 3.17787 48.1918 3.16991 47.7058C3.16196 47.1592 2.83596 46.8291 2.02493 46.8291H1.48689V48.6513Z" fill="white"/>
<path d="M11.6301 46.8634H9.15989V48.6196H11.5453V49.367H9.15989V51.1734H11.7069V51.9234H8.32235V46.1134H11.6301V46.8634Z" fill="white"/>
<path d="M19.5125 51.9234L18.7359 50.2121H16.2577L15.5236 51.9234H14.6675L17.1721 46.079H17.7632L20.3712 51.9234H19.5125ZM16.5811 49.4594H18.394L17.4557 47.3572L16.5837 49.4594H16.5811Z" fill="white"/>
<path d="M24.368 51.1734H26.9999V51.9234H23.5305V46.1134H24.368V51.1734Z" fill="white"/>
<path d="M38.2033 46.8634H35.7331V48.6196H38.1185V49.367H35.7331V51.1734H38.2802V51.9234H34.8956V46.1134H38.2033V46.8634Z" fill="white"/>
<path d="M44.4848 47.3916C43.9892 46.9215 43.5095 46.7868 43.1172 46.7868C42.5792 46.7868 42.1948 47.0667 42.1948 47.4787C42.1948 48.5932 44.7181 48.5774 44.7181 50.426C44.7181 51.3371 44.0236 52 43.0854 52C42.4519 52 41.9404 51.831 41.4527 51.4639V50.4075C41.8794 50.9542 42.4175 51.2526 42.99 51.2526C43.6393 51.2526 43.9388 50.8433 43.9388 50.5211C43.9388 49.3195 41.4183 49.1821 41.4183 47.5896C41.4183 46.6442 42.118 46.0394 43.1861 46.0394C43.6314 46.0394 44.0766 46.1741 44.4848 46.4488V47.3942V47.3916Z" fill="white"/>
<path d="M52.5183 46.8634H50.5039V51.9234H49.6638V46.8634H47.6494V46.1134H52.5183V46.8634Z" fill="white"/>
<path d="M59.2928 51.9234L58.5135 50.2121H56.0354L55.3012 51.9234H54.4478L56.9524 46.079H57.5435L60.1515 51.9234H59.2928ZM56.3614 49.4594H58.1743L57.2334 47.3572L56.3614 49.4594Z" fill="white"/>
<path d="M66.9472 46.8634H64.9302V51.9234H64.0953V46.8634H62.0757V46.1134H66.9472V46.8634Z" fill="white"/>
<path d="M73.4991 46.8634H71.0289V48.6196H73.4116V49.367H71.0289V51.1734H73.5759V51.9234H70.1913V46.1134H73.4991V46.8634Z" fill="white"/>
</g>
</svg>
