<svg width="23" height="21" viewBox="0 0 23 21" fill="none" xmlns="http://www.w3.org/2000/svg">
<path id="Vector" d="M17.8819 11.6438L1.82883 11.6663C1.46758 11.6663 1.16263 11.542 0.913965 11.2934C0.665906 11.0453 0.541878 10.7406 0.541878 10.3794C0.541878 10.0181 0.666207 9.71319 0.914868 9.46453C1.16293 9.21647 1.46758 9.09244 1.82883 9.09244L17.8819 9.11502L11.0181 2.25126C10.7623 1.99537 10.634 1.69433 10.6334 1.34813C10.634 1.00193 10.7623 0.700888 11.0181 0.445002C11.274 0.189116 11.5751 0.0608728 11.9213 0.0602707C12.2675 0.0608727 12.5685 0.189116 12.8244 0.445002L21.8557 9.47627C22.1115 9.73215 22.2395 10.0329 22.2395 10.3785C22.2395 10.7253 22.1115 11.0266 21.8557 11.2825L12.8244 20.3138C12.5685 20.5697 12.2675 20.6973 11.9213 20.6967C11.5751 20.6973 11.274 20.5697 11.0181 20.3138C10.7623 20.0579 10.6346 19.7569 10.6352 19.4107C10.6346 19.0645 10.7623 18.7634 11.0181 18.5075L17.8819 11.6438Z" fill="white"/>
</svg>
