<svg width="126" height="78" viewBox="0 0 126 78" fill="none" xmlns="http://www.w3.org/2000/svg">
<g id="Vector">
<path fill-rule="evenodd" clip-rule="evenodd" d="M46.156 16.4053V0.213739H49.8082C50.9048 0.217394 51.9554 0.662135 52.731 1.45097C53.5067 2.23981 53.9444 3.30876 53.9487 4.4247V15.0784H49.3118C48.1534 15.1803 47.0541 15.6437 46.1642 16.4053H46.156Z" fill="#272219"/>
<path fill-rule="evenodd" clip-rule="evenodd" d="M71.356 0.116585C74.6677 0.186741 77.8184 1.58426 80.1232 4.0054C82.4281 6.42654 83.7009 9.67563 83.665 13.0465C83.629 16.4174 82.2873 19.6376 79.9313 22.0073C77.5754 24.3769 74.3957 25.7046 71.0832 25.7016C65.3908 25.7016 59.6547 25.5711 53.9459 25.5711V34.7731C53.9395 36.7946 53.1473 38.7314 51.7425 40.1606C50.3376 41.5898 48.4342 42.3952 46.4479 42.4011H36.8059C34.8188 42.396 32.9144 41.5909 31.5086 40.1617C30.1027 38.7326 29.3096 36.7953 29.3024 34.7731V17.177L34.4384 17.2269C36.3341 17.424 37.4387 19.2949 37.5069 20.2526V30.1624C37.512 31.3284 37.9699 32.445 38.7808 33.2688C39.5917 34.0925 40.6898 34.5564 41.8356 34.5593H46.156V21.2824C46.1575 20.1447 46.6016 19.0538 47.3914 18.2485C48.1811 17.4433 49.2522 16.9891 50.3701 16.9854H71.356C73.8272 16.9854 75.8319 15.0423 75.8319 12.6384C75.8319 10.2346 73.8108 8.28591 71.356 8.28591V0.116585Z" fill="#121211"/>
<path fill-rule="evenodd" clip-rule="evenodd" d="M33.4428 0.213739H37.5069V16.3386C35.1121 14.1041 30.8189 14.6204 29.3024 14.8924V4.4247C29.3067 3.30876 29.7444 2.23981 30.52 1.45097C31.2957 0.662135 32.3463 0.217394 33.4428 0.213739Z" fill="#272219"/>
<path fill-rule="evenodd" clip-rule="evenodd" d="M121.153 0.213739H126V38.2429C126 39.3472 125.569 40.4062 124.802 41.1871C124.034 41.968 122.994 42.4066 121.909 42.4066H117.817V3.6086C117.819 2.71038 118.171 1.84957 118.795 1.21443C119.419 0.579284 120.265 0.221491 121.148 0.219292L121.153 0.213739Z" fill="#272219"/>
<path fill-rule="evenodd" clip-rule="evenodd" d="M7.61555 8.16377H12.2088C13.4266 8.16743 14.5935 8.6614 15.4546 9.53777C16.3157 10.4141 16.8011 11.6017 16.8047 12.8411V29.8792C16.8018 31.1191 16.3168 32.3074 15.4556 33.1843C14.5944 34.0613 13.4271 34.5557 12.2088 34.5593H7.61555V8.16377ZM0.00837589 0.213739H17.1429C19.13 0.218859 21.0344 1.02391 22.4403 2.45309C23.8461 3.88228 24.6393 5.81951 24.6465 7.84177V34.7675C24.6393 36.7898 23.8461 38.727 22.4403 40.1562C21.0344 41.5854 19.13 42.3904 17.1429 42.3955H0.00837589V0.213739Z" fill="#272219"/>
<path fill-rule="evenodd" clip-rule="evenodd" d="M81.9389 22.8203C82.8418 24.5895 83.3488 26.54 83.4238 28.5322C83.4988 30.5243 83.1398 32.5086 82.3726 34.3429C81.6054 36.1772 80.449 37.8161 78.9862 39.1421C77.5234 40.468 75.7905 41.4483 73.9117 42.0125C70.2922 43.0951 66.3918 42.4011 62.6632 42.4011C61.608 42.3982 60.5967 41.9702 59.8505 41.2108C59.1044 40.4514 58.6839 39.4223 58.681 38.3484L58.7737 27.5475L66.9564 27.4587V30.0819C66.9558 30.8252 67.1354 31.5573 67.4793 32.2131C67.8231 32.8689 68.3207 33.4283 68.9278 33.8416C69.5348 34.255 70.2327 34.5095 70.9596 34.5827C71.6865 34.6559 72.4199 34.5455 73.0948 34.2613C73.7697 33.977 74.3653 33.5277 74.8288 32.9532C75.2923 32.3787 75.6094 31.6967 75.752 30.9676C75.8945 30.2386 75.8582 29.485 75.6461 28.7737C75.4341 28.0623 75.0529 27.4152 74.5363 26.8896C78.3822 26.8896 80.9215 24.1527 81.928 22.8147L81.9389 22.8203Z" fill="#272219"/>
<path fill-rule="evenodd" clip-rule="evenodd" d="M69.1739 27.4531H71.356C71.9347 27.4531 72.4897 27.6871 72.8989 28.1036C73.3081 28.52 73.538 29.0849 73.538 29.6738C73.538 30.2628 73.3081 30.8276 72.8989 31.2441C72.4897 31.6605 71.9347 31.8945 71.356 31.8945C70.7773 31.8945 70.2222 31.6605 69.813 31.2441C69.4038 30.8276 69.1739 30.2628 69.1739 29.6738V27.4531Z" fill="#121211"/>
<path fill-rule="evenodd" clip-rule="evenodd" d="M88.4714 27.6669H96.3623V38.3872C96.3587 39.4506 95.942 40.4695 95.2031 41.2214C94.4642 41.9734 93.4632 42.3974 92.4182 42.4011H88.4714V27.6669Z" fill="#272219"/>
<path fill-rule="evenodd" clip-rule="evenodd" d="M113.063 23.6919C111.244 26.3595 108.527 27.542 105.175 27.6669V38.3872C105.179 39.4506 105.595 40.4695 106.334 41.2214C107.073 41.9734 108.074 42.3974 109.119 42.4011H113.063V23.6919Z" fill="#272219"/>
<path fill-rule="evenodd" clip-rule="evenodd" d="M96.3623 15.0951C91.6545 15.0312 90.929 14.4067 88.4714 16.5746V7.77238C88.4714 3.96391 92.3337 0.366412 95.5931 0.366412H98.1052C97.0142 0.974323 96.4059 2.00694 96.3623 3.53088V15.0951Z" fill="#272219"/>
<path fill-rule="evenodd" clip-rule="evenodd" d="M88.4442 25.3851H105.02C107.229 25.3815 109.347 24.4875 110.91 22.8988C112.473 21.3101 113.354 19.1559 113.36 16.9077V8.53574C113.355 6.4144 112.57 4.37178 111.162 2.80821C109.753 1.24464 107.821 0.272847 105.745 0.0832763L102.387 0C101.356 0.00439682 100.368 0.42399 99.6391 1.16718C98.9103 1.91036 98.5001 2.91677 98.498 3.96669V7.87786L98.4598 7.9306H100.748C101.963 7.93427 103.127 8.42715 103.985 9.30152C104.844 10.1759 105.328 11.3606 105.331 12.5968C105.327 13.8322 104.843 15.016 103.984 15.8893C103.126 16.7626 101.962 17.2545 100.748 17.2575C97.9497 17.2575 95.1894 17.3102 92.4182 17.3102C91.3654 17.3124 90.3562 17.7388 89.6115 18.4962C88.8668 19.2536 88.447 20.2803 88.4442 21.3518V25.3851Z" fill="#121211"/>
<path fill-rule="evenodd" clip-rule="evenodd" d="M36.2413 44.3553H38.4234C39.0021 44.3553 39.5571 44.5893 39.9663 45.0057C40.3755 45.4222 40.6054 45.987 40.6054 46.576C40.6054 47.1649 40.3755 47.7298 39.9663 48.1462C39.5571 48.5627 39.0021 48.7966 38.4234 48.7966C37.8458 48.793 37.2928 48.5579 36.8844 48.1422C36.4759 47.7265 36.2449 47.1638 36.2413 46.576V44.3553Z" fill="#121211"/>
<path fill-rule="evenodd" clip-rule="evenodd" d="M42.7684 44.3553H44.9504C45.5292 44.3553 46.0842 44.5893 46.4934 45.0057C46.9026 45.4222 47.1325 45.987 47.1325 46.576C47.1325 47.1649 46.9026 47.7298 46.4934 48.1462C46.0842 48.5627 45.5292 48.7966 44.9504 48.7966C44.3717 48.7966 43.8167 48.5627 43.4075 48.1462C42.9983 47.7298 42.7684 47.1649 42.7684 46.576V44.3553Z" fill="#121211"/>
<path fill-rule="evenodd" clip-rule="evenodd" d="M58.8637 0.133242H69.1739V9.0798C68.4809 9.29723 67.8742 9.73403 67.442 10.3266C67.0099 10.9192 66.7748 11.6367 66.7709 12.3747V14.873H58.861L58.8637 0.133242Z" fill="#272219"/>
<path d="M124.085 55.4393C124.085 56.8272 124.085 58.2151 124.085 59.603C124.085 60.916 123.523 61.4851 122.236 61.51C121.197 61.5295 120.106 61.7071 119.137 61.4406C118.169 61.1742 117.446 61.2547 116.514 61.4406C115.085 61.6919 113.624 61.6919 112.196 61.4406C111.249 61.2796 110.45 61.0964 109.468 61.4406C109.083 61.5996 108.661 61.6434 108.252 61.5666C107.844 61.4899 107.465 61.296 107.161 61.0076C106.975 60.8161 106.852 60.9243 106.675 61.0326C105.554 61.7266 104.409 61.771 103.304 61.0326C103.048 60.8577 102.971 60.9743 102.758 61.0659C101.226 61.7599 99.6708 61.8126 98.1461 61.052C97.9115 60.9382 97.7943 60.8855 97.6006 61.052C97.1369 61.4629 96.5723 61.5156 95.9886 61.5156C93.392 61.5156 90.8062 61.5156 88.2041 61.5156C86.5676 61.5156 86.063 61.0104 86.0575 59.3171C86.0575 56.6495 86.0575 53.9792 86.0575 51.3116C86.0575 50.7925 86.1012 50.4927 86.7449 50.4927C87.3886 50.4927 87.4377 50.7703 87.435 51.2949C87.4104 53.8237 87.4159 56.3525 87.435 58.8813C87.435 60.1166 87.525 60.2026 88.7387 60.2054C91.0317 60.2054 93.3256 60.2054 95.6204 60.2054C96.6405 60.2054 96.7114 60.1082 96.7278 59.0423C96.7278 57.8765 96.7414 56.7078 96.7278 55.542C96.7278 55.0534 96.856 54.8397 97.3797 54.8536C97.8543 54.8536 98.1625 54.9118 98.1488 55.5142C98.1216 56.6245 98.1352 57.7349 98.1488 58.8452C98.1488 59.764 98.5307 60.1582 99.4308 60.1915C99.9763 60.2137 100.522 60.1915 101.067 60.1915C101.708 60.2165 101.954 59.8973 101.943 59.281C101.943 58.501 101.967 57.721 101.927 56.9465C101.897 56.3914 102.093 56.2165 102.625 56.2109C103.157 56.2054 103.32 56.4524 103.29 56.9715C103.255 57.635 103.263 58.3067 103.29 58.9729C103.323 59.8445 103.819 60.1776 104.886 60.2026C105.751 60.2221 105.868 59.7002 105.86 59.0173C105.86 58.4066 105.86 57.796 105.86 57.1825C105.86 56.6801 105.753 56.1887 106.558 56.2026C107.363 56.2165 107.199 56.7578 107.202 57.2325C107.202 57.8431 107.202 58.4566 107.202 59.0673C107.226 59.9001 107.69 60.1776 108.762 60.2026C109.58 60.2165 109.706 59.7696 109.692 59.0923C109.667 57.8959 109.706 56.7023 109.678 55.5059C109.678 54.9146 109.951 54.8452 110.442 54.8397C110.933 54.8341 111.102 55.0368 111.091 55.5281C111.069 56.6662 111.107 57.8071 111.091 58.9479C111.075 59.7613 111.511 60.1443 112.229 60.1721C113.483 60.2165 114.741 60.1915 115.995 60.1887C116.664 60.1887 116.699 59.7141 116.699 59.2089C116.699 56.569 116.699 53.9348 116.68 51.2866C116.68 50.7675 116.729 50.4733 117.373 50.4844C117.959 50.4844 118.106 50.6787 118.101 51.2505C118.074 53.7488 118.087 56.247 118.101 58.7453C118.101 59.7973 118.428 60.1471 119.465 60.1804C120.228 60.2026 120.995 60.1527 121.759 60.1943C122.522 60.2359 122.757 59.8751 122.751 59.1478C122.732 56.5357 122.751 53.9236 122.732 51.3088C122.732 50.7175 122.855 50.4538 123.499 50.476C124.02 50.4927 124.137 50.6815 124.129 51.17C124.102 52.5885 124.129 54.0069 124.129 55.4226L124.085 55.4393Z" fill="#272219"/>
<path d="M76.2056 61.5128C74.4327 61.5128 72.6598 61.5128 70.8868 61.5128C70.0986 61.5128 69.3458 61.449 68.9421 60.5996C68.7675 60.2359 68.5302 60.4691 68.3229 60.5524C67.5809 60.8518 66.7586 60.8744 66.0018 60.6162C64.5889 60.1554 64.0025 58.9313 64.2343 57.0326C64.4034 55.6613 65.4753 54.6731 66.9155 54.5815C67.3246 54.5565 67.7338 54.5621 68.1429 54.5815C68.4648 54.5815 68.7566 54.5815 68.7675 54.1485C68.7675 53.8709 68.9175 53.8709 69.1794 53.8404C69.9977 53.7488 70.1749 54.118 70.1559 54.8508C70.1204 56.2942 70.1559 57.7404 70.1395 59.1839C70.1259 59.9084 70.355 60.2331 71.1296 60.2276C74.5118 60.1971 77.894 60.2276 81.2761 60.2137C82.4053 60.2137 82.6754 59.9361 82.7026 58.7897C82.7007 58.4287 82.6632 58.0688 82.5908 57.7155C82.2662 55.9556 80.6297 55.3005 79.1841 56.3497C78.9604 56.508 78.8077 56.8411 78.4176 56.6551C77.7521 56.3359 77.6757 55.9 78.2267 55.4059C80.166 53.6627 83.4091 54.6953 83.9982 57.2408C84.1852 58.0828 84.2121 58.9534 84.0773 59.8057C83.9055 60.9882 83.24 61.5045 81.8544 61.5184C79.9724 61.5295 78.0903 61.5128 76.2056 61.5128ZM68.8221 57.0132C68.7893 55.9028 68.7893 55.9028 67.712 55.8889H67.4665C66.0536 55.8889 65.5135 56.4719 65.5708 57.9347C65.6063 58.8647 66.0754 59.4059 66.9346 59.5114C67.13 59.5486 67.3308 59.5451 67.5248 59.5009C67.7188 59.4567 67.9019 59.3729 68.0631 59.2546C68.2243 59.1362 68.3602 58.9857 68.4625 58.8123C68.5649 58.6389 68.6315 58.4461 68.6584 58.2456C68.743 57.8404 68.7675 57.424 68.8221 57.0132Z" fill="#272219"/>
<path d="M45.7605 57.6877C45.7605 56.6579 45.7605 55.6308 45.7605 54.6037C45.7605 54.3483 45.6323 53.9625 45.9951 53.8987C46.3579 53.8348 46.8297 53.6516 47.0507 54.0458C47.2716 54.44 47.4298 54.2373 47.6616 54.1013C48.8563 53.4046 50.1383 53.4934 51.1229 54.4372C51.5566 54.8535 51.723 54.5121 51.9766 54.3095C53.5014 53.0909 55.768 53.5461 56.4308 55.2061C56.5818 55.5942 56.6613 56.0073 56.6653 56.4247C56.6653 57.9236 56.6517 59.4254 56.6899 60.9243C56.7062 61.5322 56.4171 61.5739 55.9425 61.5878C55.4216 61.6044 55.2879 61.3907 55.2934 60.9077C55.3097 59.5475 55.3234 58.1873 55.2797 56.8272C55.2579 56.1277 55.1161 55.3893 54.3496 55.12C53.6514 54.8758 52.9531 54.9091 52.3749 55.5003C52.2082 55.6867 52.0816 55.9064 52.0031 56.1454C51.9247 56.3843 51.8962 56.6374 51.9194 56.8883C51.9194 58.2207 51.8894 59.5558 51.9194 60.8883C51.933 61.4434 51.7448 61.5961 51.2156 61.5961C50.6865 61.5961 50.471 61.4684 50.4847 60.9021C50.5147 59.5697 50.5119 58.2345 50.4847 56.9021C50.4683 55.6613 49.8464 54.959 48.8236 54.9812C47.8007 55.0035 47.1625 55.7057 47.1379 56.9105C47.1079 58.2151 47.0998 59.5225 47.1379 60.8272C47.1379 61.3824 47.0016 61.5933 46.4124 61.6044C45.7442 61.6044 45.7332 61.2796 45.7442 60.7717C45.7687 59.7446 45.7442 58.7175 45.7442 57.6905L45.7605 57.6877Z" fill="#272219"/>
<path d="M15.7382 57.7377C15.7587 58.1251 15.7587 58.5133 15.7382 58.9007C15.6816 59.6716 15.3475 60.3942 14.7999 60.9299C14.2523 61.4657 13.5298 61.777 12.7706 61.8043C11.0577 61.8903 9.77033 60.9465 9.42392 59.2699C9.20297 58.2652 9.19646 57.224 9.40483 56.2165C9.7976 54.3733 11.0414 53.5322 13.0489 53.6932C14.5054 53.8098 15.6264 55.0312 15.7573 56.6579C15.7846 57.0187 15.7573 57.3796 15.7573 57.7432L15.7382 57.7377ZM14.4045 57.7377C14.4197 57.3224 14.3858 56.9067 14.3035 56.4996C14.0308 55.542 13.3789 54.9396 12.5361 54.9479C11.6933 54.9563 11.0086 55.5198 10.7768 56.5135C10.593 57.3845 10.6089 58.2868 10.8232 59.1506C10.9165 59.5448 11.1371 59.8958 11.4496 60.1474C11.7621 60.399 12.1485 60.5367 12.547 60.5385C12.9299 60.531 13.3007 60.4005 13.6063 60.1657C13.912 59.9309 14.1369 59.6038 14.249 59.2311C14.3846 58.746 14.4372 58.2409 14.4045 57.7377Z" fill="#272219"/>
<path d="M3.25691 56.78C3.25691 55.4753 3.23508 54.1679 3.25691 52.8633C3.27327 52.2581 3.16962 51.925 2.46318 52.0083C1.89858 52.0777 1.31761 52.0083 0.74482 52.0222C0.242948 52.0222 -0.00798886 51.8667 0.000193832 51.3032C0.00837652 50.7397 0.177486 50.5538 0.714816 50.5565C2.89687 50.5732 5.07892 50.5732 7.26097 50.5565C7.80648 50.5565 7.89103 50.8091 7.88831 51.2783C7.88558 51.7474 7.83921 52.0416 7.28552 52.0139C6.68545 51.9861 6.07993 52.0444 5.4826 52C4.88526 51.9556 4.68615 52.1776 4.6916 52.8022C4.72161 55.4393 4.67797 58.0763 4.71888 60.7189C4.71888 61.4379 4.49522 61.6211 3.83515 61.5878C3.36601 61.5628 3.22417 61.4073 3.23236 60.9493C3.26781 59.5586 3.25691 58.1707 3.25691 56.78Z" fill="#272219"/>
<path d="M40.4745 53.6849C41.1879 53.648 41.898 53.8062 42.5311 54.1429C42.8284 54.2928 43.2757 54.4205 43.0439 54.9118C42.842 55.3449 42.5502 55.6308 42.0074 55.3227C41.4621 54.9944 40.8307 54.8452 40.199 54.8952C39.6044 54.9563 39.0153 55.0895 38.9689 55.8501C38.9225 56.6107 39.4599 56.8161 40.0845 56.8827C40.4909 56.9271 40.9027 56.9882 41.301 57.0326C42.6511 57.1797 43.4148 57.8876 43.483 59.0673C43.5468 59.6553 43.3917 60.2463 43.0484 60.7237C42.705 61.2011 42.1983 61.5302 41.6283 61.6461C40.9785 61.818 40.3011 61.8526 39.6377 61.7475C38.9743 61.6425 38.3392 61.4001 37.7715 61.0354C37.5178 60.8744 37.0023 60.7328 37.3487 60.2387C37.6215 59.8612 37.8942 59.4642 38.4779 59.8806C39.1484 60.3825 39.9802 60.6085 40.8073 60.5135C41.0141 60.5105 41.2179 60.4634 41.4058 60.3755C41.5937 60.2875 41.7615 60.1606 41.8983 60.0028C42.0015 59.8818 42.0724 59.7359 42.1041 59.579C42.1358 59.4221 42.1272 59.2595 42.0793 59.1069C42.0313 58.9544 41.9456 58.8169 41.8302 58.7079C41.7149 58.5988 41.574 58.5219 41.421 58.4844C40.9458 58.3598 40.4614 58.2753 39.9726 58.2318C38.3361 58.0513 37.5178 57.3046 37.5751 55.9667C37.6269 54.5565 38.5843 53.7071 40.1581 53.6738L40.4745 53.6849Z" fill="#272219"/>
<path d="M24.12 57.7543C24.12 58.8091 24.12 59.864 24.12 60.916C24.12 61.1742 24.2128 61.5545 23.8009 61.5461C23.4572 61.5461 22.9445 61.8237 22.7944 61.3268C22.6444 60.83 22.5217 61.1103 22.3362 61.238C21.9074 61.5655 21.3953 61.761 20.8606 61.8013C20.3259 61.8417 19.7911 61.7252 19.3195 61.4656C18.3131 60.9493 18.0267 59.9528 18.0239 58.8647C18.0239 57.424 18.0485 55.9778 18.0103 54.5371C18.0103 53.9653 18.2094 53.8376 18.7222 53.8376C19.235 53.8376 19.3823 54.0097 19.3741 54.5149C19.3468 55.8723 19.3277 57.2352 19.3741 58.5926C19.4286 60.1221 20.5742 60.9354 21.7771 60.3359C22.4971 59.9778 22.7426 59.3144 22.7508 58.5482C22.7508 57.3546 22.7508 56.161 22.7508 54.9674C22.7508 54.4788 22.478 53.8209 23.4463 53.832C24.4146 53.8431 24.0655 54.551 24.09 55.0062C24.1528 55.9195 24.1173 56.8383 24.12 57.7543Z" fill="#272219"/>
<path d="M28.2905 54.5704C29.3815 53.6488 30.4944 53.424 31.3426 53.8987C31.6154 54.0569 31.9891 54.2207 31.7545 54.6509C31.5581 55.0062 31.3481 55.4004 30.8053 55.2061C30.4753 55.0923 30.1152 54.9091 29.7906 54.9479C29.4468 54.9622 29.1182 55.0962 28.86 55.3277C28.6018 55.5592 28.4296 55.874 28.3723 56.2193C28.0996 57.4601 28.2932 58.7175 28.2332 59.9528C28.21 60.2577 28.21 60.5639 28.2332 60.8688C28.2878 61.4073 28.0832 61.5794 27.5459 61.585C27.0085 61.5905 26.8476 61.3907 26.8558 60.8605C26.8803 58.8064 26.8558 56.7522 26.8831 54.6981C26.8831 54.3872 26.6785 53.907 27.2595 53.8653C27.7341 53.8265 28.2823 53.7016 28.2905 54.5704Z" fill="#272219"/>
<path d="M33.7402 53.9792C34.8666 53.6794 34.9566 53.7404 34.9566 54.8119C34.9566 56.8105 34.9376 58.8064 34.9566 60.805C34.9566 61.3601 34.8639 61.585 34.2557 61.5878C33.6474 61.5905 33.5329 61.2908 33.5683 60.7772C33.5983 60.3636 33.5983 59.9445 33.6092 59.5336C33.9174 58.4788 33.7129 57.4018 33.7347 56.3359C33.7483 55.6891 33.912 55.0173 33.6092 54.3928V54.2123L33.7402 53.9792Z" fill="#272219"/>
<path d="M97.4915 63.7224C97.3633 63.1339 97.6388 62.9896 98.1898 62.9562C98.8744 62.9118 98.9016 63.2616 98.9262 63.789C98.9507 64.3997 98.6971 64.5191 98.1652 64.5302C97.5406 64.5496 97.4042 64.2637 97.4915 63.7224Z" fill="#272219"/>
<path d="M66.9919 51.9556C67.1119 52.6662 66.6673 52.6717 66.1545 52.6884C65.4508 52.7161 65.5763 52.2415 65.5354 51.8057C65.4726 51.1311 65.8763 51.1422 66.3536 51.1173C66.9919 51.0756 67.0655 51.4393 66.9919 51.9556Z" fill="#272219"/>
<path d="M96.9733 63.7418C97.0605 64.2831 96.8887 64.5468 96.2832 64.544C95.6777 64.5413 95.5222 64.2942 95.5058 63.7113C95.484 62.9979 95.8495 62.9951 96.365 62.9729C96.9705 62.9368 97.0551 63.2477 96.9733 63.7418Z" fill="#272219"/>
<path d="M67.5374 51.9084C67.4119 51.3227 67.641 51.1006 68.2166 51.1062C68.7621 51.1062 69.0075 51.2616 68.983 51.8612C68.9612 52.3636 68.9284 52.6939 68.2929 52.6939C67.7065 52.6773 67.371 52.5663 67.5374 51.9084Z" fill="#272219"/>
<path d="M35.0303 51.4282C35.1558 52.0388 34.8257 52.1582 34.2993 52.1638C33.6965 52.1638 33.5683 51.8501 33.5792 51.331C33.5901 50.8119 33.7129 50.5343 34.3157 50.5454C34.9594 50.5565 35.1312 50.8397 35.0303 51.4282Z" fill="#272219"/>
<path d="M33.6174 54.3844C33.9202 55.0173 33.7565 55.6891 33.7429 56.3275C33.7211 57.3935 33.9256 58.4705 33.6174 59.5253V54.3844Z" fill="#272219"/>
<path d="M22.0088 77.8764V69.9688H22.9497V77.027H26.5616V77.8764H22.0088Z" fill="#272219"/>
<path d="M27.8971 77.8764V71.9457H28.7924V77.8764H27.8971ZM28.3523 70.9573C28.1778 70.9573 28.0273 70.8968 27.9009 70.7758C27.7769 70.6548 27.715 70.5094 27.715 70.3395C27.715 70.1696 27.7769 70.0241 27.9009 69.9032C28.0273 69.7822 28.1778 69.7217 28.3523 69.7217C28.5269 69.7217 28.6761 69.7822 28.8 69.9032C28.9265 70.0241 28.9897 70.1696 28.9897 70.3395C28.9897 70.5094 28.9265 70.6548 28.8 70.7758C28.6761 70.8968 28.5269 70.9573 28.3523 70.9573Z" fill="#272219"/>
<path d="M32.7999 78C32.2535 78 31.7831 77.8687 31.3885 77.6062C30.9939 77.3436 30.6904 76.9819 30.4779 76.5212C30.2655 76.0604 30.1592 75.534 30.1592 74.942C30.1592 74.3396 30.268 73.8081 30.4855 73.3473C30.7056 72.884 31.0116 72.5223 31.4037 72.2623C31.7982 71.9998 32.2586 71.8685 32.7847 71.8685C33.1944 71.8685 33.5637 71.9457 33.8925 72.1002C34.2213 72.2546 34.4907 72.4708 34.7006 72.7488C34.9106 73.0268 35.0408 73.3512 35.0914 73.7218H34.196C34.1277 73.4516 33.976 73.2122 33.7408 73.0037C33.5081 72.7926 33.1944 72.6871 32.7999 72.6871C32.4508 72.6871 32.1448 72.7797 31.8817 72.9651C31.6212 73.1478 31.4176 73.4065 31.2709 73.7411C31.1267 74.0732 31.0546 74.4632 31.0546 74.9111C31.0546 75.3693 31.1254 75.7682 31.2671 76.108C31.4112 76.4478 31.6136 76.7117 31.8741 76.8996C32.1372 77.0875 32.4457 77.1814 32.7999 77.1814C33.0325 77.1814 33.2437 77.1403 33.4334 77.0579C33.6231 76.9755 33.7838 76.8571 33.9153 76.7027C34.0468 76.5482 34.1404 76.3629 34.196 76.1466H35.0914C35.0408 76.4967 34.9156 76.812 34.7158 77.0926C34.5185 77.3706 34.2567 77.592 33.9305 77.7567C33.6067 77.9189 33.2298 78 32.7999 78Z" fill="#272219"/>
<path d="M38.8437 78C38.2822 78 37.7978 77.8739 37.3906 77.6216C36.9859 77.3668 36.6735 77.0116 36.4535 76.5559C36.2359 76.0977 36.1272 75.5649 36.1272 74.9574C36.1272 74.3499 36.2359 73.8145 36.4535 73.3512C36.6735 72.8853 36.9796 72.5223 37.3716 72.2623C37.7662 71.9998 38.2265 71.8685 38.7526 71.8685C39.0561 71.8685 39.3559 71.92 39.6518 72.0229C39.9477 72.1259 40.2171 72.2932 40.4599 72.5249C40.7027 72.754 40.8962 73.0577 41.0404 73.4361C41.1846 73.8145 41.2566 74.2804 41.2566 74.8339V75.22H36.7646V74.4323H40.3461C40.3461 74.0977 40.2803 73.7991 40.1488 73.5365C40.0198 73.2739 39.8352 73.0667 39.5949 72.9149C39.3571 72.763 39.0764 72.6871 38.7526 72.6871C38.396 72.6871 38.0874 72.7771 37.8269 72.9573C37.5689 73.1349 37.3703 73.3666 37.2312 73.6523C37.0921 73.9381 37.0226 74.2444 37.0226 74.5713V75.0964C37.0226 75.5443 37.0984 75.924 37.2502 76.2355C37.4045 76.5443 37.6182 76.7799 37.8914 76.942C38.1645 77.1016 38.482 77.1814 38.8437 77.1814C39.0789 77.1814 39.2914 77.148 39.4811 77.081C39.6733 77.0115 39.839 76.9086 39.9781 76.7722C40.1172 76.6331 40.2247 76.4607 40.3006 76.2548L41.1656 76.5019C41.0745 76.8005 40.9215 77.063 40.7065 77.2896C40.4915 77.5135 40.2259 77.6885 39.9098 77.8147C39.5936 77.9382 39.2382 78 38.8437 78Z" fill="#272219"/>
<path d="M43.5141 74.3087V77.8764H42.6187V71.9457H43.4837V72.8724H43.5596C43.6962 72.5712 43.9036 72.3293 44.1818 72.1465C44.46 71.9612 44.8192 71.8685 45.2593 71.8685C45.6539 71.8685 45.9991 71.9509 46.2951 72.1156C46.591 72.2778 46.8212 72.5249 46.9856 72.8569C47.15 73.1864 47.2322 73.6034 47.2322 74.108V77.8764H46.3368V74.1697C46.3368 73.7038 46.2179 73.3409 45.9802 73.0809C45.7424 72.8183 45.4161 72.6871 45.0013 72.6871C44.7155 72.6871 44.46 72.7501 44.2349 72.8763C44.0123 73.0024 43.8366 73.1864 43.7076 73.4284C43.5786 73.6704 43.5141 73.9638 43.5141 74.3087Z" fill="#272219"/>
<path d="M52.9962 73.274L52.1919 73.5056C52.1413 73.3692 52.0667 73.2366 51.968 73.1079C51.8719 72.9766 51.7404 72.8685 51.5734 72.7836C51.4065 72.6986 51.1928 72.6562 50.9323 72.6562C50.5756 72.6562 50.2784 72.7398 50.0407 72.9071C49.8054 73.0719 49.6878 73.2817 49.6878 73.5365C49.6878 73.763 49.7688 73.9419 49.9306 74.0732C50.0925 74.2045 50.3455 74.3139 50.6894 74.4014L51.5545 74.6176C52.0755 74.7463 52.4638 74.9433 52.7192 75.2084C52.9747 75.4709 53.1024 75.8094 53.1024 76.2239C53.1024 76.5637 53.0063 76.8674 52.8141 77.1351C52.6244 77.4028 52.3588 77.6139 52.0173 77.7683C51.6759 77.9228 51.2788 78 50.826 78C50.2316 78 49.7397 77.8687 49.3502 77.6062C48.9606 77.3436 48.714 76.9601 48.6103 76.4555L49.4602 76.2393C49.5411 76.5585 49.6942 76.7979 49.9193 76.9575C50.1469 77.1171 50.4441 77.1969 50.8108 77.1969C51.2282 77.1969 51.5595 77.1068 51.8049 76.9266C52.0527 76.7438 52.1767 76.525 52.1767 76.2702C52.1767 76.0643 52.1059 75.8918 51.9642 75.7528C51.8226 75.6112 51.6051 75.5057 51.3117 75.4362L50.3404 75.2045C49.8067 75.0758 49.4147 74.8763 49.1643 74.606C48.9164 74.3332 48.7924 73.9921 48.7924 73.5828C48.7924 73.2482 48.8848 72.9522 49.0694 72.6948C49.2566 72.4374 49.5108 72.2353 49.832 72.0886C50.1558 71.9418 50.5225 71.8685 50.9323 71.8685C51.5089 71.8685 51.9617 71.9972 52.2905 72.2546C52.6218 72.512 52.8571 72.8518 52.9962 73.274Z" fill="#272219"/>
<path d="M56.8936 78C56.332 78 55.8477 77.8739 55.4405 77.6216C55.0358 77.3668 54.7234 77.0116 54.5033 76.5559C54.2858 76.0977 54.1771 75.5649 54.1771 74.9574C54.1771 74.3499 54.2858 73.8145 54.5033 73.3512C54.7234 72.8853 55.0294 72.5223 55.4215 72.2623C55.8161 71.9998 56.2764 71.8685 56.8025 71.8685C57.106 71.8685 57.4057 71.92 57.7017 72.0229C57.9976 72.1259 58.267 72.2932 58.5098 72.5249C58.7526 72.754 58.9461 73.0577 59.0903 73.4361C59.2344 73.8145 59.3065 74.2804 59.3065 74.8339V75.22H54.8145V74.4323H58.396C58.396 74.0977 58.3302 73.7991 58.1987 73.5365C58.0697 73.2739 57.8851 73.0667 57.6448 72.9149C57.407 72.763 57.1263 72.6871 56.8025 72.6871C56.4459 72.6871 56.1373 72.7771 55.8768 72.9573C55.6188 73.1349 55.4202 73.3666 55.2811 73.6523C55.142 73.9381 55.0724 74.2444 55.0724 74.5713V75.0964C55.0724 75.5443 55.1483 75.924 55.3001 76.2355C55.4544 76.5443 55.6681 76.7799 55.9413 76.942C56.2144 77.1016 56.5319 77.1814 56.8936 77.1814C57.1288 77.1814 57.3412 77.148 57.5309 77.081C57.7232 77.0115 57.8888 76.9086 58.028 76.7722C58.1671 76.6331 58.2746 76.4607 58.3504 76.2548L59.2155 76.5019C59.1244 76.8005 58.9714 77.063 58.7564 77.2896C58.5414 77.5135 58.2758 77.6885 57.9597 77.8147C57.6435 77.9382 57.2881 78 56.8936 78Z" fill="#272219"/>
<path d="M69.9563 69.9688V77.8764H69.0457L64.8116 71.6677H64.7357V77.8764H63.7948V69.9688H64.7054L68.9546 76.193H69.0305V69.9688H69.9563Z" fill="#272219"/>
<path d="M74.0851 78C73.559 78 73.0974 77.8726 72.7002 77.6178C72.3057 77.3629 71.9971 77.0064 71.7745 76.5482C71.5545 76.09 71.4444 75.5546 71.4444 74.942C71.4444 74.3242 71.5545 73.7849 71.7745 73.3241C71.9971 72.8634 72.3057 72.5056 72.7002 72.2507C73.0974 71.9959 73.559 71.8685 74.0851 71.8685C74.6112 71.8685 75.0715 71.9959 75.4661 72.2507C75.8632 72.5056 76.1718 72.8634 76.3918 73.3241C76.6144 73.7849 76.7257 74.3242 76.7257 74.942C76.7257 75.5546 76.6144 76.09 76.3918 76.5482C76.1718 77.0064 75.8632 77.3629 75.4661 77.6178C75.0715 77.8726 74.6112 78 74.0851 78ZM74.0851 77.1814C74.4847 77.1814 74.8135 77.0772 75.0715 76.8687C75.3295 76.6602 75.5204 76.386 75.6444 76.0463C75.7683 75.7065 75.8303 75.3384 75.8303 74.942C75.8303 74.5456 75.7683 74.1762 75.6444 73.8338C75.5204 73.4915 75.3295 73.2147 75.0715 73.0037C74.8135 72.7926 74.4847 72.6871 74.0851 72.6871C73.6854 72.6871 73.3566 72.7926 73.0986 73.0037C72.8406 73.2147 72.6497 73.4915 72.5257 73.8338C72.4018 74.1762 72.3398 74.5456 72.3398 74.942C72.3398 75.3384 72.4018 75.7065 72.5257 76.0463C72.6497 76.386 72.8406 76.6602 73.0986 76.8687C73.3566 77.0772 73.6854 77.1814 74.0851 77.1814Z" fill="#272219"/>
<path d="M78.745 77.9382C78.5579 77.9382 78.3972 77.87 78.2632 77.7336C78.1291 77.5972 78.0621 77.4337 78.0621 77.2432C78.0621 77.0527 78.1291 76.8893 78.2632 76.7528C78.3972 76.6164 78.5579 76.5482 78.745 76.5482C78.9322 76.5482 79.0928 76.6164 79.2269 76.7528C79.3609 76.8893 79.4279 77.0527 79.4279 77.2432C79.4279 77.3693 79.3963 77.4852 79.3331 77.5907C79.2724 77.6963 79.1902 77.7812 79.0865 77.8456C78.9853 77.9073 78.8715 77.9382 78.745 77.9382Z" fill="#272219"/>
<path d="M84.2672 77.8764L87.7425 70.88V70.8183H83.736V69.9688H88.7137V70.8646L85.2536 77.8764H84.2672Z" fill="#272219"/>
<path d="M90.1279 77.8764V77.1814L92.6927 74.3242C92.9937 73.9895 93.2415 73.6987 93.4363 73.4516C93.631 73.2019 93.7752 72.9676 93.8688 72.7488C93.9649 72.5275 94.013 72.2958 94.013 72.0538C94.013 71.7758 93.9472 71.5351 93.8157 71.3318C93.6867 71.1284 93.5096 70.9714 93.2845 70.8607C93.0594 70.75 92.8065 70.6947 92.5257 70.6947C92.2273 70.6947 91.9668 70.7578 91.7442 70.8839C91.5241 71.0075 91.3534 71.1812 91.232 71.4052C91.1131 71.6291 91.0537 71.8917 91.0537 72.1928H90.1583C90.1583 71.7295 90.2632 71.3228 90.4732 70.9727C90.6831 70.6226 90.9689 70.3498 91.3306 70.1541C91.6948 69.9585 92.1033 69.8607 92.5561 69.8607C93.0114 69.8607 93.4148 69.9585 93.7664 70.1541C94.1179 70.3498 94.3936 70.6136 94.5935 70.9457C94.7933 71.2777 94.8932 71.6471 94.8932 72.0538C94.8932 72.3447 94.8413 72.6291 94.7376 72.9071C94.6364 73.1826 94.4594 73.4902 94.2065 73.83C93.9561 74.1672 93.6083 74.579 93.1631 75.0655L91.4179 76.9652V77.027H95.0298V77.8764H90.1279Z" fill="#272219"/>
<path d="M99.0704 69.8607C99.3891 69.8633 99.7077 69.925 100.026 70.046C100.345 70.167 100.636 70.3678 100.899 70.6484C101.162 70.9264 101.373 71.3061 101.533 71.7874C101.692 72.2688 101.772 72.8724 101.772 73.5983C101.772 74.301 101.706 74.9252 101.574 75.4709C101.445 76.0141 101.258 76.4723 101.013 76.8455C100.77 77.2188 100.474 77.5019 100.125 77.695C99.7786 77.888 99.3865 77.9846 98.9489 77.9846C98.5139 77.9846 98.1257 77.897 97.7842 77.722C97.4453 77.5444 97.167 77.2986 96.9495 76.9845C96.7345 76.6679 96.5967 76.3011 96.536 75.8841H97.4617C97.5452 76.247 97.7108 76.5469 97.9587 76.7837C98.2091 77.018 98.5392 77.1351 98.9489 77.1351C99.5484 77.1351 100.021 76.8687 100.368 76.3358C100.717 75.803 100.891 75.0501 100.891 74.0771H100.831C100.689 74.2933 100.521 74.4799 100.326 74.6369C100.131 74.794 99.9151 74.9149 99.6774 74.9999C99.4396 75.0848 99.1867 75.1273 98.9186 75.1273C98.4734 75.1273 98.0649 75.0153 97.6931 74.7914C97.3239 74.5649 97.0279 74.2547 96.8053 73.8608C96.5853 73.4644 96.4753 73.0114 96.4753 72.5017C96.4753 72.0178 96.5815 71.5751 96.794 71.1735C97.009 70.7694 97.31 70.4476 97.6969 70.2082C98.0865 69.9688 98.5443 69.853 99.0704 69.8607ZM99.0704 70.7101C98.7517 70.7101 98.4646 70.7912 98.2091 70.9534C97.9562 71.113 97.7551 71.3292 97.6059 71.6021C97.4592 71.8724 97.3858 72.1722 97.3858 72.5017C97.3858 72.8312 97.4566 73.1311 97.5983 73.4014C97.7425 73.6691 97.9385 73.8827 98.1864 74.0423C98.4368 74.1993 98.7213 74.2779 99.04 74.2779C99.2803 74.2779 99.5041 74.2302 99.7115 74.135C99.9189 74.0372 100.1 73.9046 100.254 73.7373C100.411 73.5674 100.534 73.3756 100.622 73.162C100.711 72.9458 100.755 72.7205 100.755 72.4863C100.755 72.1774 100.682 71.8878 100.535 71.6175C100.391 71.3472 100.191 71.1284 99.9354 70.9611C99.6824 70.7938 99.3941 70.7101 99.0704 70.7101Z" fill="#272219"/>
<path d="M105.798 77.9846C105.226 77.9846 104.74 77.8262 104.337 77.5096C103.935 77.1904 103.628 76.7284 103.415 76.1235C103.203 75.516 103.097 74.7824 103.097 73.9226C103.097 73.068 103.203 72.3383 103.415 71.7334C103.63 71.1259 103.939 70.6625 104.341 70.3433C104.746 70.0216 105.231 69.8607 105.798 69.8607C106.365 69.8607 106.849 70.0216 107.251 70.3433C107.656 70.6625 107.964 71.1259 108.177 71.7334C108.392 72.3383 108.499 73.068 108.499 73.9226C108.499 74.7824 108.393 75.516 108.181 76.1235C107.968 76.7284 107.661 77.1904 107.259 77.5096C106.857 77.8262 106.37 77.9846 105.798 77.9846ZM105.798 77.1351C106.365 77.1351 106.805 76.8571 107.118 76.3011C107.432 75.7451 107.589 74.9523 107.589 73.9226C107.589 73.2379 107.517 72.6549 107.373 72.1735C107.231 71.6922 107.026 71.3254 106.758 71.0731C106.492 70.8208 106.172 70.6947 105.798 70.6947C105.237 70.6947 104.798 70.9766 104.482 71.5403C104.165 72.1014 104.007 72.8956 104.007 73.9226C104.007 74.6073 104.078 75.1891 104.22 75.6679C104.361 76.1466 104.565 76.5109 104.831 76.7606C105.099 77.0103 105.421 77.1351 105.798 77.1351Z" fill="#272219"/>
<path d="M112.475 77.9846C111.904 77.9846 111.417 77.8262 111.015 77.5096C110.613 77.1904 110.305 76.7284 110.093 76.1235C109.88 75.516 109.774 74.7824 109.774 73.9226C109.774 73.068 109.88 72.3383 110.093 71.7334C110.308 71.1259 110.616 70.6625 111.019 70.3433C111.423 70.0216 111.909 69.8607 112.475 69.8607C113.042 69.8607 113.526 70.0216 113.929 70.3433C114.333 70.6625 114.642 71.1259 114.854 71.7334C115.069 72.3383 115.177 73.068 115.177 73.9226C115.177 74.7824 115.071 75.516 114.858 76.1235C114.646 76.7284 114.338 77.1904 113.936 77.5096C113.534 77.8262 113.047 77.9846 112.475 77.9846ZM112.475 77.1351C113.042 77.1351 113.482 76.8571 113.796 76.3011C114.109 75.7451 114.266 74.9523 114.266 73.9226C114.266 73.2379 114.194 72.6549 114.05 72.1735C113.908 71.6922 113.703 71.3254 113.435 71.0731C113.17 70.8208 112.85 70.6947 112.475 70.6947C111.914 70.6947 111.475 70.9766 111.159 71.5403C110.843 72.1014 110.685 72.8956 110.685 73.9226C110.685 74.6073 110.756 75.1891 110.897 75.6679C111.039 76.1466 111.242 76.5109 111.508 76.7606C111.776 77.0103 112.099 77.1351 112.475 77.1351Z" fill="#272219"/>
<path d="M116.436 76.2548V75.4671L119.851 69.9688H120.412V71.1889H120.033L117.453 75.3435V75.4053H122.051V76.2548H116.436ZM120.094 77.8764V69.9688H120.989V77.8764H120.094Z" fill="#272219"/>
</g>
</svg>
