<svg width="24" height="25" viewBox="0 0 24 25" fill="none" xmlns="http://www.w3.org/2000/svg">
<g id="Vector">
<path d="M12.0687 16.0962L9.87698 18.292L12.0687 20.4877L14.2604 18.292L12.0687 16.0962Z" fill="#261F10"/>
<path d="M14.1933 23.8684H9.83288L12.0656 20.4737L14.1933 23.8684Z" fill="#261F10"/>
<path d="M23.9387 22.1053L22.7041 16.7895C22.4414 15.6053 21.3907 14.7368 20.1824 14.7368H16.216C15.7694 14.7368 15.4279 14.3947 15.4279 13.9474V10.7895H15.4017C14.456 11.7632 13.1689 12.3684 11.7504 12.3684H13.8519V13.9474C13.8519 15.2632 14.9026 16.3158 16.216 16.3158H20.2087C20.6552 16.3158 21.0755 16.6842 21.2068 17.1579L22.4414 22.4737C22.5202 22.7895 22.3889 23.0263 22.2838 23.1316C22.205 23.2368 21.9949 23.4211 21.6797 23.4211H2.37282C2.03134 23.4211 1.84747 23.2368 1.76866 23.1316C1.68986 23.0263 1.53225 22.7895 1.61106 22.4737L2.84564 17.1579C2.95072 16.6842 3.371 16.3158 3.84382 16.3158H8.36189C9.67528 16.3158 10.726 15.2632 10.726 13.9474V12.3684H11.7767C10.8048 12.3684 9.91169 12.0789 9.14992 11.6053V13.9474C9.14992 14.3947 8.80844 14.7368 8.36189 14.7368H3.81755C2.60923 14.7368 1.55852 15.6053 1.29584 16.7895L0.061256 22.1053C-0.280226 23.5789 0.84929 25 2.37282 25H21.6534C23.1507 25 24.2802 23.5789 23.9387 22.1053Z" fill="#261F10"/>
<path d="M11.7504 1.57895C14.2459 1.57895 16.2948 3.81579 16.2948 6.57895C16.2948 9.34211 14.2721 11.5789 11.7504 11.5789C9.22872 11.5789 7.23237 9.34211 7.23237 6.57895C7.2061 3.81579 9.25499 1.57895 11.7504 1.57895ZM11.7504 0C8.38815 0 5.63003 2.94737 5.63003 6.57895C5.63003 10.2105 8.36189 13.1579 11.7242 13.1579C15.0864 13.1579 17.8446 10.2105 17.8446 6.57895C17.8446 2.94737 15.1127 0 11.7504 0Z" fill="#261F10"/>
<path d="M9.91169 7.63158H5.97151V6.84211H9.91169C12.5122 6.84211 14.6399 4.71053 14.6399 2.10526H15.4279C15.4279 5.1579 12.9325 7.63158 9.91169 7.63158Z" fill="#261F10"/>
</g>
</svg>
