<svg width="20" height="19" viewBox="0 0 20 19" fill="none" xmlns="http://www.w3.org/2000/svg">
<g id="Vector">
<path d="M13.7579 2.6376V17.5865H1.95732V2.6376H13.7579ZM13.7579 1.51118H1.95732C1.31044 1.51118 0.800781 2.02666 0.800781 2.6376V17.5865C0.800781 18.2165 1.31044 18.7129 1.95732 18.7129H13.7579C14.4048 18.7129 14.9144 18.2165 14.9144 17.5865V2.6376C14.9144 2.02666 14.4048 1.51118 13.7579 1.51118Z" fill="#261F10"/>
<path d="M9.46499 3.82129H5.07408C4.85845 3.82129 4.68203 3.64946 4.68203 3.43945V0.766602C4.68203 0.556592 4.85845 0.384766 5.07408 0.384766H9.44538C9.66101 0.384766 9.83743 0.556592 9.83743 0.766602V3.43945C9.85703 3.64946 9.68061 3.82129 9.46499 3.82129Z" fill="#261F10"/>
<path d="M17.6587 5.80684H15.8945V13.8254H17.6587V5.80684Z" fill="#261F10"/>
<path d="M17.6587 5.36772H15.8945V5.00498C15.8945 4.52769 16.2866 4.14585 16.7766 4.14585C17.2667 4.14585 17.6587 4.52769 17.6587 5.00498V5.36772Z" fill="#261F10"/>
<path d="M17.6587 16.2119L16.7766 17.3383L15.8945 16.2119V14.36H17.6587V16.2119Z" fill="#261F10"/>
<path d="M18.8349 11.458C18.6781 11.458 18.5408 11.3244 18.5408 11.1716V8.02148C18.5408 7.54419 18.1488 7.16235 17.6587 7.16235H17.3647C17.2079 7.16235 17.0707 7.02871 17.0707 6.87598C17.0707 6.72324 17.2079 6.5896 17.3647 6.5896H17.6587C18.4624 6.5896 19.1289 7.23872 19.1289 8.02148V11.1716C19.1289 11.3244 19.0113 11.458 18.8349 11.458Z" fill="#261F10"/>
<path d="M9.89624 8.59424C9.91584 8.59424 9.91584 8.61333 9.91584 8.61333V12.5844C9.91584 12.6035 9.89624 12.6035 9.89624 12.6035H5.81896C5.79936 12.6035 5.79936 12.5844 5.79936 12.5844V8.61333C5.79936 8.59424 5.81896 8.59424 5.81896 8.59424H9.89624ZM9.89624 8.02148H5.81896C5.48572 8.02148 5.21129 8.28877 5.21129 8.61333V12.5844C5.21129 12.909 5.48572 13.1763 5.81896 13.1763H9.89624C10.2295 13.1763 10.5039 12.909 10.5039 12.5844V8.61333C10.5039 8.28877 10.2295 8.02148 9.89624 8.02148Z" fill="#261F10"/>
<path d="M11.4644 8.55605C11.386 8.55605 11.3076 8.53696 11.2488 8.47969L7.8576 5.15771L4.46641 8.47969C4.34879 8.59424 4.17237 8.59424 4.05476 8.47969C3.93714 8.36514 3.93714 8.19331 4.05476 8.07876L7.66158 4.56587C7.77919 4.45132 7.97521 4.45132 8.07322 4.56587L11.68 8.07876C11.7977 8.19331 11.7977 8.36514 11.68 8.47969C11.6212 8.53696 11.5428 8.55605 11.4644 8.55605Z" fill="#261F10"/>
<path d="M11.484 15.2764H4.4272C4.27038 15.2764 4.13317 15.1427 4.13317 14.99C4.13317 14.8373 4.27038 14.7036 4.4272 14.7036H11.484C11.6408 14.7036 11.7781 14.8373 11.7781 14.99C11.7781 15.1427 11.6604 15.2764 11.484 15.2764Z" fill="#261F10"/>
<path d="M11.484 16.4219H4.4272C4.27038 16.4219 4.13317 16.2882 4.13317 16.1355C4.13317 15.9828 4.27038 15.8491 4.4272 15.8491H11.484C11.6408 15.8491 11.7781 15.9828 11.7781 16.1355C11.7781 16.2882 11.6604 16.4219 11.484 16.4219Z" fill="#261F10"/>
</g>
</svg>
