<svg width="145" height="78" viewBox="0 0 145 78" fill="none" xmlns="http://www.w3.org/2000/svg">
<g id="Vector">
<path d="M26.6891 53.0034V44.4933H27.7014V48.7151H27.7994L31.5546 44.4933H32.8771L29.3668 48.3328L32.8771 53.0034H31.6525L28.7463 49.0475L27.7014 50.2443V53.0034H26.6891Z" fill="#606161"/>
<path d="M36.2251 53.1364C35.621 53.1364 35.0999 53.0006 34.6618 52.7291C34.2264 52.4549 33.8904 52.0726 33.6536 51.5823C33.4196 51.0892 33.3026 50.5157 33.3026 49.862C33.3026 49.2082 33.4196 48.632 33.6536 48.1334C33.8904 47.6319 34.2196 47.2413 34.6414 46.9615C35.0659 46.679 35.5611 46.5377 36.1271 46.5377C36.4537 46.5377 36.7761 46.5931 37.0945 46.7039C37.4129 46.8147 37.7027 46.9948 37.9639 47.2441C38.2252 47.4907 38.4333 47.8175 38.5884 48.2248C38.7435 48.632 38.8211 49.1334 38.8211 49.729V50.1445H33.9883V49.2968H37.8415C37.8415 48.9367 37.7707 48.6154 37.6292 48.3328C37.4905 48.0502 37.2918 47.8272 37.0333 47.6638C36.7775 47.5004 36.4755 47.4186 36.1271 47.4186C35.7435 47.4186 35.4115 47.5156 35.1312 47.7095C34.8536 47.9007 34.64 48.15 34.4904 48.4575C34.3407 48.765 34.2659 49.0946 34.2659 49.4464V50.0116C34.2659 50.4936 34.3475 50.9022 34.5108 51.2374C34.6768 51.5698 34.9067 51.8233 35.2006 51.9978C35.4945 52.1696 35.836 52.2554 36.2251 52.2554C36.4782 52.2554 36.7068 52.2194 36.9108 52.1474C37.1177 52.0726 37.2959 51.9618 37.4456 51.815C37.5952 51.6654 37.7109 51.4798 37.7925 51.2582L38.7231 51.5241C38.6252 51.8454 38.4605 52.128 38.2292 52.3718C37.9979 52.6128 37.7122 52.8012 37.3721 52.9369C37.0319 53.0699 36.6496 53.1364 36.2251 53.1364Z" fill="#606161"/>
<path d="M40.7161 55.3969C40.5528 55.3969 40.4072 55.383 40.2793 55.3553C40.1514 55.3304 40.063 55.3055 40.014 55.2805L40.2589 54.4162C40.4929 54.4772 40.6997 54.4993 40.8793 54.4827C41.0589 54.4661 41.2181 54.3844 41.3569 54.2375C41.4984 54.0935 41.6276 53.8594 41.7447 53.5353L41.9243 53.0366L39.6058 46.6208H40.6507L42.3814 51.7069H42.4467L44.1774 46.6208H45.2223L42.561 53.9342C42.4413 54.2638 42.293 54.5367 42.1161 54.7528C41.9392 54.9716 41.7338 55.1337 41.4997 55.239C41.2684 55.3442 41.0072 55.3969 40.7161 55.3969Z" fill="#606161"/>
<path d="M56.9104 48.7483C56.9104 49.6459 56.7512 50.4216 56.4328 51.0753C56.1145 51.7291 55.6777 52.2333 55.1226 52.5879C54.5675 52.9425 53.9334 53.1197 53.2205 53.1197C52.5075 53.1197 51.8735 52.9425 51.3184 52.5879C50.7633 52.2333 50.3265 51.7291 50.0082 51.0753C49.6898 50.4216 49.5306 49.6459 49.5306 48.7483C49.5306 47.8508 49.6898 47.0751 50.0082 46.4214C50.3265 45.7676 50.7633 45.2634 51.3184 44.9088C51.8735 44.5542 52.5075 44.3769 53.2205 44.3769C53.9334 44.3769 54.5675 44.5542 55.1226 44.9088C55.6777 45.2634 56.1145 45.7676 56.4328 46.4214C56.7512 47.0751 56.9104 47.8508 56.9104 48.7483ZM55.9308 48.7483C55.9308 48.0115 55.8097 47.3895 55.5675 46.8826C55.328 46.3756 55.0028 45.992 54.592 45.7316C54.1838 45.4712 53.7266 45.341 53.2205 45.341C52.7143 45.341 52.2558 45.4712 51.8449 45.7316C51.4368 45.992 51.1116 46.3756 50.8694 46.8826C50.6299 47.3895 50.5102 48.0115 50.5102 48.7483C50.5102 49.4852 50.6299 50.1071 50.8694 50.6141C51.1116 51.121 51.4368 51.5047 51.8449 51.7651C52.2558 52.0255 52.7143 52.1557 53.2205 52.1557C53.7266 52.1557 54.1838 52.0255 54.592 51.7651C55.0028 51.5047 55.328 51.121 55.5675 50.6141C55.8097 50.1071 55.9308 49.4852 55.9308 48.7483Z" fill="#606161"/>
<path d="M59.4452 49.1639V53.0034H58.4819V46.6208H59.4125V47.6181H59.4941C59.6411 47.294 59.8642 47.0336 60.1635 46.8369C60.4629 46.6374 60.8493 46.5377 61.3228 46.5377C61.7473 46.5377 62.1187 46.6264 62.4371 46.8036C62.7554 46.9782 63.0031 47.2441 63.18 47.6015C63.3568 47.9561 63.4453 48.4048 63.4453 48.9478V53.0034H62.482V49.0143C62.482 48.5129 62.3541 48.1223 62.0983 47.8425C61.8425 47.5599 61.4915 47.4186 61.0452 47.4186C60.7377 47.4186 60.4629 47.4865 60.2207 47.6222C59.9812 47.758 59.7921 47.9561 59.6533 48.2165C59.5145 48.4769 59.4452 48.7927 59.4452 49.1639Z" fill="#606161"/>
<path d="M67.8342 53.1364C67.2301 53.1364 66.709 53.0006 66.2709 52.7291C65.8355 52.4549 65.4994 52.0726 65.2627 51.5823C65.0286 51.0892 64.9116 50.5157 64.9116 49.862C64.9116 49.2082 65.0286 48.632 65.2627 48.1334C65.4994 47.6319 65.8287 47.2413 66.2505 46.9615C66.6749 46.679 67.1702 46.5377 67.7362 46.5377C68.0627 46.5377 68.3852 46.5931 68.7036 46.7039C69.0219 46.8147 69.3118 46.9948 69.573 47.2441C69.8342 47.4907 70.0424 47.8175 70.1975 48.2248C70.3526 48.632 70.4302 49.1334 70.4302 49.729V50.1445H65.5974V49.2968H69.4505C69.4505 48.9367 69.3798 48.6154 69.2383 48.3328C69.0995 48.0502 68.9009 47.8272 68.6423 47.6638C68.3866 47.5004 68.0845 47.4186 67.7362 47.4186C67.3525 47.4186 67.0205 47.5156 66.7403 47.7095C66.4627 47.9007 66.2491 48.15 66.0994 48.4575C65.9498 48.765 65.8749 49.0946 65.8749 49.4464V50.0116C65.8749 50.4936 65.9566 50.9022 66.1198 51.2374C66.2858 51.5698 66.5158 51.8233 66.8096 51.9978C67.1035 52.1696 67.445 52.2554 67.8342 52.2554C68.0872 52.2554 68.3158 52.2194 68.5199 52.1474C68.7267 52.0726 68.9049 51.9618 69.0546 51.815C69.2043 51.6654 69.3199 51.4798 69.4016 51.2582L70.3322 51.5241C70.2342 51.8454 70.0696 52.128 69.8383 52.3718C69.607 52.6128 69.3213 52.8012 68.9811 52.9369C68.641 53.0699 68.2587 53.1364 67.8342 53.1364Z" fill="#606161"/>
<path d="M75.2589 53.0034V44.4933H76.2711V48.2829H80.7284V44.4933H81.7407V53.0034H80.7284V49.1971H76.2711V53.0034H75.2589Z" fill="#606161"/>
<path d="M86.1837 53.1364C85.6177 53.1364 85.121 52.9992 84.6938 52.725C84.2693 52.4507 83.9373 52.0671 83.6979 51.574C83.4611 51.0809 83.3428 50.5047 83.3428 49.8453C83.3428 49.1805 83.4611 48.6001 83.6979 48.1043C83.9373 47.6084 84.2693 47.2233 84.6938 46.9491C85.121 46.6748 85.6177 46.5377 86.1837 46.5377C86.7497 46.5377 87.2449 46.6748 87.6694 46.9491C88.0966 47.2233 88.4286 47.6084 88.6654 48.1043C88.9048 48.6001 89.0246 49.1805 89.0246 49.8453C89.0246 50.5047 88.9048 51.0809 88.6654 51.574C88.4286 52.0671 88.0966 52.4507 87.6694 52.725C87.2449 52.9992 86.7497 53.1364 86.1837 53.1364ZM86.1837 52.2554C86.6136 52.2554 86.9674 52.1432 87.2449 51.9189C87.5225 51.6945 87.7279 51.3994 87.8613 51.0338C87.9946 50.6681 88.0613 50.272 88.0613 49.8453C88.0613 49.4187 87.9946 49.0212 87.8613 48.6528C87.7279 48.2843 87.5225 47.9865 87.2449 47.7594C86.9674 47.5322 86.6136 47.4186 86.1837 47.4186C85.7537 47.4186 85.4 47.5322 85.1224 47.7594C84.8448 47.9865 84.6394 48.2843 84.5061 48.6528C84.3727 49.0212 84.3061 49.4187 84.3061 49.8453C84.3061 50.272 84.3727 50.6681 84.5061 51.0338C84.6394 51.3994 84.8448 51.6945 85.1224 51.9189C85.4 52.1432 85.7537 52.2554 86.1837 52.2554Z" fill="#606161"/>
<path d="M90.495 53.0034V46.6208H91.4257V47.6181H91.5073C91.6379 47.2774 91.8488 47.0128 92.14 46.8244C92.4311 46.6333 92.7808 46.5377 93.189 46.5377C93.6026 46.5377 93.9468 46.6333 94.2216 46.8244C94.4992 47.0128 94.7155 47.2774 94.8706 47.6181H94.936C95.0965 47.2884 95.3373 47.0266 95.6584 46.8327C95.9795 46.636 96.3646 46.5377 96.8136 46.5377C97.3741 46.5377 97.8326 46.7164 98.1891 47.0737C98.5456 47.4283 98.7238 47.981 98.7238 48.7317V53.0034H97.7605V48.7317C97.7605 48.2608 97.634 47.9242 97.3809 47.722C97.1278 47.5197 96.8299 47.4186 96.487 47.4186C96.0462 47.4186 95.7047 47.5544 95.4625 47.8259C95.2203 48.0946 95.0992 48.4353 95.0992 48.8481V53.0034H94.1196V48.632C94.1196 48.2691 94.0039 47.9768 93.7726 47.7552C93.5413 47.5308 93.2434 47.4186 92.8787 47.4186C92.6284 47.4186 92.3944 47.4865 92.1767 47.6222C91.9617 47.758 91.7876 47.9464 91.6542 48.1874C91.5236 48.4256 91.4583 48.7012 91.4583 49.0143V53.0034H90.495Z" fill="#606161"/>
<path d="M103.114 53.1364C102.51 53.1364 101.989 53.0006 101.55 52.7291C101.115 52.4549 100.779 52.0726 100.542 51.5823C100.308 51.0892 100.191 50.5157 100.191 49.862C100.191 49.2082 100.308 48.632 100.542 48.1334C100.779 47.6319 101.108 47.2413 101.53 46.9615C101.955 46.679 102.45 46.5377 103.016 46.5377C103.342 46.5377 103.665 46.5931 103.983 46.7039C104.302 46.8147 104.591 46.9948 104.853 47.2441C105.114 47.4907 105.322 47.8175 105.477 48.2248C105.632 48.632 105.71 49.1334 105.71 49.729V50.1445H100.877V49.2968H104.73C104.73 48.9367 104.659 48.6154 104.518 48.3328C104.379 48.0502 104.18 47.8272 103.922 47.6638C103.666 47.5004 103.364 47.4186 103.016 47.4186C102.632 47.4186 102.3 47.5156 102.02 47.7095C101.742 47.9007 101.529 48.15 101.379 48.4575C101.229 48.765 101.154 49.0946 101.154 49.4464V50.0116C101.154 50.4936 101.236 50.9022 101.399 51.2374C101.565 51.5698 101.795 51.8233 102.089 51.9978C102.383 52.1696 102.725 52.2554 103.114 52.2554C103.367 52.2554 103.595 52.2194 103.799 52.1474C104.006 52.0726 104.185 51.9618 104.334 51.815C104.484 51.6654 104.599 51.4798 104.681 51.2582L105.612 51.5241C105.514 51.8454 105.349 52.128 105.118 52.3718C104.887 52.6128 104.601 52.8012 104.261 52.9369C103.921 53.0699 103.538 53.1364 103.114 53.1364Z" fill="#606161"/>
<path d="M111.616 48.0502L110.751 48.2996C110.696 48.1527 110.616 48.0101 110.51 47.8716C110.406 47.7303 110.265 47.6139 110.085 47.5225C109.906 47.4311 109.676 47.3854 109.396 47.3854C109.012 47.3854 108.692 47.4754 108.436 47.6555C108.183 47.8328 108.057 48.0586 108.057 48.3328C108.057 48.5766 108.144 48.7691 108.318 48.9104C108.492 49.0517 108.764 49.1694 109.134 49.2636L110.065 49.4963C110.626 49.6348 111.043 49.8467 111.318 50.1321C111.593 50.4146 111.73 50.7789 111.73 51.2249C111.73 51.5906 111.627 51.9175 111.42 52.2056C111.216 52.4937 110.93 52.7208 110.563 52.887C110.196 53.0533 109.768 53.1364 109.281 53.1364C108.642 53.1364 108.113 52.9951 107.693 52.7125C107.274 52.43 107.009 52.0172 106.898 51.4742L107.812 51.2415C107.899 51.585 108.064 51.8427 108.306 52.0144C108.551 52.1862 108.87 52.2721 109.265 52.2721C109.714 52.2721 110.07 52.1751 110.334 51.9812C110.601 51.7845 110.734 51.549 110.734 51.2748C110.734 51.0532 110.658 50.8676 110.506 50.718C110.353 50.5656 110.119 50.452 109.804 50.3772L108.759 50.1279C108.185 49.9894 107.763 49.7747 107.493 49.4838C107.227 49.1902 107.093 48.8231 107.093 48.3827C107.093 48.0225 107.193 47.704 107.391 47.4269C107.593 47.1499 107.866 46.9325 108.212 46.7746C108.56 46.6167 108.955 46.5377 109.396 46.5377C110.016 46.5377 110.503 46.6762 110.857 46.9532C111.213 47.2303 111.466 47.5959 111.616 48.0502Z" fill="#606161"/>
<path d="M37.0534 77.867V77.1191L39.8126 74.0441C40.1364 73.684 40.4031 73.371 40.6126 73.105C40.8222 72.8363 40.9773 72.5842 41.078 72.3487C41.1814 72.1105 41.2331 71.8612 41.2331 71.6008C41.2331 71.3016 41.1623 71.0426 41.0208 70.8237C40.882 70.6049 40.6916 70.4359 40.4494 70.3168C40.2072 70.1977 39.9351 70.1381 39.633 70.1381C39.3119 70.1381 39.0316 70.206 38.7922 70.3417C38.5554 70.4747 38.3718 70.6617 38.2411 70.9027C38.1132 71.1437 38.0493 71.4263 38.0493 71.7504H37.086C37.086 71.2517 37.1989 70.814 37.4248 70.4373C37.6506 70.0606 37.9581 69.7669 38.3473 69.5564C38.7391 69.3458 39.1786 69.2406 39.6657 69.2406C40.1555 69.2406 40.5895 69.3458 40.9677 69.5564C41.346 69.7669 41.6426 70.0508 41.8576 70.4082C42.0725 70.7656 42.18 71.1631 42.18 71.6008C42.18 71.9138 42.1242 72.2199 42.0127 72.5191C41.9038 72.8155 41.7133 73.1466 41.4412 73.5122C41.1718 73.8751 40.7977 74.3184 40.3187 74.8419L38.4411 76.8864V76.9529H42.327V77.867H37.0534Z" fill="#606161"/>
<path d="M43.6372 76.1218V75.2741L47.3108 69.3569H47.9149V70.67H47.5067L44.7311 75.1411V75.2076H49.6782V76.1218H43.6372ZM47.572 77.867V69.3569H48.5353V77.867H47.572Z" fill="#606161"/>
<path d="M53.9344 77.9834C53.3195 77.9834 52.7956 77.813 52.363 77.4723C51.9303 77.1288 51.5997 76.6315 51.3711 75.9805C51.1425 75.3267 51.0282 74.5372 51.0282 73.612C51.0282 72.6923 51.1425 71.9069 51.3711 71.2559C51.6024 70.6021 51.9344 70.1035 52.367 69.76C52.8024 69.4137 53.3249 69.2406 53.9344 69.2406C54.544 69.2406 55.0651 69.4137 55.4977 69.76C55.9331 70.1035 56.2651 70.6021 56.4937 71.2559C56.725 71.9069 56.8406 72.6923 56.8406 73.612C56.8406 74.5372 56.7264 75.3267 56.4978 75.9805C56.2692 76.6315 55.9386 77.1288 55.5059 77.4723C55.0732 77.813 54.5494 77.9834 53.9344 77.9834ZM53.9344 77.0692C54.544 77.0692 55.0175 76.77 55.3549 76.1717C55.6923 75.5733 55.861 74.7201 55.861 73.612C55.861 72.8751 55.7835 72.2476 55.6284 71.7296C55.476 71.2116 55.2556 70.8168 54.9671 70.5453C54.6814 70.2738 54.3372 70.1381 53.9344 70.1381C53.3303 70.1381 52.8582 70.4415 52.5181 71.0481C52.1779 71.652 52.0079 72.5067 52.0079 73.612C52.0079 74.3488 52.084 74.9749 52.2364 75.4902C52.3888 76.0054 52.6079 76.3974 52.8936 76.6661C53.182 76.9349 53.529 77.0692 53.9344 77.0692Z" fill="#606161"/>
<path d="M61.7714 77.867V69.3569H64.596C65.249 69.3569 65.7851 69.4705 66.2042 69.6976C66.6232 69.922 66.9334 70.2309 67.1348 70.6243C67.3362 71.0177 67.4369 71.465 67.4369 71.9665C67.4369 72.4679 67.3362 72.9125 67.1348 73.3003C66.9334 73.6881 66.6246 73.9929 66.2083 74.2145C65.7919 74.4333 65.2599 74.5428 64.6123 74.5428H62.3265V73.612H64.5796C65.0259 73.612 65.3851 73.5455 65.6572 73.4125C65.9321 73.2795 66.1307 73.0912 66.2532 72.8474C66.3783 72.6008 66.4409 72.3072 66.4409 71.9665C66.4409 71.6257 66.3783 71.3279 66.2532 71.0731C66.128 70.8182 65.928 70.6215 65.6531 70.483C65.3783 70.3417 65.015 70.2711 64.5633 70.2711H62.7837V77.867H61.7714ZM65.7062 74.0441L67.7634 77.867H66.5879L64.5633 74.0441H65.7062Z" fill="#606161"/>
<path d="M71.5543 78C70.9502 78 70.4291 77.8643 69.991 77.5928C69.5556 77.3185 69.2196 76.9362 68.9828 76.4459C68.7488 75.9528 68.6318 75.3794 68.6318 74.7256C68.6318 74.0718 68.7488 73.4956 68.9828 72.997C69.2196 72.4956 69.5488 72.105 69.9706 71.8252C70.3951 71.5426 70.8904 71.4013 71.4564 71.4013C71.7829 71.4013 72.1054 71.4567 72.4237 71.5675C72.7421 71.6784 73.0319 71.8584 73.2931 72.1077C73.5544 72.3543 73.7626 72.6812 73.9177 73.0884C74.0728 73.4956 74.1503 73.997 74.1503 74.5926V75.0082H69.3175V74.1605H73.1707C73.1707 73.8003 73.0999 73.479 72.9584 73.1964C72.8197 72.9139 72.621 72.6909 72.3625 72.5274C72.1067 72.364 71.8047 72.2823 71.4564 72.2823C71.0727 72.2823 70.7407 72.3792 70.4604 72.5731C70.1829 72.7643 69.9692 73.0136 69.8196 73.3211C69.6699 73.6286 69.5951 73.9582 69.5951 74.3101V74.8752C69.5951 75.3572 69.6767 75.7658 69.84 76.101C70.006 76.4334 70.2359 76.6869 70.5298 76.8614C70.8237 77.0332 71.1652 77.1191 71.5543 77.1191C71.8074 77.1191 72.036 77.0831 72.2401 77.011C72.4469 76.9362 72.6251 76.8254 72.7748 76.6786C72.9244 76.529 73.0401 76.3434 73.1217 76.1218L74.0524 76.3877C73.9544 76.7091 73.7898 76.9916 73.5585 77.2354C73.3272 77.4764 73.0414 77.6648 72.7013 77.8005C72.3611 77.9335 71.9788 78 71.5543 78Z" fill="#606161"/>
<path d="M80.5515 71.4844L78.2331 77.867H77.2535L74.935 71.4844H75.98L77.7106 76.5706H77.7759L79.5066 71.4844H80.5515Z" fill="#606161"/>
<path d="M81.823 77.867V71.4844H82.7863V77.867H81.823ZM82.3128 70.4207C82.125 70.4207 81.9631 70.3556 81.8271 70.2254C81.6937 70.0952 81.6271 69.9387 81.6271 69.7558C81.6271 69.573 81.6937 69.4165 81.8271 69.2863C81.9631 69.1561 82.125 69.091 82.3128 69.091C82.5005 69.091 82.6611 69.1561 82.7944 69.2863C82.9305 69.4165 82.9985 69.573 82.9985 69.7558C82.9985 69.9387 82.9305 70.0952 82.7944 70.2254C82.6611 70.3556 82.5005 70.4207 82.3128 70.4207Z" fill="#606161"/>
<path d="M87.1793 78C86.5752 78 86.0541 77.8643 85.616 77.5928C85.1806 77.3185 84.8445 76.9362 84.6077 76.4459C84.3737 75.9528 84.2567 75.3794 84.2567 74.7256C84.2567 74.0718 84.3737 73.4956 84.6077 72.997C84.8445 72.4956 85.1738 72.105 85.5955 71.8252C86.02 71.5426 86.5153 71.4013 87.0813 71.4013C87.4078 71.4013 87.7303 71.4567 88.0487 71.5675C88.367 71.6784 88.6569 71.8584 88.9181 72.1077C89.1793 72.3543 89.3875 72.6812 89.5426 73.0884C89.6977 73.4956 89.7752 73.997 89.7752 74.5926V75.0082H84.9425V74.1605H88.7956C88.7956 73.8003 88.7249 73.479 88.5834 73.1964C88.4446 72.9139 88.246 72.6909 87.9874 72.5274C87.7317 72.364 87.4296 72.2823 87.0813 72.2823C86.6976 72.2823 86.3656 72.3792 86.0853 72.5731C85.8078 72.7643 85.5942 73.0136 85.4445 73.3211C85.2948 73.6286 85.22 73.9582 85.22 74.3101V74.8752C85.22 75.3572 85.3017 75.7658 85.4649 76.101C85.6309 76.4334 85.8608 76.6869 86.1547 76.8614C86.4486 77.0332 86.7901 77.1191 87.1793 77.1191C87.4323 77.1191 87.6609 77.0831 87.865 77.011C88.0718 76.9362 88.25 76.8254 88.3997 76.6786C88.5494 76.529 88.665 76.3434 88.7467 76.1218L89.6773 76.3877C89.5793 76.7091 89.4147 76.9916 89.1834 77.2354C88.9521 77.4764 88.6664 77.6648 88.3262 77.8005C87.9861 77.9335 87.6038 78 87.1793 78Z" fill="#606161"/>
<path d="M92.661 77.867L90.7508 71.4844H91.7631L93.1182 76.3711H93.1835L94.5223 71.4844H95.5509L96.8734 76.3545H96.9387L98.2939 71.4844H99.3061L97.3959 77.867H96.4489L95.0774 72.9637H94.9795L93.608 77.867H92.661Z" fill="#606161"/>
<path d="M105.021 72.9139L104.155 73.1632C104.101 73.0164 104.021 72.8737 103.914 72.7352C103.811 72.5939 103.67 72.4776 103.49 72.3861C103.31 72.2947 103.08 72.249 102.8 72.249C102.416 72.249 102.097 72.3391 101.841 72.5191C101.588 72.6964 101.461 72.9222 101.461 73.1964C101.461 73.4402 101.548 73.6327 101.723 73.774C101.897 73.9153 102.169 74.033 102.539 74.1272L103.47 74.3599C104.03 74.4984 104.448 74.7104 104.723 74.9957C104.997 75.2783 105.135 75.6425 105.135 76.0885C105.135 76.4542 105.031 76.7811 104.825 77.0692C104.621 77.3573 104.335 77.5845 103.967 77.7507C103.6 77.9169 103.173 78 102.686 78C102.046 78 101.517 77.8587 101.098 77.5761C100.679 77.2936 100.414 76.8808 100.302 76.3379L101.216 76.1052C101.303 76.4487 101.468 76.7063 101.71 76.8781C101.955 77.0498 102.275 77.1357 102.669 77.1357C103.118 77.1357 103.475 77.0387 103.739 76.8448C104.006 76.6481 104.139 76.4127 104.139 76.1384C104.139 75.9168 104.063 75.7312 103.91 75.5816C103.758 75.4292 103.524 75.3157 103.208 75.2409L102.163 74.9915C101.589 74.853 101.167 74.6383 100.898 74.3475C100.631 74.0538 100.498 73.6868 100.498 73.2463C100.498 72.8862 100.597 72.5676 100.796 72.2906C100.997 72.0135 101.271 71.7961 101.616 71.6382C101.965 71.4803 102.359 71.4013 102.8 71.4013C103.421 71.4013 103.908 71.5398 104.261 71.8169C104.618 72.0939 104.871 72.4596 105.021 72.9139Z" fill="#606161"/>
<path d="M17.6951 8.62647V0.116349H20.5196C21.1727 0.116349 21.7088 0.229928 22.1278 0.457086C22.5469 0.681474 22.8571 0.990354 23.0585 1.38373C23.2599 1.7771 23.3605 2.22449 23.3605 2.7259C23.3605 3.22731 23.2599 3.67193 23.0585 4.05976C22.8571 4.44759 22.5483 4.75231 22.1319 4.97393C21.7156 5.19278 21.1836 5.3022 20.536 5.3022H18.2502V4.37141H20.5033C20.9496 4.37141 21.3088 4.30492 21.5809 4.17195C21.8557 4.03898 22.0544 3.85061 22.1768 3.60683C22.302 3.36028 22.3646 3.06663 22.3646 2.7259C22.3646 2.38516 22.302 2.08736 22.1768 1.8325C22.0517 1.57764 21.8516 1.38095 21.5768 1.24244C21.302 1.10116 20.9387 1.03052 20.487 1.03052H18.7073V8.62647H17.6951ZM21.6299 4.80356L23.6871 8.62647H22.5115L20.487 4.80356H21.6299Z" fill="#606161"/>
<path d="M27.478 8.75944C26.8739 8.75944 26.3528 8.6237 25.9147 8.35221C25.4793 8.07796 25.1432 7.69567 24.9065 7.20534C24.6725 6.71224 24.5555 6.13881 24.5555 5.48504C24.5555 4.83126 24.6725 4.25506 24.9065 3.75642C25.1432 3.25501 25.4725 2.86441 25.8943 2.58462C26.3188 2.30205 26.814 2.16077 27.38 2.16077C27.7066 2.16077 28.029 2.21618 28.3474 2.32698C28.6658 2.43779 28.9556 2.61786 29.2168 2.86718C29.4781 3.11373 29.6862 3.44061 29.8413 3.84784C29.9964 4.25506 30.074 4.75647 30.074 5.35207V5.7676H25.2412V4.91991H29.0944C29.0944 4.55978 29.0236 4.23844 28.8821 3.95587C28.7433 3.67331 28.5447 3.45031 28.2862 3.28687C28.0304 3.12342 27.7283 3.0417 27.38 3.0417C26.9964 3.0417 26.6644 3.13866 26.3841 3.33257C26.1065 3.52372 25.8929 3.77304 25.7433 4.08053C25.5936 4.38803 25.5188 4.71768 25.5188 5.0695V5.63463C25.5188 6.11665 25.6004 6.52525 25.7637 6.86045C25.9297 7.19288 26.1596 7.44635 26.4535 7.62088C26.7474 7.79263 27.0889 7.87851 27.478 7.87851C27.7311 7.87851 27.9596 7.84249 28.1637 7.77047C28.3705 7.69567 28.5488 7.58486 28.6984 7.43804C28.8481 7.28845 28.9638 7.10284 29.0454 6.88123L29.976 7.14717C29.8781 7.46851 29.7134 7.75108 29.4821 7.99485C29.2508 8.23586 28.9651 8.42424 28.625 8.55998C28.2848 8.69295 27.9025 8.75944 27.478 8.75944Z" fill="#606161"/>
<path d="M34.0863 8.75944C33.4986 8.75944 32.9924 8.61815 32.5679 8.33559C32.1434 8.05303 31.8169 7.66381 31.5883 7.16794C31.3597 6.67208 31.2455 6.10557 31.2455 5.46841C31.2455 4.82018 31.3625 4.24813 31.5965 3.75226C31.8332 3.25362 32.1625 2.86441 32.5843 2.58462C33.0088 2.30205 33.504 2.16077 34.07 2.16077C34.5109 2.16077 34.9081 2.24388 35.2619 2.41009C35.6156 2.5763 35.9054 2.809 36.1313 3.10819C36.3572 3.40737 36.4973 3.75642 36.5517 4.15533H35.5884C35.515 3.86446 35.3517 3.60683 35.0986 3.38244C34.8483 3.15528 34.5109 3.0417 34.0863 3.0417C33.7108 3.0417 33.3816 3.14143 33.0986 3.34089C32.8183 3.53757 32.5992 3.81598 32.4414 4.17611C32.2863 4.53347 32.2087 4.95315 32.2087 5.43517C32.2087 5.92827 32.2849 6.35765 32.4373 6.72332C32.5924 7.08899 32.8101 7.37294 33.0904 7.57517C33.3734 7.77739 33.7054 7.87851 34.0863 7.87851C34.3367 7.87851 34.5639 7.83418 34.768 7.74554C34.9721 7.65689 35.1449 7.52946 35.2864 7.36325C35.4279 7.19703 35.5286 6.99758 35.5884 6.76488H36.5517C36.4973 7.14163 36.3626 7.48098 36.1476 7.78293C35.9354 8.08212 35.6537 8.32036 35.3027 8.49765C34.9544 8.67217 34.5489 8.75944 34.0863 8.75944Z" fill="#606161"/>
<path d="M40.5069 8.75944C39.9409 8.75944 39.4443 8.62231 39.0171 8.34806C38.5926 8.07381 38.2606 7.69013 38.0212 7.19703C37.7844 6.70393 37.666 6.12773 37.666 5.46841C37.666 4.80356 37.7844 4.2232 38.0212 3.72733C38.2606 3.23146 38.5926 2.8464 39.0171 2.57215C39.4443 2.2979 39.9409 2.16077 40.5069 2.16077C41.0729 2.16077 41.5682 2.2979 41.9927 2.57215C42.4199 2.8464 42.7519 3.23146 42.9886 3.72733C43.2281 4.2232 43.3478 4.80356 43.3478 5.46841C43.3478 6.12773 43.2281 6.70393 42.9886 7.19703C42.7519 7.69013 42.4199 8.07381 41.9927 8.34806C41.5682 8.62231 41.0729 8.75944 40.5069 8.75944ZM40.5069 7.87851C40.9369 7.87851 41.2906 7.76631 41.5682 7.54192C41.8457 7.31754 42.0512 7.02251 42.1845 6.65684C42.3179 6.29117 42.3845 5.89503 42.3845 5.46841C42.3845 5.0418 42.3179 4.64427 42.1845 4.27583C42.0512 3.9074 41.8457 3.6096 41.5682 3.38244C41.2906 3.15528 40.9369 3.0417 40.5069 3.0417C40.077 3.0417 39.7232 3.15528 39.4457 3.38244C39.1681 3.6096 38.9627 3.9074 38.8293 4.27583C38.696 4.64427 38.6293 5.0418 38.6293 5.46841C38.6293 5.89503 38.696 6.29117 38.8293 6.65684C38.9627 7.02251 39.1681 7.31754 39.4457 7.54192C39.7232 7.76631 40.077 7.87851 40.5069 7.87851Z" fill="#606161"/>
<path d="M44.8183 8.62647V2.24388H45.7489V3.24116H45.8306C45.9612 2.90042 46.1721 2.63586 46.4632 2.44749C46.7544 2.25634 47.1041 2.16077 47.5122 2.16077C47.9258 2.16077 48.2701 2.25634 48.5449 2.44749C48.8225 2.63586 49.0388 2.90042 49.1939 3.24116H49.2592C49.4198 2.9115 49.6606 2.64972 49.9817 2.4558C50.3028 2.25911 50.6878 2.16077 51.1368 2.16077C51.6974 2.16077 52.1559 2.33945 52.5124 2.69681C52.8688 3.0514 53.0471 3.60406 53.0471 4.35479V8.62647H52.0838V4.35479C52.0838 3.88385 51.9573 3.54727 51.7042 3.34504C51.4511 3.14281 51.1532 3.0417 50.8103 3.0417C50.3695 3.0417 50.028 3.17744 49.7858 3.44892C49.5436 3.71764 49.4225 4.05837 49.4225 4.47114V8.62647H48.4429V4.25506C48.4429 3.89216 48.3272 3.5999 48.0959 3.37828C47.8646 3.1539 47.5667 3.0417 47.202 3.0417C46.9517 3.0417 46.7177 3.10957 46.5 3.24531C46.285 3.38105 46.1108 3.56943 45.9775 3.81044C45.8469 4.04868 45.7816 4.32431 45.7816 4.63735V8.62647H44.8183Z" fill="#606161"/>
<path d="M54.8084 8.62647V2.24388H55.739V3.24116H55.8206C55.9512 2.90042 56.1621 2.63586 56.4533 2.44749C56.7445 2.25634 57.0941 2.16077 57.5023 2.16077C57.9159 2.16077 58.2602 2.25634 58.535 2.44749C58.8126 2.63586 59.0289 2.90042 59.184 3.24116H59.2493C59.4099 2.9115 59.6507 2.64972 59.9718 2.4558C60.2929 2.25911 60.6779 2.16077 61.1269 2.16077C61.6875 2.16077 62.146 2.33945 62.5025 2.69681C62.8589 3.0514 63.0372 3.60406 63.0372 4.35479V8.62647H62.0739V4.35479C62.0739 3.88385 61.9473 3.54727 61.6943 3.34504C61.4412 3.14281 61.1432 3.0417 60.8004 3.0417C60.3595 3.0417 60.018 3.17744 59.7758 3.44892C59.5337 3.71764 59.4126 4.05837 59.4126 4.47114V8.62647H58.4329V4.25506C58.4329 3.89216 58.3173 3.5999 58.086 3.37828C57.8547 3.1539 57.5567 3.0417 57.1921 3.0417C56.9417 3.0417 56.7077 3.10957 56.49 3.24531C56.2751 3.38105 56.1009 3.56943 55.9676 3.81044C55.837 4.04868 55.7717 4.32431 55.7717 4.63735V8.62647H54.8084Z" fill="#606161"/>
<path d="M67.4271 8.75944C66.823 8.75944 66.3019 8.6237 65.8638 8.35221C65.4284 8.07796 65.0923 7.69567 64.8556 7.20534C64.6216 6.71224 64.5045 6.13881 64.5045 5.48504C64.5045 4.83126 64.6216 4.25506 64.8556 3.75642C65.0923 3.25501 65.4216 2.86441 65.8434 2.58462C66.2679 2.30205 66.7631 2.16077 67.3291 2.16077C67.6557 2.16077 67.9781 2.21618 68.2965 2.32698C68.6149 2.43779 68.9047 2.61786 69.1659 2.86718C69.4271 3.11373 69.6353 3.44061 69.7904 3.84784C69.9455 4.25506 70.0231 4.75647 70.0231 5.35207V5.7676H65.1903V4.91991H69.0434C69.0434 4.55978 68.9727 4.23844 68.8312 3.95587C68.6924 3.67331 68.4938 3.45031 68.2353 3.28687C67.9795 3.12342 67.6774 3.0417 67.3291 3.0417C66.9454 3.0417 66.6135 3.13866 66.3332 3.33257C66.0556 3.52372 65.842 3.77304 65.6923 4.08053C65.5427 4.38803 65.4678 4.71768 65.4678 5.0695V5.63463C65.4678 6.11665 65.5495 6.52525 65.7128 6.86045C65.8787 7.19288 66.1087 7.44635 66.4026 7.62088C66.6964 7.79263 67.0379 7.87851 67.4271 7.87851C67.6801 7.87851 67.9087 7.84249 68.1128 7.77047C68.3196 7.69567 68.4979 7.58486 68.6475 7.43804C68.7972 7.28845 68.9128 7.10284 68.9945 6.88123L69.9251 7.14717C69.8272 7.46851 69.6625 7.75108 69.4312 7.99485C69.1999 8.23586 68.9142 8.42424 68.5741 8.55998C68.2339 8.69295 67.8516 8.75944 67.4271 8.75944Z" fill="#606161"/>
<path d="M72.4517 4.78694V8.62647H71.4884V2.24388H72.4191V3.24116H72.5007C72.6476 2.91704 72.8708 2.65664 73.1701 2.45996C73.4694 2.2605 73.8558 2.16077 74.3293 2.16077C74.7538 2.16077 75.1253 2.24942 75.4436 2.42671C75.762 2.60124 76.0096 2.86718 76.1865 3.22454C76.3634 3.57912 76.4518 4.0279 76.4518 4.57086V8.62647H75.4885V4.63735C75.4885 4.13594 75.3606 3.74534 75.1049 3.46555C74.8491 3.18298 74.498 3.0417 74.0518 3.0417C73.7443 3.0417 73.4694 3.10957 73.2272 3.24531C72.9878 3.38105 72.7987 3.57912 72.6599 3.83952C72.5211 4.09993 72.4517 4.41573 72.4517 4.78694Z" fill="#606161"/>
<path d="M80.5795 8.75944C80.057 8.75944 79.5958 8.62508 79.1958 8.35637C78.7958 8.08489 78.4828 7.7026 78.257 7.2095C78.0311 6.71363 77.9182 6.12773 77.9182 5.45179C77.9182 4.7814 78.0311 4.19965 78.257 3.70655C78.4828 3.21346 78.7971 2.83255 79.1999 2.56384C79.6026 2.29513 80.0679 2.16077 80.5958 2.16077C81.004 2.16077 81.3265 2.23003 81.5632 2.36854C81.8027 2.50428 81.985 2.65941 82.1102 2.83394C82.238 3.00569 82.3374 3.14697 82.4081 3.25778H82.4898V0.116349H83.453V8.62647H82.5224V7.64581H82.4081C82.3374 7.76216 82.2367 7.90898 82.1061 8.08627C81.9755 8.2608 81.7891 8.41731 81.5469 8.55582C81.3047 8.69157 80.9822 8.75944 80.5795 8.75944ZM80.7101 7.87851C81.0965 7.87851 81.4231 7.77601 81.6897 7.57101C81.9564 7.36325 82.1591 7.07653 82.2979 6.71086C82.4367 6.34242 82.5061 5.91719 82.5061 5.43517C82.5061 4.95869 82.438 4.54178 82.302 4.18442C82.1659 3.82429 81.9646 3.5445 81.6979 3.34504C81.4312 3.14281 81.102 3.0417 80.7101 3.0417C80.3019 3.0417 79.9618 3.14836 79.6897 3.36166C79.4203 3.5722 79.2176 3.85892 79.0815 4.22182C78.9482 4.58194 78.8815 4.9864 78.8815 5.43517C78.8815 5.88949 78.9495 6.30225 79.0856 6.67346C79.2243 7.0419 79.4285 7.33554 79.6978 7.55439C79.97 7.77047 80.3074 7.87851 80.7101 7.87851Z" fill="#606161"/>
<path d="M87.9797 8.75944C87.3756 8.75944 86.8545 8.6237 86.4164 8.35221C85.981 8.07796 85.6449 7.69567 85.4082 7.20534C85.1742 6.71224 85.0572 6.13881 85.0572 5.48504C85.0572 4.83126 85.1742 4.25506 85.4082 3.75642C85.6449 3.25501 85.9742 2.86441 86.396 2.58462C86.8205 2.30205 87.3157 2.16077 87.8817 2.16077C88.2083 2.16077 88.5307 2.21618 88.8491 2.32698C89.1675 2.43779 89.4573 2.61786 89.7185 2.86718C89.9798 3.11373 90.1879 3.44061 90.343 3.84784C90.4981 4.25506 90.5757 4.75647 90.5757 5.35207V5.7676H85.7429V4.91991H89.5961C89.5961 4.55978 89.5253 4.23844 89.3838 3.95587C89.245 3.67331 89.0464 3.45031 88.7879 3.28687C88.5321 3.12342 88.23 3.0417 87.8817 3.0417C87.4981 3.0417 87.1661 3.13866 86.8858 3.33257C86.6082 3.52372 86.3946 3.77304 86.245 4.08053C86.0953 4.38803 86.0205 4.71768 86.0205 5.0695V5.63463C86.0205 6.11665 86.1021 6.52525 86.2654 6.86045C86.4314 7.19288 86.6613 7.44635 86.9552 7.62088C87.2491 7.79263 87.5906 7.87851 87.9797 7.87851C88.2328 7.87851 88.4613 7.84249 88.6654 7.77047C88.8722 7.69567 89.0505 7.58486 89.2001 7.43804C89.3498 7.28845 89.4655 7.10284 89.5471 6.88123L90.4777 7.14717C90.3798 7.46851 90.2151 7.75108 89.9838 7.99485C89.7525 8.23586 89.4668 8.42424 89.1267 8.55998C88.7865 8.69295 88.4042 8.75944 87.9797 8.75944Z" fill="#606161"/>
<path d="M94.4085 8.75944C93.886 8.75944 93.4248 8.62508 93.0247 8.35637C92.6247 8.08489 92.3118 7.7026 92.0859 7.2095C91.8601 6.71363 91.7472 6.12773 91.7472 5.45179C91.7472 4.7814 91.8601 4.19965 92.0859 3.70655C92.3118 3.21346 92.6261 2.83255 93.0288 2.56384C93.4316 2.29513 93.8969 2.16077 94.4248 2.16077C94.833 2.16077 95.1554 2.23003 95.3922 2.36854C95.6316 2.50428 95.8139 2.65941 95.9391 2.83394C96.067 3.00569 96.1663 3.14697 96.2371 3.25778H96.3187V0.116349H97.282V8.62647H96.3514V7.64581H96.2371C96.1663 7.76216 96.0657 7.90898 95.935 8.08627C95.8044 8.2608 95.618 8.41731 95.3758 8.55582C95.1337 8.69157 94.8112 8.75944 94.4085 8.75944ZM94.5391 7.87851C94.9255 7.87851 95.252 7.77601 95.5187 7.57101C95.7854 7.36325 95.9881 7.07653 96.1269 6.71086C96.2656 6.34242 96.335 5.91719 96.335 5.43517C96.335 4.95869 96.267 4.54178 96.131 4.18442C95.9949 3.82429 95.7935 3.5445 95.5269 3.34504C95.2602 3.14281 94.9309 3.0417 94.5391 3.0417C94.1309 3.0417 93.7907 3.14836 93.5186 3.36166C93.2492 3.5722 93.0465 3.85892 92.9105 4.22182C92.7771 4.58194 92.7105 4.9864 92.7105 5.43517C92.7105 5.88949 92.7785 6.30225 92.9145 6.67346C93.0533 7.0419 93.2574 7.33554 93.5268 7.55439C93.7989 7.77047 94.1363 7.87851 94.5391 7.87851Z" fill="#606161"/>
<path d="M109.597 4.37141C109.597 5.26896 109.437 6.04462 109.119 6.69839C108.801 7.35216 108.364 7.85634 107.809 8.21093C107.254 8.56552 106.62 8.74282 105.907 8.74282C105.194 8.74282 104.56 8.56552 104.005 8.21093C103.45 7.85634 103.013 7.35216 102.694 6.69839C102.376 6.04462 102.217 5.26896 102.217 4.37141C102.217 3.47386 102.376 2.69819 102.694 2.04442C103.013 1.39065 103.45 0.886471 104.005 0.531882C104.56 0.177294 105.194 0 105.907 0C106.62 0 107.254 0.177294 107.809 0.531882C108.364 0.886471 108.801 1.39065 109.119 2.04442C109.437 2.69819 109.597 3.47386 109.597 4.37141ZM108.617 4.37141C108.617 3.63453 108.496 3.01261 108.254 2.50566C108.014 1.99871 107.689 1.61504 107.278 1.35464C106.87 1.09424 106.413 0.964037 105.907 0.964037C105.401 0.964037 104.942 1.09424 104.531 1.35464C104.123 1.61504 103.798 1.99871 103.556 2.50566C103.316 3.01261 103.196 3.63453 103.196 4.37141C103.196 5.10829 103.316 5.7302 103.556 6.23715C103.798 6.7441 104.123 7.12778 104.531 7.38818C104.942 7.64858 105.401 7.77878 105.907 7.77878C106.413 7.77878 106.87 7.64858 107.278 7.38818C107.689 7.12778 108.014 6.7441 108.254 6.23715C108.496 5.7302 108.617 5.10829 108.617 4.37141Z" fill="#606161"/>
<path d="M112.131 4.78694V8.62647H111.168V2.24388H112.099V3.24116H112.18C112.327 2.91704 112.55 2.65664 112.85 2.45996C113.149 2.2605 113.536 2.16077 114.009 2.16077C114.433 2.16077 114.805 2.24942 115.123 2.42671C115.442 2.60124 115.689 2.86718 115.866 3.22454C116.043 3.57912 116.132 4.0279 116.132 4.57086V8.62647H115.168V4.63735C115.168 4.13594 115.04 3.74534 114.785 3.46555C114.529 3.18298 114.178 3.0417 113.731 3.0417C113.424 3.0417 113.149 3.10957 112.907 3.24531C112.667 3.38105 112.478 3.57912 112.34 3.83952C112.201 4.09993 112.131 4.41573 112.131 4.78694Z" fill="#606161"/>
<path d="M38.1482 20.8985H28.9018C28.824 20.8985 28.7493 20.9299 28.6943 20.986C28.6393 21.042 28.6084 21.118 28.6084 21.1972V25.4781H39.3484C39.344 26.121 39.0942 26.7371 38.6517 27.1959C38.2092 27.6547 37.6088 27.9204 36.9774 27.9366H28.6084V33.4572C28.6031 34.1109 28.3469 34.7365 27.8945 35.2004C27.4421 35.6642 26.8295 35.9296 26.1874 35.9397V20.8985C26.1905 20.2395 26.4497 19.6085 26.9082 19.1434C27.3667 18.6783 27.9875 18.4168 28.6348 18.416H40.4547C40.44 19.7633 39.4364 20.8985 38.1482 20.8985Z" fill="#272219"/>
<path d="M45.3846 35.7724C44.0729 35.7724 43.0928 34.5775 43.037 33.2362V18.3353C43.3629 18.3365 43.6853 18.403 43.9859 18.5312C44.2865 18.6593 44.5593 18.8465 44.7888 19.0821C45.0183 19.3176 45.1999 19.5969 45.3233 19.904C45.4466 20.211 45.5093 20.5398 45.5078 20.8716V32.9195C45.5054 32.9602 45.5112 33.001 45.5249 33.0393C45.5385 33.0777 45.5598 33.1128 45.5873 33.1424C45.6148 33.1721 45.6479 33.1957 45.6847 33.2118C45.7215 33.228 45.7612 33.2362 45.8012 33.2362H54.5547C54.8807 33.2373 55.2033 33.3039 55.504 33.432C55.8048 33.5601 56.0778 33.7472 56.3075 33.9827C56.5372 34.2182 56.7191 34.4975 56.8428 34.8046C56.9665 35.1117 57.0296 35.4405 57.0284 35.7724H45.3846Z" fill="#272219"/>
<path d="M62.061 35.9576C61.4107 35.9585 60.7864 35.6983 60.3233 35.2336C59.8602 34.7689 59.5957 34.1371 59.5872 33.4752V18.3084C60.2337 18.3067 60.8551 18.5633 61.3176 19.0231C61.7802 19.4828 62.0471 20.109 62.061 20.767V35.9576Z" fill="#272219"/>
<path d="M78.4938 28.0053C77.2819 28.7462 75.6328 29.1166 73.5992 29.1166H68.6371C68.6252 28.4611 68.8673 27.8271 69.311 27.3519C69.7547 26.8767 70.3644 26.5985 71.0081 26.5774H73.608C75.1809 26.5774 76.4427 26.3145 77.2643 25.8126C77.638 25.6123 77.9464 25.3057 78.1522 24.9302C78.358 24.5548 78.4522 24.1265 78.4234 23.6976C78.4234 23.0105 78.4234 20.9522 73.608 20.9522H68.326C68.2863 20.9502 68.2465 20.9564 68.2092 20.9705C68.1719 20.9846 68.1378 21.0063 68.109 21.0343C68.0801 21.0622 68.0572 21.0958 68.0415 21.1331C68.0259 21.1703 68.0178 21.2104 68.0179 21.251V33.4991C68.0041 34.1568 67.737 34.7826 67.2744 35.2419C66.8117 35.7012 66.1904 35.9571 65.5442 35.9546V20.767C65.5594 20.1416 65.8128 19.5468 66.2508 19.1081C66.6889 18.6694 67.2773 18.4212 67.8917 18.416H73.608C79.9435 18.416 80.8971 21.7021 80.8971 23.6976C80.9257 24.5714 80.7163 25.4362 80.2922 26.1965C79.868 26.9567 79.2457 27.5827 78.4938 28.0053Z" fill="#272219"/>
<path d="M83.4824 35.9576V18.3084C84.1289 18.3067 84.7502 18.5633 85.2128 19.0231C85.6754 19.4828 85.9423 20.109 85.9561 20.767V33.4752C85.9476 34.1371 85.6832 34.7689 85.2201 35.2336C84.757 35.6983 84.1326 35.9585 83.4824 35.9576ZM100.247 35.2467C100.135 35.4256 99.9891 35.58 99.8179 35.7009C99.6467 35.8218 99.4535 35.9067 99.2497 35.9506C99.0458 35.9945 98.8354 35.9967 98.6308 35.9569C98.4261 35.917 98.2313 35.836 98.0578 35.7187L87.3969 28.6387C87.1232 28.448 86.8953 28.197 86.7302 27.9042C86.5651 27.6115 86.467 27.2845 86.4432 26.9478C86.4286 26.617 86.4938 26.2875 86.6329 25.9881C86.772 25.6887 86.9809 25.4285 87.2414 25.2301L97.4415 18.5205C98.1106 18.0724 99.0877 18.3353 99.6042 19.0762C99.7553 19.2981 99.8602 19.5493 99.9123 19.8141L89.2016 26.897L100.479 34.3982C100.475 34.6983 100.391 34.9917 100.235 35.2467H100.247Z" fill="#101010"/>
<path d="M115.817 20.8985H105.362C105.284 20.8985 105.209 20.9299 105.154 20.986C105.099 21.042 105.068 21.118 105.068 21.1972V25.4781H116.348C116.334 26.122 116.078 26.736 115.632 27.1935C115.187 27.6509 114.586 27.9169 113.954 27.9366H105.077V33.0151C105.077 33.0943 105.108 33.1703 105.163 33.2263C105.218 33.2824 105.293 33.3138 105.37 33.3138H115.347C115.996 33.3176 116.618 33.5792 117.08 34.043C117.542 34.5067 117.808 35.1359 117.821 35.7963H105.13C104.479 35.7972 103.855 35.537 103.392 35.0723C102.929 34.6076 102.665 33.9758 102.656 33.3138V20.8985C102.658 20.2392 102.917 19.6078 103.376 19.1425C103.835 18.6772 104.456 18.416 105.103 18.416H118.132C118.109 19.7633 117.102 20.8985 115.817 20.8985Z" fill="#101010"/>
<path d="M130.932 30.1443V35.9576H130.83C130.206 35.9455 129.611 35.6885 129.169 35.2403C128.727 34.7922 128.473 34.1876 128.459 33.5528V30.0935L119.808 18.8641C120.838 18.0456 122.355 18.0963 123.156 19.1001L129.72 27.6349L136.302 19.127C137.1 18.0963 138.621 18.0456 139.65 18.8641H139.677L130.932 30.1443Z" fill="#101010"/>
<path d="M142.964 17.9261C143.314 17.9282 143.658 18.0207 143.964 18.1949C144.287 18.3686 144.553 18.6357 144.727 18.9627C144.906 19.279 145 19.6374 145 20.0023C145 20.3639 144.907 20.7192 144.73 21.0329C144.558 21.3572 144.297 21.6238 143.979 21.8006C143.669 21.9798 143.319 22.0739 142.964 22.0739C142.608 22.0739 142.258 21.9798 141.948 21.8006C141.63 21.6232 141.368 21.3568 141.194 21.0329C141.019 20.7186 140.926 20.3637 140.924 20.0023C140.925 19.6372 141.02 19.2787 141.2 18.9627C141.374 18.6357 141.64 18.3686 141.963 18.1949C142.269 18.0207 142.613 17.9282 142.964 17.9261ZM142.964 18.2696C142.671 18.2711 142.383 18.3481 142.127 18.4936C141.86 18.6408 141.639 18.8625 141.49 19.1329C141.341 19.3959 141.263 19.6942 141.263 19.9978C141.263 20.3014 141.341 20.5997 141.49 20.8626C141.637 21.1321 141.856 21.3537 142.121 21.5019C142.378 21.6526 142.67 21.732 142.966 21.732C143.263 21.732 143.555 21.6526 143.812 21.5019C144.077 21.3537 144.296 21.1321 144.442 20.8626C144.587 20.5995 144.663 20.3036 144.665 20.0023C144.665 19.6972 144.586 19.3976 144.437 19.1329C144.29 18.8612 144.069 18.639 143.8 18.4936C143.544 18.348 143.256 18.2709 142.964 18.2696ZM142.068 21.1494V18.9149H142.823C143.012 18.9062 143.201 18.9274 143.383 18.9776C143.495 19.0179 143.592 19.0932 143.659 19.1927C143.734 19.3072 143.768 19.4447 143.756 19.5819C143.743 19.7191 143.684 19.8475 143.589 19.9455C143.468 20.0705 143.306 20.1441 143.134 20.1516C143.202 20.1779 143.265 20.2175 143.319 20.2681C143.442 20.4031 143.552 20.5514 143.644 20.7103L143.911 21.1494H143.48L143.283 20.7969C143.194 20.6014 143.068 20.425 142.914 20.2771C142.827 20.2178 142.724 20.1904 142.62 20.1994H142.412V21.1494H142.068ZM142.424 19.8917H142.852C142.998 19.9059 143.145 19.8735 143.272 19.7991C143.332 19.7492 143.372 19.6776 143.383 19.5988C143.394 19.5201 143.375 19.44 143.33 19.3749C143.294 19.3204 143.241 19.2787 143.181 19.2554C143.065 19.2254 142.945 19.2133 142.826 19.2196H142.424V19.8917Z" fill="#101010"/>
<path d="M15.9639 19.0762V17.8514C15.9639 17.749 15.9837 17.6476 16.0222 17.553C16.0606 17.4584 16.1171 17.3724 16.1882 17.3C16.2593 17.2276 16.3437 17.1702 16.4367 17.131C16.5296 17.0918 16.6292 17.0717 16.7297 17.0717H18.2322C18.3328 17.0717 18.4324 17.0918 18.5253 17.131C18.6182 17.1702 18.7026 17.2276 18.7737 17.3C18.8449 17.3724 18.9013 17.4584 18.9398 17.553C18.9783 17.6476 18.9981 17.749 18.9981 17.8514V20.6236" fill="#101010"/>
<path d="M11.9818 18.5773C11.7946 18.4574 11.578 18.3938 11.3568 18.3938C11.1356 18.3938 10.919 18.4574 10.7318 18.5773L3.71257 23.6916V29.965C3.71335 30.4822 3.91548 30.9779 4.27467 31.3435C4.63385 31.7092 5.12079 31.915 5.62876 31.9158H8.38126V33.8904H9.91304V35.5753L8.89186 36.9494L10.5469 38.2131L9.01217 39.3035V41.4603L9.79273 42.6762V44.7344L9.11194 46.1713L11.1308 48.5015H12.4455L14.2296 46.479V31.9128H17.1024C17.6104 31.912 18.0973 31.7062 18.4565 31.3405C18.8157 30.9749 19.0178 30.4792 19.0186 29.962V23.6886L11.9818 18.5773ZM8.61895 27.5244C8.61973 27.0704 8.79703 26.6351 9.11211 26.3138C9.42719 25.9925 9.85441 25.8112 10.3004 25.8096H12.3545C12.7927 25.8079 13.2141 25.9807 13.5288 26.291C13.8436 26.6014 14.0266 27.0247 14.0389 27.4706V30.5446H8.61895V27.5244Z" fill="#101010"/>
<path d="M21.6948 23.9605C21.4648 23.9611 21.2403 23.8891 21.0522 23.7544L12.0875 17.4122C11.8758 17.2919 11.6374 17.2287 11.3949 17.2287C11.1525 17.2287 10.9141 17.2919 10.7024 17.4122L1.81105 23.7544C1.69044 23.8482 1.55245 23.9163 1.40536 23.9544C1.25827 23.9926 1.10511 24.0002 0.95508 23.9767C0.805052 23.9531 0.661246 23.8989 0.532293 23.8174C0.40334 23.7358 0.291899 23.6286 0.20466 23.5022C0.117422 23.3757 0.0561849 23.2326 0.0246237 23.0814C-0.00693743 22.9303 -0.00817175 22.7742 0.0209958 22.6225C0.0501633 22.4708 0.10913 22.3267 0.194358 22.1989C0.279586 22.071 0.389318 21.9619 0.516965 21.8783L9.38484 15.5541C9.98168 15.1569 10.6736 14.9328 11.3861 14.9059C12.104 14.934 12.8012 15.1579 13.405 15.5541L22.3375 21.8753C22.5354 22.0144 22.6844 22.2143 22.7627 22.4458C22.841 22.6773 22.8445 22.9282 22.7727 23.1618C22.7009 23.3955 22.5575 23.5996 22.3636 23.7444C22.1696 23.8892 21.9353 23.967 21.6948 23.9665V23.9605Z" fill="#101010"/>
</g>
</svg>
