<svg width="126" height="135" viewBox="0 0 126 135" fill="none" xmlns="http://www.w3.org/2000/svg">
<g id="Vector">
<path d="M25.596 74.4542V67.6676H26.4221V71.0344H26.5021L29.5668 67.6676H30.6462L27.7813 70.7295L30.6462 74.4542H29.6468L27.2749 71.2995L26.4221 72.2539V74.4542H25.596Z" fill="#272219"/>
<path d="M33.3786 74.5603C32.8856 74.5603 32.4603 74.452 32.1028 74.2355C31.7474 74.0168 31.4731 73.7119 31.2799 73.3209C31.0889 72.9277 30.9934 72.4704 30.9934 71.949C30.9934 71.4276 31.0889 70.9681 31.2799 70.5705C31.4731 70.1706 31.7419 69.8591 32.0861 69.636C32.4326 69.4106 32.8367 69.298 33.2987 69.298C33.5652 69.298 33.8284 69.3421 34.0882 69.4305C34.348 69.5189 34.5845 69.6625 34.7977 69.8613C35.0109 70.0579 35.1808 70.3186 35.3074 70.6434C35.434 70.9681 35.4973 71.368 35.4973 71.843V72.1743H31.5531V71.4983H34.6978C34.6978 71.2111 34.6401 70.9549 34.5246 70.7295C34.4113 70.5042 34.2492 70.3263 34.0382 70.196C33.8295 70.0657 33.5829 70.0005 33.2987 70.0005C32.9855 70.0005 32.7146 70.0778 32.4859 70.2325C32.2593 70.3849 32.085 70.5837 31.9628 70.8289C31.8407 71.0742 31.7796 71.3371 31.7796 71.6176V72.0683C31.7796 72.4527 31.8462 72.7786 31.9795 73.0459C32.115 73.311 32.3026 73.5131 32.5425 73.6523C32.7823 73.7893 33.0611 73.8577 33.3786 73.8577C33.5852 73.8577 33.7717 73.829 33.9383 73.7716C34.1071 73.7119 34.2525 73.6236 34.3747 73.5065C34.4968 73.3872 34.5912 73.2392 34.6578 73.0624L35.4174 73.2745C35.3374 73.5308 35.2031 73.7561 35.0143 73.9505C34.8255 74.1427 34.5923 74.293 34.3147 74.4012C34.0371 74.5073 33.7251 74.5603 33.3786 74.5603Z" fill="#272219"/>
<path d="M37.0438 76.363C36.9106 76.363 36.7918 76.3519 36.6874 76.3298C36.583 76.31 36.5108 76.2901 36.4709 76.2702L36.6707 75.5809C36.8617 75.6295 37.0305 75.6472 37.1771 75.6339C37.3237 75.6207 37.4536 75.5555 37.5669 75.4384C37.6823 75.3236 37.7878 75.1369 37.8833 74.8784L38.0299 74.4807L36.1377 69.3642H36.9906L38.403 73.4203H38.4563L39.8688 69.3642H40.7216L38.5496 75.1965C38.4519 75.4594 38.3308 75.677 38.1865 75.8493C38.0421 76.0239 37.8744 76.1531 37.6835 76.2371C37.4947 76.321 37.2815 76.363 37.0438 76.363Z" fill="#272219"/>
<path d="M50.2606 71.0609C50.2606 71.7767 50.1307 72.3953 49.8709 72.9166C49.611 73.438 49.2546 73.8401 48.8015 74.1229C48.3485 74.4056 47.831 74.547 47.2492 74.547C46.6673 74.547 46.1499 74.4056 45.6968 74.1229C45.2438 73.8401 44.8873 73.438 44.6275 72.9166C44.3676 72.3953 44.2377 71.7767 44.2377 71.0609C44.2377 70.3451 44.3676 69.7265 44.6275 69.2052C44.8873 68.6838 45.2438 68.2817 45.6968 67.999C46.1499 67.7162 46.6673 67.5748 47.2492 67.5748C47.831 67.5748 48.3485 67.7162 48.8015 67.999C49.2546 68.2817 49.611 68.6838 49.8709 69.2052C50.1307 69.7265 50.2606 70.3451 50.2606 71.0609ZM49.4611 71.0609C49.4611 70.4733 49.3623 69.9773 49.1646 69.573C48.9692 69.1687 48.7038 68.8628 48.3685 68.6551C48.0354 68.4474 47.6623 68.3436 47.2492 68.3436C46.8361 68.3436 46.4619 68.4474 46.1265 68.6551C45.7934 68.8628 45.528 69.1687 45.3304 69.573C45.1349 69.9773 45.0372 70.4733 45.0372 71.0609C45.0372 71.6486 45.1349 72.1445 45.3304 72.5488C45.528 72.9531 45.7934 73.2591 46.1265 73.4667C46.4619 73.6744 46.8361 73.7782 47.2492 73.7782C47.6623 73.7782 48.0354 73.6744 48.3685 73.4667C48.7038 73.2591 48.9692 72.9531 49.1646 72.5488C49.3623 72.1445 49.4611 71.6486 49.4611 71.0609Z" fill="#272219"/>
<path d="M52.3293 71.3923V74.4542H51.5432V69.3642H52.3027V70.1596H52.3693C52.4893 69.9011 52.6714 69.6934 52.9157 69.5366C53.1599 69.3775 53.4753 69.298 53.8617 69.298C54.2082 69.298 54.5113 69.3687 54.7712 69.51C55.031 69.6492 55.2331 69.8613 55.3775 70.1463C55.5218 70.4291 55.594 70.787 55.594 71.22V74.4542H54.8078V71.273C54.8078 70.8731 54.7034 70.5616 54.4947 70.3385C54.2859 70.1132 53.9994 70.0005 53.6352 70.0005C53.3842 70.0005 53.1599 70.0546 52.9623 70.1629C52.7669 70.2711 52.6125 70.4291 52.4992 70.6367C52.386 70.8444 52.3293 71.0963 52.3293 71.3923Z" fill="#272219"/>
<path d="M59.1759 74.5603C58.6829 74.5603 58.2576 74.452 57.9001 74.2355C57.5447 74.0168 57.2704 73.7119 57.0772 73.3209C56.8862 72.9277 56.7907 72.4704 56.7907 71.949C56.7907 71.4276 56.8862 70.9681 57.0772 70.5705C57.2704 70.1706 57.5392 69.8591 57.8834 69.636C58.2298 69.4106 58.634 69.298 59.096 69.298C59.3625 69.298 59.6256 69.3421 59.8855 69.4305C60.1453 69.5189 60.3818 69.6625 60.595 69.8613C60.8082 70.0579 60.9781 70.3186 61.1047 70.6434C61.2313 70.9681 61.2946 71.368 61.2946 71.843V72.1743H57.3504V71.4983H60.4951C60.4951 71.2111 60.4374 70.9549 60.3219 70.7295C60.2086 70.5042 60.0465 70.3263 59.8355 70.196C59.6268 70.0657 59.3802 70.0005 59.096 70.0005C58.7828 70.0005 58.5119 70.0778 58.2831 70.2325C58.0566 70.3849 57.8823 70.5837 57.7601 70.8289C57.638 71.0742 57.5769 71.3371 57.5769 71.6176V72.0683C57.5769 72.4527 57.6435 72.7786 57.7768 73.0459C57.9123 73.311 58.0999 73.5131 58.3398 73.6523C58.5796 73.7893 58.8583 73.8577 59.1759 73.8577C59.3825 73.8577 59.569 73.829 59.7356 73.7716C59.9044 73.7119 60.0498 73.6236 60.172 73.5065C60.2941 73.3872 60.3885 73.2392 60.4551 73.0624L61.2147 73.2745C61.1347 73.5308 61.0003 73.7561 60.8116 73.9505C60.6228 74.1427 60.3896 74.293 60.112 74.4012C59.8344 74.5073 59.5224 74.5603 59.1759 74.5603Z" fill="#272219"/>
<path d="M65.2355 74.4542V67.6676H66.0616V70.6898H69.6994V67.6676H70.5255V74.4542H69.6994V71.4188H66.0616V74.4542H65.2355Z" fill="#272219"/>
<path d="M74.1516 74.5603C73.6897 74.5603 73.2844 74.4509 72.9357 74.2322C72.5892 74.0135 72.3183 73.7075 72.1229 73.3143C71.9297 72.9211 71.8331 72.4615 71.8331 71.9357C71.8331 71.4055 71.9297 70.9427 72.1229 70.5473C72.3183 70.1518 72.5892 69.8447 72.9357 69.626C73.2844 69.4073 73.6897 69.298 74.1516 69.298C74.6135 69.298 75.0177 69.4073 75.3642 69.626C75.7129 69.8447 75.9838 70.1518 76.177 70.5473C76.3725 70.9427 76.4702 71.4055 76.4702 71.9357C76.4702 72.4615 76.3725 72.9211 76.177 73.3143C75.9838 73.7075 75.7129 74.0135 75.3642 74.2322C75.0177 74.4509 74.6135 74.5603 74.1516 74.5603ZM74.1516 73.8577C74.5025 73.8577 74.7912 73.7683 75.0177 73.5893C75.2443 73.4104 75.4119 73.1751 75.5208 72.8835C75.6296 72.5919 75.684 72.276 75.684 71.9357C75.684 71.5955 75.6296 71.2785 75.5208 70.9847C75.4119 70.6909 75.2443 70.4534 75.0177 70.2722C74.7912 70.0911 74.5025 70.0005 74.1516 70.0005C73.8007 70.0005 73.512 70.0911 73.2855 70.2722C73.059 70.4534 72.8913 70.6909 72.7825 70.9847C72.6736 71.2785 72.6192 71.5955 72.6192 71.9357C72.6192 72.276 72.6736 72.5919 72.7825 72.8835C72.8913 73.1751 73.059 73.4104 73.2855 73.5893C73.512 73.7683 73.8007 73.8577 74.1516 73.8577Z" fill="#272219"/>
<path d="M77.6703 74.4542V69.3642H78.4298V70.1596H78.4964C78.603 69.8878 78.7751 69.6768 79.0128 69.5266C79.2504 69.3742 79.5358 69.298 79.8689 69.298C80.2065 69.298 80.4874 69.3742 80.7117 69.5266C80.9382 69.6768 81.1148 69.8878 81.2414 70.1596H81.2947C81.4257 69.8967 81.6222 69.6879 81.8843 69.5332C82.1464 69.3764 82.4606 69.298 82.8271 69.298C83.2845 69.298 83.6588 69.4405 83.9497 69.7254C84.2406 70.0082 84.3861 70.449 84.3861 71.0476V74.4542H83.5999V71.0476C83.5999 70.6721 83.4966 70.4037 83.2901 70.2424C83.0836 70.0811 82.8404 70.0005 82.5606 70.0005C82.2008 70.0005 81.9221 70.1087 81.7244 70.3252C81.5268 70.5395 81.4279 70.8113 81.4279 71.1404V74.4542H80.6284V70.9681C80.6284 70.6787 80.534 70.4456 80.3453 70.2689C80.1565 70.09 79.9133 70.0005 79.6157 70.0005C79.4114 70.0005 79.2204 70.0546 79.0427 70.1629C78.8673 70.2711 78.7252 70.4213 78.6163 70.6135C78.5097 70.8035 78.4564 71.0233 78.4564 71.273V74.4542H77.6703Z" fill="#272219"/>
<path d="M87.9689 74.5603C87.4758 74.5603 87.0505 74.452 86.693 74.2355C86.3376 74.0168 86.0634 73.7119 85.8702 73.3209C85.6792 72.9277 85.5837 72.4704 85.5837 71.949C85.5837 71.4276 85.6792 70.9681 85.8702 70.5705C86.0634 70.1706 86.3321 69.8591 86.6763 69.636C87.0228 69.4106 87.427 69.298 87.8889 69.298C88.1554 69.298 88.4186 69.3421 88.6784 69.4305C88.9383 69.5189 89.1748 69.6625 89.388 69.8613C89.6012 70.0579 89.7711 70.3186 89.8977 70.6434C90.0243 70.9681 90.0875 71.368 90.0875 71.843V72.1743H86.1433V71.4983H89.288C89.288 71.2111 89.2303 70.9549 89.1148 70.7295C89.0015 70.5042 88.8394 70.3263 88.6284 70.196C88.4197 70.0657 88.1732 70.0005 87.8889 70.0005C87.5758 70.0005 87.3048 70.0778 87.0761 70.2325C86.8496 70.3849 86.6752 70.5837 86.5531 70.8289C86.4309 71.0742 86.3699 71.3371 86.3699 71.6176V72.0683C86.3699 72.4527 86.4365 72.7786 86.5697 73.0459C86.7052 73.311 86.8929 73.5131 87.1327 73.6523C87.3726 73.7893 87.6513 73.8577 87.9689 73.8577C88.1754 73.8577 88.3619 73.829 88.5285 73.7716C88.6973 73.7119 88.8428 73.6236 88.9649 73.5065C89.0871 73.3872 89.1814 73.2392 89.2481 73.0624L90.0076 73.2745C89.9276 73.5308 89.7933 73.7561 89.6045 73.9505C89.4157 74.1427 89.1825 74.293 88.9049 74.4012C88.6273 74.5073 88.3153 74.5603 87.9689 74.5603Z" fill="#272219"/>
<path d="M94.9079 70.5042L94.2016 70.703C94.1572 70.5859 94.0917 70.4722 94.0051 70.3617C93.9207 70.249 93.8052 70.1562 93.6587 70.0833C93.5121 70.0104 93.3244 69.974 93.0957 69.974C92.7825 69.974 92.5216 70.0458 92.3128 70.1894C92.1063 70.3308 92.003 70.5108 92.003 70.7295C92.003 70.9239 92.0741 71.0775 92.2162 71.1901C92.3583 71.3028 92.5804 71.3967 92.8825 71.4718L93.642 71.6574C94.0995 71.7678 94.4404 71.9369 94.6647 72.1644C94.889 72.3897 95.0012 72.6803 95.0012 73.0359C95.0012 73.3275 94.9168 73.5882 94.748 73.818C94.5814 74.0477 94.3482 74.2289 94.0484 74.3615C93.7486 74.494 93.3999 74.5603 93.0024 74.5603C92.4805 74.5603 92.0485 74.4476 91.7065 74.2223C91.3645 73.9969 91.148 73.6678 91.0569 73.2348L91.8031 73.0492C91.8742 73.3231 92.0086 73.5286 92.2062 73.6656C92.4061 73.8025 92.6671 73.871 92.9891 73.871C93.3555 73.871 93.6464 73.7937 93.8619 73.639C94.0795 73.4822 94.1883 73.2944 94.1883 73.0757C94.1883 72.899 94.1261 72.7509 94.0018 72.6316C93.8774 72.5101 93.6864 72.4196 93.4288 72.3599L92.576 72.1611C92.1074 72.0506 91.7632 71.8794 91.5433 71.6474C91.3257 71.4133 91.2168 71.1206 91.2168 70.7693C91.2168 70.4821 91.2979 70.228 91.46 70.0071C91.6244 69.7862 91.8476 69.6128 92.1296 69.4869C92.4139 69.3609 92.7359 69.298 93.0957 69.298C93.602 69.298 93.9995 69.4084 94.2883 69.6293C94.5792 69.8503 94.7857 70.1419 94.9079 70.5042Z" fill="#272219"/>
<path d="M26.8049 65.1784V58.407H29.1049C29.6367 58.407 30.0733 58.4974 30.4145 58.6781C30.7558 58.8567 31.0084 59.1024 31.1723 59.4155C31.3363 59.7285 31.4183 60.0844 31.4183 60.4834C31.4183 60.8824 31.3363 61.2362 31.1723 61.5447C31.0084 61.8533 30.7569 62.0958 30.4178 62.2721C30.0788 62.4463 29.6456 62.5333 29.1182 62.5333H27.2569V61.7927H29.0916C29.455 61.7927 29.7475 61.7398 29.9691 61.634C30.1929 61.5282 30.3547 61.3783 30.4544 61.1844C30.5563 60.9882 30.6073 60.7545 30.6073 60.4834C30.6073 60.2123 30.5563 59.9753 30.4544 59.7725C30.3525 59.5697 30.1896 59.4132 29.9658 59.303C29.742 59.1906 29.4462 59.1344 29.0784 59.1344H27.6292V65.1784H26.8049ZM30.009 62.1366L31.6842 65.1784H30.727L29.0784 62.1366H30.009Z" fill="#272219"/>
<path d="M34.1878 65.2975C33.8643 65.2975 33.5707 65.2368 33.307 65.1156C33.0434 64.9922 32.834 64.8147 32.6788 64.5833C32.5237 64.3496 32.4462 64.0675 32.4462 63.7369C32.4462 63.4459 32.5038 63.21 32.619 63.0293C32.7342 62.8463 32.8882 62.7031 33.081 62.5995C33.2738 62.4959 33.4865 62.4187 33.7192 62.368C33.9541 62.3151 34.1901 62.2733 34.4272 62.2424C34.7374 62.2027 34.9889 62.173 35.1817 62.1531C35.3766 62.1311 35.5185 62.0947 35.6071 62.044C35.6979 61.9933 35.7434 61.9051 35.7434 61.7795V61.753C35.7434 61.4268 35.6536 61.1733 35.4741 60.9926C35.2969 60.8118 35.0276 60.7215 34.6665 60.7215C34.292 60.7215 33.9984 60.803 33.7857 60.9661C33.5729 61.1292 33.4234 61.3034 33.337 61.4885L32.5924 61.224C32.7254 60.9154 32.9026 60.6752 33.1242 60.5032C33.348 60.3291 33.5918 60.2079 33.8555 60.1395C34.1214 60.069 34.3828 60.0337 34.6399 60.0337C34.8038 60.0337 34.9922 60.0536 35.2049 60.0933C35.4199 60.1307 35.627 60.209 35.8265 60.328C36.0281 60.447 36.1954 60.6267 36.3284 60.8669C36.4613 61.1072 36.5278 61.429 36.5278 61.8324V65.1784H35.7434V64.4907H35.7035C35.6503 64.6009 35.5617 64.7189 35.4376 64.8445C35.3135 64.9701 35.1484 65.077 34.9423 65.1652C34.7363 65.2534 34.4848 65.2975 34.1878 65.2975ZM34.3075 64.5965C34.6177 64.5965 34.8792 64.5359 35.0919 64.4147C35.3068 64.2934 35.4686 64.1369 35.5772 63.9452C35.688 63.7534 35.7434 63.5517 35.7434 63.3401V62.6259C35.7101 62.6656 35.637 62.702 35.524 62.735C35.4132 62.7659 35.2847 62.7934 35.1384 62.8177C34.9944 62.8397 34.8537 62.8596 34.7163 62.8772C34.5812 62.8926 34.4715 62.9059 34.3873 62.9169C34.1834 62.9433 33.9928 62.9863 33.8156 63.0458C33.6405 63.1031 33.4987 63.1902 33.3901 63.307C33.2838 63.4217 33.2306 63.5782 33.2306 63.7765C33.2306 64.0477 33.3314 64.2527 33.5331 64.3915C33.7369 64.5282 33.9951 64.5965 34.3075 64.5965Z" fill="#272219"/>
<path d="M40.1798 60.0999V60.7611H37.5341V60.0999H40.1798ZM38.3052 58.8831H39.0896V63.7236C39.0896 63.9441 39.1217 64.1094 39.186 64.2196C39.2525 64.3276 39.3367 64.4003 39.4386 64.4378C39.5427 64.4731 39.6524 64.4907 39.7676 64.4907C39.8541 64.4907 39.925 64.4863 39.9804 64.4775C40.0358 64.4665 40.0801 64.4576 40.1133 64.451L40.2729 65.152C40.2197 65.1718 40.1454 65.1917 40.0502 65.2115C39.9549 65.2335 39.8341 65.2446 39.6879 65.2446C39.4663 65.2446 39.2491 65.1972 39.0364 65.1024C38.8259 65.0076 38.6509 64.8632 38.5112 64.6693C38.3739 64.4753 38.3052 64.2306 38.3052 63.9352V58.8831Z" fill="#272219"/>
<path d="M43.4454 65.2842C42.9535 65.2842 42.5292 65.1762 42.1724 64.9602C41.8179 64.742 41.5442 64.4378 41.3514 64.0477C41.1609 63.6553 41.0656 63.199 41.0656 62.6788C41.0656 62.1586 41.1609 61.7001 41.3514 61.3034C41.5442 60.9044 41.8123 60.5936 42.1558 60.371C42.5015 60.1462 42.9047 60.0337 43.3656 60.0337C43.6315 60.0337 43.8941 60.0778 44.1534 60.166C44.4126 60.2542 44.6486 60.3974 44.8613 60.5958C45.0741 60.792 45.2436 61.0521 45.3699 61.3761C45.4962 61.7001 45.5593 62.0991 45.5593 62.573V62.9037H41.624V62.2292H44.7616C44.7616 61.9426 44.704 61.6869 44.5888 61.4621C44.4758 61.2373 44.314 61.0598 44.1035 60.9298C43.8952 60.7997 43.6493 60.7347 43.3656 60.7347C43.0532 60.7347 42.7829 60.8118 42.5546 60.9661C42.3286 61.1182 42.1547 61.3166 42.0328 61.5613C41.9109 61.806 41.85 62.0683 41.85 62.3482V62.7979C41.85 63.1814 41.9165 63.5065 42.0494 63.7732C42.1846 64.0377 42.3718 64.2394 42.6111 64.3783C42.8505 64.515 43.1285 64.5833 43.4454 64.5833C43.6515 64.5833 43.8376 64.5546 44.0038 64.4973C44.1722 64.4378 44.3174 64.3496 44.4392 64.2328C44.5611 64.1138 44.6553 63.9661 44.7217 63.7898L45.4796 64.0014C45.3998 64.2571 45.2657 64.4819 45.0774 64.6759C44.889 64.8676 44.6564 65.0175 44.3794 65.1255C44.1024 65.2313 43.7911 65.2842 43.4454 65.2842Z" fill="#272219"/>
<path d="M48.6804 65.2842C48.2549 65.2842 47.8793 65.1773 47.5536 64.9635C47.2279 64.7475 46.9731 64.4433 46.7891 64.051C46.6052 63.6564 46.5133 63.1902 46.5133 62.6524C46.5133 62.1189 46.6052 61.6561 46.7891 61.2637C46.9731 60.8713 47.229 60.5683 47.5569 60.3545C47.8849 60.1406 48.2638 60.0337 48.6937 60.0337C49.026 60.0337 49.2886 60.0888 49.4814 60.1991C49.6764 60.3071 49.8249 60.4305 49.9268 60.5694C50.0309 60.706 50.1118 60.8184 50.1694 60.9066H50.2359V58.407H51.0203V65.1784H50.2625V64.3981H50.1694C50.1118 64.4907 50.0298 64.6075 49.9235 64.7486C49.8171 64.8875 49.6653 65.012 49.4681 65.1222C49.2709 65.2302 49.0083 65.2842 48.6804 65.2842ZM48.7867 64.5833C49.1014 64.5833 49.3673 64.5017 49.5844 64.3386C49.8016 64.1733 49.9667 63.9452 50.0797 63.6542C50.1927 63.361 50.2492 63.0227 50.2492 62.6392C50.2492 62.26 50.1938 61.9283 50.083 61.6439C49.9722 61.3574 49.8082 61.1348 49.5911 60.9761C49.3739 60.8151 49.1058 60.7347 48.7867 60.7347C48.4544 60.7347 48.1774 60.8196 47.9558 60.9893C47.7364 61.1568 47.5713 61.3849 47.4605 61.6737C47.352 61.9602 47.2977 62.2821 47.2977 62.6392C47.2977 63.0006 47.3531 63.3291 47.4639 63.6244C47.5769 63.9176 47.7431 64.1513 47.9624 64.3254C48.184 64.4973 48.4588 64.5833 48.7867 64.5833Z" fill="#272219"/>
<path d="M55.3047 65.1784V58.407H59.4129V59.1344H56.129V61.4224H59.2002V62.1498H56.129V64.451H59.4661V65.1784H55.3047Z" fill="#272219"/>
<path d="M61.3772 60.0999L62.6004 62.1763L63.8235 60.0999H64.7276L63.079 62.6392L64.7276 65.1784H63.8235L62.6004 63.2078L61.3772 65.1784H60.4732L62.0952 62.6392L60.4732 60.0999H61.3772Z" fill="#272219"/>
<path d="M67.7107 65.2842C67.2321 65.2842 66.8199 65.1718 66.4743 64.947C66.1286 64.7222 65.8627 64.4125 65.6765 64.0179C65.4904 63.6233 65.3973 63.1726 65.3973 62.6656C65.3973 62.1498 65.4926 61.6946 65.6832 61.3001C65.876 60.9033 66.1441 60.5936 66.4875 60.371C66.8332 60.1462 67.2365 60.0337 67.6974 60.0337C68.0564 60.0337 68.3799 60.0999 68.668 60.2321C68.956 60.3644 69.192 60.5495 69.3759 60.7876C69.5598 61.0257 69.674 61.3034 69.7183 61.6208H68.9339C68.874 61.3893 68.7411 61.1844 68.535 61.0058C68.3311 60.8251 68.0564 60.7347 67.7107 60.7347C67.4049 60.7347 67.1368 60.814 66.9063 60.9727C66.6781 61.1292 66.4997 61.3508 66.3712 61.6373C66.2449 61.9217 66.1818 62.2556 66.1818 62.6392C66.1818 63.0315 66.2438 63.3732 66.3679 63.6641C66.4942 63.9551 66.6715 64.181 66.8997 64.3419C67.1301 64.5028 67.4005 64.5833 67.7107 64.5833C67.9146 64.5833 68.0996 64.548 68.2658 64.4775C68.432 64.407 68.5727 64.3056 68.6879 64.1733C68.8031 64.041 68.8851 63.8823 68.9339 63.6972H69.7183C69.674 63.997 69.5643 64.267 69.3892 64.5072C69.2164 64.7453 68.987 64.9349 68.7012 65.0759C68.4176 65.2148 68.0874 65.2842 67.7107 65.2842Z" fill="#272219"/>
<path d="M73.0055 65.2842C72.5136 65.2842 72.0892 65.1762 71.7325 64.9602C71.3779 64.742 71.1043 64.4378 70.9115 64.0477C70.7209 63.6553 70.6257 63.199 70.6257 62.6788C70.6257 62.1586 70.7209 61.7001 70.9115 61.3034C71.1043 60.9044 71.3724 60.5936 71.7159 60.371C72.0615 60.1462 72.4648 60.0337 72.9257 60.0337C73.1916 60.0337 73.4542 60.0778 73.7135 60.166C73.9727 60.2542 74.2087 60.3974 74.4214 60.5958C74.6341 60.792 74.8037 61.0521 74.93 61.3761C75.0563 61.7001 75.1194 62.0991 75.1194 62.573V62.9037H71.1841V62.2292H74.3217C74.3217 61.9426 74.2641 61.6869 74.1489 61.4621C74.0359 61.2373 73.8741 61.0598 73.6636 60.9298C73.4553 60.7997 73.2094 60.7347 72.9257 60.7347C72.6133 60.7347 72.3429 60.8118 72.1147 60.9661C71.8887 61.1182 71.7148 61.3166 71.5929 61.5613C71.471 61.806 71.4101 62.0683 71.4101 62.3482V62.7979C71.4101 63.1814 71.4765 63.5065 71.6095 63.7732C71.7447 64.0377 71.9319 64.2394 72.1712 64.3783C72.4105 64.515 72.6886 64.5833 73.0055 64.5833C73.2116 64.5833 73.3977 64.5546 73.5639 64.4973C73.7323 64.4378 73.8774 64.3496 73.9993 64.2328C74.1212 64.1138 74.2153 63.9661 74.2818 63.7898L75.0396 64.0014C74.9599 64.2571 74.8258 64.4819 74.6375 64.6759C74.4491 64.8676 74.2165 65.0175 73.9395 65.1255C73.6625 65.2313 73.3512 65.2842 73.0055 65.2842Z" fill="#272219"/>
<path d="M77.0971 58.407V65.1784H76.3127V58.407H77.0971Z" fill="#272219"/>
<path d="M79.3182 58.407V65.1784H78.5338V58.407H79.3182Z" fill="#272219"/>
<path d="M82.8954 65.2842C82.4035 65.2842 81.9792 65.1762 81.6224 64.9602C81.2679 64.742 80.9942 64.4378 80.8014 64.0477C80.6109 63.6553 80.5156 63.199 80.5156 62.6788C80.5156 62.1586 80.6109 61.7001 80.8014 61.3034C80.9942 60.9044 81.2623 60.5936 81.6058 60.371C81.9515 60.1462 82.3547 60.0337 82.8156 60.0337C83.0815 60.0337 83.3441 60.0778 83.6034 60.166C83.8626 60.2542 84.0986 60.3974 84.3113 60.5958C84.5241 60.792 84.6936 61.0521 84.8199 61.3761C84.9462 61.7001 85.0093 62.0991 85.0093 62.573V62.9037H81.074V62.2292H84.2116C84.2116 61.9426 84.154 61.6869 84.0388 61.4621C83.9258 61.2373 83.764 61.0598 83.5535 60.9298C83.3452 60.7997 83.0993 60.7347 82.8156 60.7347C82.5032 60.7347 82.2329 60.8118 82.0046 60.9661C81.7786 61.1182 81.6047 61.3166 81.4828 61.5613C81.3609 61.806 81.3 62.0683 81.3 62.3482V62.7979C81.3 63.1814 81.3665 63.5065 81.4994 63.7732C81.6346 64.0377 81.8218 64.2394 82.0611 64.3783C82.3005 64.515 82.5785 64.5833 82.8954 64.5833C83.1015 64.5833 83.2876 64.5546 83.4538 64.4973C83.6222 64.4378 83.7673 64.3496 83.8892 64.2328C84.0111 64.1138 84.1053 63.9661 84.1717 63.7898L84.9296 64.0014C84.8498 64.2571 84.7157 64.4819 84.5274 64.6759C84.339 64.8676 84.1064 65.0175 83.8294 65.1255C83.5524 65.2313 83.2411 65.2842 82.8954 65.2842Z" fill="#272219"/>
<path d="M86.987 62.1234V65.1784H86.2026V60.0999H86.9604V60.8934H87.0269C87.1465 60.6355 87.3282 60.4283 87.572 60.2718C87.8157 60.1131 88.1304 60.0337 88.5159 60.0337C88.8616 60.0337 89.1641 60.1043 89.4233 60.2453C89.6826 60.3842 89.8842 60.5958 90.0283 60.8802C90.1723 61.1623 90.2443 61.5194 90.2443 61.9514V65.1784H89.4599V62.0043C89.4599 61.6054 89.3557 61.2946 89.1475 61.0719C88.9392 60.8471 88.6533 60.7347 88.2899 60.7347C88.0395 60.7347 87.8157 60.7887 87.6185 60.8967C87.4235 61.0047 87.2695 61.1623 87.1565 61.3695C87.0435 61.5767 86.987 61.828 86.987 62.1234Z" fill="#272219"/>
<path d="M93.898 60.0999V60.7611H91.2522V60.0999H93.898ZM92.0234 58.8831H92.8078V63.7236C92.8078 63.9441 92.8399 64.1094 92.9042 64.2196C92.9706 64.3276 93.0548 64.4003 93.1568 64.4378C93.2609 64.4731 93.3706 64.4907 93.4858 64.4907C93.5722 64.4907 93.6431 64.4863 93.6985 64.4775C93.7539 64.4665 93.7983 64.4576 93.8315 64.451L93.991 65.152C93.9379 65.1718 93.8636 65.1917 93.7683 65.2115C93.6731 65.2335 93.5523 65.2446 93.4061 65.2446C93.1845 65.2446 92.9673 65.1972 92.7546 65.1024C92.5441 65.0076 92.369 64.8632 92.2294 64.6693C92.092 64.4753 92.0234 64.2306 92.0234 63.9352V58.8831Z" fill="#272219"/>
<path d="M46.9216 122.383H42.598C42.5626 122.383 42.5287 122.397 42.5037 122.422C42.4787 122.447 42.4646 122.481 42.4646 122.516V124.471H47.4867C47.4858 124.765 47.3699 125.046 47.1634 125.256C46.957 125.466 46.6763 125.588 46.3812 125.595H42.4646V128.119C42.4619 128.418 42.3418 128.704 42.13 128.916C41.9182 129.128 41.6315 129.249 41.331 129.254V122.383C41.332 122.082 41.4529 121.793 41.6674 121.581C41.8818 121.368 42.1723 121.249 42.4751 121.249H48.0061C48.0099 121.541 47.8987 121.824 47.6961 122.036C47.4934 122.248 47.2155 122.372 46.9216 122.383Z" fill="#101010"/>
<path d="M50.3048 129.18C50.0075 129.164 49.7279 129.035 49.524 128.819C49.3201 128.603 49.2076 128.318 49.2098 128.021V121.21C49.3624 121.211 49.5133 121.241 49.6541 121.3C49.7949 121.358 49.9226 121.444 50.0302 121.551C50.1377 121.659 50.2229 121.786 50.2809 121.927C50.3388 122.067 50.3684 122.218 50.3679 122.369V127.878C50.367 127.896 50.3696 127.914 50.3756 127.931C50.3817 127.948 50.391 127.963 50.403 127.977C50.4151 127.99 50.4297 128.001 50.4459 128.008C50.4622 128.016 50.4798 128.02 50.4978 128.021H54.5934C54.7459 128.022 54.8969 128.052 55.0376 128.111C55.1784 128.169 55.3062 128.255 55.4137 128.362C55.5213 128.47 55.6065 128.598 55.6644 128.738C55.7224 128.878 55.7519 129.029 55.7515 129.18H50.3048Z" fill="#101010"/>
<path d="M58.1134 129.275C57.8089 129.276 57.5165 129.157 57.2996 128.944C57.0827 128.732 56.9589 128.443 56.9552 128.14V121.2C57.2579 121.199 57.5488 121.316 57.7654 121.526C57.982 121.737 58.1069 122.023 58.1134 122.324V129.275Z" fill="#101010"/>
<path d="M65.7956 125.63C65.0926 126.001 64.3023 126.177 63.5074 126.14H61.1842C61.1776 125.84 61.2905 125.55 61.4983 125.333C61.7061 125.115 61.9919 124.989 62.2932 124.981H63.5074C64.0991 125.014 64.6891 124.893 65.2201 124.632C65.3942 124.539 65.5378 124.399 65.6337 124.227C65.7295 124.056 65.7736 123.86 65.7605 123.664C65.7605 123.354 65.7605 122.411 63.5074 122.411H61.0508C61.0324 122.41 61.0139 122.413 60.9965 122.419C60.9791 122.425 60.9631 122.435 60.9494 122.447C60.9357 122.459 60.9246 122.474 60.9167 122.491C60.9088 122.507 60.9043 122.525 60.9034 122.544V128.147C60.897 128.447 60.7724 128.733 60.5564 128.942C60.3405 129.152 60.0505 129.269 59.7488 129.268V122.324C59.7551 122.038 59.873 121.766 60.0774 121.566C60.2817 121.365 60.5566 121.251 60.8437 121.249H63.518C66.4835 121.249 66.9292 122.757 66.9292 123.661C66.9423 124.061 66.8432 124.458 66.6431 124.805C66.4429 125.153 66.1495 125.439 65.7956 125.63Z" fill="#101010"/>
<path d="M68.1224 129.275V121.21C68.4247 121.209 68.7152 121.327 68.9313 121.537C69.1473 121.747 69.2715 122.034 69.277 122.334V128.14C69.2733 128.442 69.15 128.731 68.9339 128.943C68.7178 129.156 68.4262 129.275 68.1224 129.275ZM75.9626 128.95C75.9102 129.032 75.842 129.103 75.7619 129.158C75.6817 129.213 75.5913 129.252 75.4959 129.272C75.4005 129.292 75.3019 129.293 75.2061 129.275C75.1103 129.257 75.0191 129.22 74.9378 129.166L69.9543 125.93C69.826 125.843 69.7189 125.729 69.6411 125.595C69.5633 125.462 69.5169 125.313 69.5051 125.159C69.4988 125.007 69.5297 124.857 69.5951 124.72C69.6606 124.583 69.7586 124.464 69.8806 124.373L74.65 121.305C74.8197 121.212 75.0182 121.187 75.2058 121.234C75.3933 121.281 75.5559 121.398 75.6608 121.559C75.7339 121.664 75.7841 121.783 75.8082 121.908L70.7966 125.145L76.0608 128.573C76.058 128.697 76.0242 128.818 75.9626 128.926V128.95Z" fill="#252118"/>
<path d="M83.2518 122.383H78.3595C78.3245 122.384 78.291 122.398 78.2662 122.423C78.2414 122.448 78.2271 122.481 78.2262 122.516V124.471H83.4904C83.4842 124.765 83.3646 125.046 83.1563 125.255C82.9479 125.465 82.6668 125.586 82.3709 125.595H78.2157V127.913C78.2165 127.948 78.2309 127.981 78.2557 128.006C78.2805 128.031 78.3139 128.045 78.349 128.046H83.0236C83.327 128.048 83.6174 128.168 83.8335 128.38C84.0496 128.592 84.1745 128.879 84.1818 129.18H78.2507C77.9469 129.18 77.6554 129.061 77.4392 128.849C77.2231 128.637 77.0998 128.348 77.0961 128.046V122.383C77.0971 122.082 77.218 121.793 77.4325 121.581C77.6469 121.368 77.9374 121.249 78.2402 121.249H84.3362C84.3392 121.541 84.2276 121.823 84.0252 122.035C83.8227 122.246 83.5453 122.371 83.2518 122.383Z" fill="#252118"/>
<path d="M90.3233 126.607V129.275H90.2742C89.983 129.269 89.705 129.152 89.4984 128.948C89.2918 128.744 89.1724 128.468 89.1652 128.178V126.587L85.1188 121.451C85.3435 121.264 85.6321 121.172 85.9241 121.193C86.216 121.213 86.4885 121.346 86.684 121.563L89.7548 125.462L92.8256 121.573C93.0194 121.353 93.2919 121.217 93.585 121.195C93.8781 121.172 94.1685 121.264 94.3943 121.451L90.3233 126.607Z" fill="#252118"/>
<path d="M95.949 121.025C96.1137 121.025 96.2757 121.067 96.4193 121.147C96.5677 121.228 96.6897 121.349 96.7703 121.497C96.8534 121.641 96.8981 121.805 96.9001 121.971C96.8998 122.137 96.8563 122.299 96.7738 122.443C96.6927 122.59 96.5709 122.711 96.4228 122.792C96.2787 122.874 96.1153 122.917 95.949 122.917C95.7828 122.917 95.6194 122.874 95.4753 122.792C95.3272 122.711 95.2054 122.59 95.1243 122.443C95.0418 122.299 94.9983 122.137 94.998 121.971C94.9982 121.804 95.043 121.641 95.1278 121.497C95.2079 121.348 95.33 121.227 95.4788 121.147C95.6222 121.067 95.7843 121.025 95.949 121.025ZM95.949 121.182C95.8126 121.182 95.6784 121.217 95.5595 121.284C95.4342 121.351 95.3308 121.453 95.2612 121.577C95.1916 121.697 95.1541 121.833 95.1524 121.971C95.1524 122.11 95.1887 122.246 95.2577 122.366C95.3258 122.489 95.4281 122.591 95.5525 122.659C95.6733 122.728 95.81 122.764 95.949 122.764C96.0881 122.764 96.2248 122.728 96.3456 122.659C96.47 122.591 96.5722 122.489 96.6404 122.366C96.7094 122.246 96.7457 122.11 96.7457 121.971C96.7439 121.833 96.7065 121.697 96.6369 121.577C96.5684 121.452 96.4647 121.35 96.3386 121.284C96.2197 121.217 96.0855 121.182 95.949 121.182ZM95.5314 122.498V121.476H95.8824C95.971 121.472 96.0597 121.481 96.1456 121.503C96.1985 121.523 96.244 121.558 96.2754 121.605C96.3056 121.648 96.3216 121.699 96.321 121.751C96.322 121.788 96.3153 121.824 96.3014 121.858C96.2875 121.891 96.2667 121.922 96.2403 121.947C96.1848 122.004 96.1095 122.038 96.0298 122.041C96.0618 122.054 96.0914 122.071 96.1175 122.093C96.1737 122.156 96.2242 122.224 96.2684 122.296L96.3947 122.498H96.1912L96.0999 122.334C96.0561 122.246 95.998 122.166 95.928 122.097C95.8879 122.073 95.8415 122.061 95.7946 122.062H95.6964V122.498H95.5314ZM95.6964 121.922H95.8964C95.9647 121.929 96.0335 121.915 96.0929 121.881C96.1102 121.867 96.124 121.849 96.1331 121.829C96.1423 121.809 96.1465 121.787 96.1456 121.765C96.1461 121.737 96.1375 121.709 96.121 121.685C96.1042 121.66 96.0795 121.642 96.0508 121.633C95.9971 121.618 95.9414 121.613 95.8859 121.615H95.6964V121.922Z" fill="#252118"/>
<path d="M36.5441 121.549V120.99C36.5441 120.898 36.5811 120.809 36.6469 120.743C36.7127 120.678 36.802 120.641 36.8951 120.641H37.597C37.69 120.641 37.7793 120.678 37.8451 120.743C37.9109 120.809 37.9479 120.898 37.9479 120.99V122.258" fill="#252118"/>
<path d="M34.6981 121.322C34.6113 121.266 34.5102 121.237 34.4068 121.237C34.3035 121.237 34.2024 121.266 34.1156 121.322L30.8307 123.654V126.524C30.8316 126.76 30.9267 126.987 31.0951 127.153C31.2635 127.32 31.4914 127.414 31.7291 127.414H33.0136V128.315H33.7155V129.086L33.2347 129.721L34.0103 130.298L33.3084 130.797V131.785L33.6593 132.34V133.279L33.34 133.935L34.284 135H34.8982L35.7299 134.071V127.417H37.074C37.3114 127.417 37.539 127.324 37.7068 127.157C37.8747 126.99 37.969 126.763 37.969 126.527V123.657L34.6981 121.322ZM33.1259 125.41C33.1268 125.203 33.2099 125.005 33.3572 124.858C33.5044 124.712 33.7038 124.629 33.912 124.628H34.8666C35.0709 124.628 35.2672 124.707 35.4139 124.848C35.5607 124.99 35.6463 125.182 35.6527 125.386V126.782H33.1259V125.41Z" fill="#252118"/>
<path d="M39.2253 123.783C39.1127 123.786 39.002 123.753 38.9095 123.689L34.7157 120.788C34.6171 120.733 34.5059 120.704 34.3928 120.704C34.2797 120.704 34.1685 120.733 34.0699 120.788L29.9252 123.689C29.8107 123.769 29.669 123.801 29.5311 123.777C29.3932 123.753 29.2705 123.675 29.19 123.561C29.1095 123.448 29.0778 123.307 29.1018 123.169C29.1258 123.032 29.2036 122.91 29.3181 122.83L33.4663 119.939C33.7458 119.758 34.0697 119.655 34.4033 119.643C34.739 119.656 35.065 119.758 35.3474 119.939L39.5272 122.827C39.6183 122.891 39.6866 122.983 39.7222 123.088C39.7578 123.194 39.7589 123.308 39.7254 123.414C39.6919 123.52 39.6255 123.613 39.5357 123.679C39.4458 123.746 39.3372 123.782 39.2253 123.783Z" fill="#252118"/>
<path d="M98.6513 2.74748C101.459 5.30644 101.978 9.32118 101.978 9.32118C101.978 9.32118 97.9143 9.18503 95.0927 6.62956C92.2711 4.07409 91.7692 0.0558572 91.7692 0.0558572C91.7692 0.0558572 95.8332 0.192009 98.6513 2.74748Z" fill="#272219"/>
<path d="M78.8263 97.0031C77.3274 98.9598 76.4434 101.314 76.2854 103.769C76.2854 103.818 81.3777 102.397 83.6553 98.9791C84.3201 97.9803 84.7721 96.8566 84.9834 95.6774C85.1946 94.4981 85.1607 93.2883 84.8837 92.1226C84.8626 92.154 81.2514 93.9344 78.8263 97.0031Z" fill="#272219"/>
<path d="M82.399 107.731C81.1341 107.543 79.9268 107.078 78.8643 106.37C77.8017 105.662 76.9101 104.728 76.2539 103.636C76.3065 103.636 81.104 102.275 85.2381 102.756C87.7334 103.046 90.0632 104.146 91.8675 105.884C91.9272 105.884 86.9262 108.503 82.399 107.731Z" fill="#272219"/>
<path d="M87.6912 93.135C86.6628 95.3004 86.2967 97.7186 86.6384 100.089C86.6384 100.135 91.12 97.9213 92.6291 94.2347C94.1382 90.5481 92.4185 87.3922 92.4501 87.3957C92.4817 87.3992 89.3477 89.7661 87.6912 93.135Z" fill="#272219"/>
<path d="M93.1485 102.896C91.9054 102.912 90.6738 102.658 89.5397 102.151C88.4056 101.645 87.3963 100.898 86.5822 99.9635C86.6314 99.9635 90.8392 97.8445 94.8541 97.6175C97.2985 97.4898 99.7186 98.155 101.75 99.5132C101.803 99.5167 97.5494 102.893 93.1485 102.896Z" fill="#272219"/>
<path d="M95.3244 87.9019C94.7684 90.1879 94.8903 92.5852 95.6753 94.8037C95.6753 94.8491 99.5182 91.955 100.287 88.1218C101.055 84.2886 98.8198 81.5237 98.8479 81.5237C98.876 81.5237 96.2754 84.3584 95.3244 87.9019Z" fill="#272219"/>
<path d="M102.403 96.4201C101.209 96.6417 99.9808 96.6019 98.8038 96.3034C97.6268 96.005 96.5293 95.4551 95.5876 94.692C95.6297 94.692 99.2234 91.9271 103.042 91.0229C105.383 90.4804 107.839 90.712 110.036 91.6827C110.089 91.6757 106.604 95.6765 102.403 96.4201Z" fill="#272219"/>
<path d="M101.701 81.5202C101.581 83.8384 102.137 86.1418 103.301 88.1532C103.301 88.1986 106.46 84.732 106.544 80.8743C106.628 77.0167 103.947 74.7126 103.975 74.7056C104.003 74.6986 101.975 77.9174 101.701 81.5202Z" fill="#272219"/>
<path d="M110.103 88.5687C108.986 88.9897 107.79 89.1641 106.599 89.0797C105.407 88.9953 104.249 88.6541 103.203 88.0799C103.245 88.0799 106.197 84.7773 109.748 83.2343C111.931 82.3025 114.358 82.1016 116.665 82.6618C116.715 82.6338 114.012 87.1234 110.103 88.5687Z" fill="#272219"/>
<path d="M106.765 74.2064C107.053 76.4848 107.999 78.6313 109.489 80.3856C109.489 80.431 111.977 76.507 111.38 72.7296C110.784 68.9523 107.787 67.1718 107.811 67.1614C107.836 67.1509 106.4 70.649 106.765 74.2064Z" fill="#272219"/>
<path d="M116.188 79.6036C115.171 80.2035 114.035 80.5767 112.859 80.6972C111.683 80.8178 110.495 80.6829 109.376 80.3018C109.415 80.3018 111.707 76.5698 114.914 74.4403C116.886 73.1474 119.225 72.5251 121.582 72.6668C121.621 72.6563 119.761 77.5159 116.188 79.6036Z" fill="#272219"/>
<path d="M110.457 66.1769C111.122 68.3515 112.415 70.284 114.174 71.7347C114.191 71.7766 115.946 67.5105 114.728 63.9182C113.51 60.3258 110.275 59.104 110.299 59.104C110.324 59.104 109.499 62.7626 110.457 66.1769Z" fill="#272219"/>
<path d="M120.593 69.7902C119.703 70.5546 118.658 71.1185 117.529 71.4433C116.4 71.7681 115.213 71.8461 114.051 71.6718C114.086 71.6509 115.693 67.6187 118.476 64.9655C120.184 63.3503 122.37 62.3256 124.709 62.0434C124.748 62.026 123.734 67.1334 120.593 69.7902Z" fill="#272219"/>
<path d="M112.724 57.6482C113.734 59.6612 115.322 61.3307 117.287 62.4449C117.311 62.4833 118.311 57.9868 116.518 54.6668C115.974 53.6949 115.237 52.8426 114.353 52.161C113.469 51.4795 112.455 50.9828 111.373 50.7009C111.401 50.7254 111.205 54.4678 112.724 57.6482Z" fill="#272219"/>
<path d="M123.26 59.3972C122.523 60.3059 121.597 61.0458 120.546 61.5663C119.495 62.0868 118.344 62.3758 117.171 62.4135C117.199 62.3891 118.101 58.1474 120.382 55.0403C121.778 53.1483 123.745 51.75 125.997 51.05C126.025 51.0151 125.892 56.2168 123.26 59.3972Z" fill="#272219"/>
<path d="M113.514 48.8437C114.838 50.6488 116.681 52.0131 118.799 52.7572C118.831 52.7921 119.055 48.1839 116.729 45.2165C116.033 44.3522 115.166 43.6393 114.182 43.1216C113.198 42.604 112.118 42.2928 111.008 42.2071C111.036 42.2316 111.5 45.974 113.514 48.8437Z" fill="#272219"/>
<path d="M124.123 48.6866C123.56 49.7129 122.781 50.6068 121.84 51.3079C120.899 52.009 119.818 52.5008 118.669 52.7502C118.69 52.7223 118.862 48.3829 120.561 44.8953C121.595 42.779 123.277 41.0434 125.365 39.9379C125.394 39.903 126.162 45.0803 124.123 48.6866Z" fill="#272219"/>
<path d="M112.77 39.9833C114.375 41.5326 116.417 42.557 118.624 42.9193C118.659 42.9473 118.083 38.339 115.272 35.7975C114.442 35.062 113.468 34.5059 112.411 34.1646C111.354 33.8233 110.237 33.7041 109.131 33.8146C109.162 33.839 110.299 37.4907 112.77 39.9833Z" fill="#272219"/>
<path d="M123.137 37.9271C122.772 39.0434 122.17 40.0683 121.371 40.9322C120.572 41.7961 119.596 42.4786 118.508 42.9333C118.529 42.9054 117.943 38.5729 118.982 34.7956C119.601 32.5138 120.931 30.4854 122.779 29.0004C122.786 28.9585 124.488 33.9856 123.137 37.9271Z" fill="#272219"/>
<path d="M110.443 31.2801C112.285 32.5422 114.475 33.2034 116.711 33.1722C116.757 33.1967 115.349 28.7002 112.103 26.6474C111.158 26.0572 110.098 25.6714 108.993 25.5151C107.887 25.3587 106.761 25.4352 105.688 25.7397C105.726 25.7572 107.562 29.2308 110.443 31.2801Z" fill="#272219"/>
<path d="M120.196 27.391C120.051 28.5622 119.654 29.6885 119.031 30.6929C118.409 31.6973 117.575 32.5561 116.588 33.2106C116.588 33.1792 115.244 28.962 115.535 24.9926C115.693 22.6146 116.602 20.3469 118.132 18.5132C118.15 18.4678 120.807 23.2122 120.196 27.391Z" fill="#272219"/>
<path d="M106.474 22.9608C108.511 23.9075 110.797 24.1886 113.005 23.7638C113.054 23.7638 110.794 19.5151 107.162 18.0035C106.124 17.5682 105.004 17.3598 103.877 17.3923C102.751 17.4248 101.645 17.6975 100.634 18.192C100.676 18.206 103.235 21.4003 106.474 22.9608Z" fill="#272219"/>
<path d="M115.283 17.3437C115.383 18.5317 115.221 19.7272 114.808 20.8464C114.396 21.9657 113.742 22.9816 112.893 23.8231C112.893 23.7882 110.742 19.7944 110.198 15.7413C109.654 11.6881 111.356 8.75912 111.391 8.75912C111.426 8.75912 115.044 13.0392 115.283 17.3437Z" fill="#272219"/>
<path d="M100.81 15.2455C102.997 15.8621 105.326 15.7543 107.446 14.9383C107.502 14.9383 104.361 11.0283 100.389 10.1067C99.2813 9.82929 98.1259 9.80035 97.006 10.0219C95.8861 10.2435 94.8298 10.7101 93.9135 11.3879C93.9627 11.3949 97.2616 14.2227 100.81 15.2455Z" fill="#272219"/>
<path d="M108.316 8.05741C109.506 12.3235 107.309 15.0186 107.344 15.0186C107.379 15.0186 104.368 11.3216 102.901 7.29635C101.434 3.27114 102.445 0 102.484 0C102.522 0 107.148 3.74244 108.316 8.05741Z" fill="#272219"/>
<path d="M61.9317 104.893L62.0019 104.107C68.5261 104.698 75.1028 103.967 81.3356 101.96C87.5059 99.9845 93.2426 96.8605 98.2407 92.7545C108.769 84.149 115.556 71.8673 117.357 58.1718C118.831 46.962 118.076 36.967 115.111 28.4732C111.924 19.3545 106.253 12.2153 98.2653 7.26144L98.6864 6.59465C106.842 11.6462 112.626 18.9216 115.883 28.2149C118.887 36.8274 119.656 46.941 118.168 58.2766C116.339 72.1676 109.45 84.6272 98.7672 93.3619C93.6924 97.5308 87.8675 100.702 81.6023 102.708C75.2613 104.751 68.5696 105.495 61.9317 104.893Z" fill="#272219"/>
<path d="M27.3458 2.74748C24.5382 5.30644 24.0188 9.32118 24.0188 9.32118C24.0188 9.32118 28.0828 9.18503 30.9044 6.62956C33.726 4.07409 34.2279 0.0558572 34.2279 0.0558572C34.2279 0.0558572 30.1639 0.192009 27.3458 2.74748Z" fill="#272219"/>
<path d="M47.1708 97.0031C48.6698 98.9598 49.5538 101.314 49.7117 103.769C49.7117 103.818 44.6194 102.397 42.3418 98.9791C41.6805 97.9788 41.2323 96.8543 41.0247 95.6751C40.817 94.4959 40.8544 93.2869 41.1345 92.1226C41.1345 92.154 44.7458 93.9344 47.1708 97.0031Z" fill="#272219"/>
<path d="M43.5982 107.731C44.8632 107.542 46.0705 107.077 47.1336 106.369C48.1966 105.661 49.089 104.728 49.7468 103.636C49.6906 103.636 44.8932 102.275 40.759 102.756C38.2638 103.046 35.9339 104.146 34.1296 105.884C34.0699 105.884 39.0709 108.503 43.5982 107.731Z" fill="#272219"/>
<path d="M38.3164 93.135C39.3449 95.3004 39.711 97.7186 39.3692 100.089C39.3692 100.135 34.8876 97.9213 33.3786 94.2347C31.8695 90.5481 33.5891 87.3922 33.5575 87.3957C33.526 87.3992 36.6494 89.7661 38.3164 93.135Z" fill="#272219"/>
<path d="M32.8486 102.896C34.0917 102.912 35.3233 102.658 36.4574 102.151C37.5915 101.645 38.6008 100.898 39.4149 99.9635C39.3657 99.9635 35.1579 97.8445 31.1465 97.6175C28.701 97.4893 26.2796 98.1545 24.2469 99.5132C24.1943 99.5167 28.4477 102.893 32.8486 102.896Z" fill="#272219"/>
<path d="M30.6763 87.9019C31.231 90.188 31.1091 92.5849 30.3253 94.8037C30.3253 94.8491 26.4824 91.955 25.7139 88.1218C24.9453 84.2886 27.1808 81.5237 27.1527 81.5237C27.1247 81.5237 29.7252 84.3584 30.6763 87.9019Z" fill="#272219"/>
<path d="M23.5941 96.4201C24.7882 96.6417 26.0164 96.6019 27.1933 96.3034C28.3703 96.005 29.4678 95.4551 30.4095 94.692C30.3674 94.692 26.7737 91.9271 22.9554 91.0229C20.6138 90.4804 18.1583 90.712 15.961 91.6827C15.9084 91.6757 19.3933 95.6765 23.5941 96.4201Z" fill="#272219"/>
<path d="M24.296 81.5202C24.4163 83.8384 23.8606 86.1418 22.6957 88.1532C22.6957 88.1986 19.5196 84.732 19.453 80.8743C19.3863 77.0167 22.05 74.7126 22.0219 74.7056C21.9938 74.6986 24.0223 77.9174 24.296 81.5202Z" fill="#272219"/>
<path d="M15.8943 88.5687C17.0112 88.9897 18.2068 89.1641 19.3982 89.0797C20.5896 88.9953 21.7483 88.6541 22.794 88.0799C22.7519 88.0799 19.8004 84.7773 16.2488 83.2343C14.0664 82.3025 11.6388 82.1016 9.33162 82.6618C9.28249 82.6338 11.9707 87.1234 15.8943 88.5687Z" fill="#272219"/>
<path d="M19.2319 74.2064C18.9441 76.4848 17.998 78.6313 16.5085 80.3856C16.5085 80.431 14.0203 76.507 14.6169 72.7296C15.2135 68.9523 18.2036 67.1718 18.2036 67.1614C18.2036 67.1509 19.6074 70.649 19.2319 74.2064Z" fill="#272219"/>
<path d="M9.80891 79.6036C10.8258 80.2035 11.9616 80.5767 13.1377 80.6972C14.3138 80.8178 15.5022 80.6829 16.6208 80.3018C16.5822 80.3018 14.2905 76.5698 11.0829 74.4403C9.11145 73.1474 6.77182 72.5251 4.41484 72.6668C4.37624 72.6563 6.23626 77.5159 9.80891 79.6036Z" fill="#272219"/>
<path d="M15.5399 66.1769C14.8748 68.3515 13.5825 70.284 11.8233 71.7347C11.8233 71.7766 10.0686 67.5105 11.2724 63.9182C12.4761 60.3258 15.7224 59.104 15.6978 59.104C15.6732 59.104 16.498 62.7626 15.5399 66.1769Z" fill="#272219"/>
<path d="M5.40451 69.7902C6.29397 70.5546 7.33913 71.1185 8.46829 71.4433C9.59745 71.7681 10.7839 71.8461 11.9462 71.6718C11.9111 71.6509 10.3073 67.6187 7.52073 64.9655C5.81293 63.3503 3.62727 62.3256 1.2879 62.0434C1.24929 62.026 2.26353 67.1334 5.40451 69.7902Z" fill="#272219"/>
<path d="M13.2903 57.6482C12.2806 59.6612 10.6927 61.3307 8.72799 62.4449C8.70342 62.4833 7.70322 57.9868 9.49656 54.6668C10.0411 53.6949 10.7776 52.8426 11.6617 52.161C12.5459 51.4795 13.5594 50.9828 14.6415 50.7009C14.5958 50.7254 14.7818 54.4678 13.2903 57.6482Z" fill="#272219"/>
<path d="M2.73731 59.3972C3.47492 60.3064 4.40105 61.0465 5.45249 61.567C6.50393 62.0876 7.6559 62.3763 8.82976 62.4135C8.80169 62.3891 7.89975 58.1474 5.61859 55.0403C4.22285 53.1483 2.25522 51.75 0.00342771 51.05C-0.0281576 51.0151 0.105203 56.2168 2.73731 59.3972Z" fill="#272219"/>
<path d="M12.4831 48.8437C11.1587 50.6488 9.31623 52.0131 7.19786 52.7572C7.16627 52.7921 6.94166 48.1839 9.26845 45.2165C9.96426 44.3522 10.831 43.6393 11.8149 43.1216C12.7989 42.604 13.8792 42.2928 14.9889 42.2071C14.9608 42.2316 14.4976 45.974 12.4831 48.8437Z" fill="#272219"/>
<path d="M1.87398 48.6866C2.43712 49.7125 3.21513 50.6062 4.1554 51.3073C5.09567 52.0083 6.17628 52.5004 7.3242 52.7502C7.30314 52.7223 7.13118 48.3829 5.43259 44.8953C4.39837 42.779 2.71629 41.0434 0.628113 39.9379C0.603547 39.903 -0.165028 45.0803 1.87398 48.6866Z" fill="#272219"/>
<path d="M13.2271 39.9833C11.6223 41.5326 9.57981 42.557 7.37333 42.9193C7.33823 42.9473 7.91379 38.339 10.7249 35.7975C11.5548 35.062 12.5292 34.5059 13.5864 34.1646C14.6436 33.8233 15.7605 33.7041 16.8665 33.8146C16.8349 33.839 15.6978 37.4907 13.2271 39.9833Z" fill="#272219"/>
<path d="M2.87418 37.9271C3.23892 39.0434 3.84119 40.0683 4.63998 40.9322C5.43878 41.7961 6.41535 42.4786 7.50318 42.9333C7.48212 42.9054 8.06821 38.5729 7.0294 34.7956C6.40968 32.5138 5.08058 30.4854 3.23215 29.0004C3.20758 28.9585 1.50899 33.9856 2.87418 37.9271Z" fill="#272219"/>
<path d="M15.5539 31.2801C13.7125 32.5422 11.522 33.2034 9.286 33.1722C9.24037 33.1967 10.6477 28.7002 13.8939 26.6474C14.8396 26.0572 15.8994 25.6714 17.0046 25.5151C18.1098 25.3587 19.2357 25.4352 20.3093 25.7397C20.2707 25.7572 18.4352 29.2308 15.5539 31.2801Z" fill="#272219"/>
<path d="M5.80109 27.391C5.94591 28.5622 6.34322 29.6885 6.96587 30.6929C7.58852 31.6973 8.42182 32.5561 9.40883 33.2106C9.40883 33.1792 10.753 28.962 10.4617 24.9926C10.3038 22.6146 9.39491 20.3469 7.86466 18.5132C7.84711 18.4678 5.19044 23.2122 5.80109 27.391Z" fill="#272219"/>
<path d="M19.5231 22.9608C17.4859 23.9075 15.1997 24.1886 12.992 23.7638C12.9429 23.7638 15.203 19.5151 18.8353 18.0035C19.8735 17.5682 20.9935 17.3598 22.1197 17.3923C23.2458 17.4248 24.3519 17.6975 25.3629 18.192C25.3173 18.206 22.7659 21.4003 19.5231 22.9608Z" fill="#272219"/>
<path d="M10.7144 17.3437C10.614 18.5317 10.7758 19.7272 11.1887 20.8464C11.6015 21.9657 12.2553 22.9816 13.1043 23.8231C13.1043 23.7882 15.2556 19.7944 15.7996 15.7413C16.3436 11.6881 14.6415 8.75912 14.6064 8.75912C14.5713 8.75912 10.953 13.0392 10.7144 17.3437Z" fill="#272219"/>
<path d="M25.1874 15.2455C23.0015 15.8613 20.6735 15.7535 18.5545 14.9383C18.4984 14.9383 21.6394 11.0283 25.6121 10.1067C26.7193 9.82929 27.8747 9.80035 28.9946 10.0219C30.1145 10.2435 31.1708 10.7101 32.0871 11.3879C32.0344 11.3949 28.732 14.2227 25.1874 15.2455Z" fill="#272219"/>
<path d="M17.6807 8.05741C16.4909 12.3305 18.6879 15.0186 18.6493 15.0186C18.6107 15.0186 21.6253 11.3216 23.0923 7.29635C24.5592 3.27114 23.5485 0 23.5099 0C23.4713 0 18.8493 3.74244 17.6807 8.05741Z" fill="#272219"/>
<path d="M64.0654 104.893L63.9953 104.107C57.4711 104.698 50.8943 103.967 44.6615 101.96C38.4912 99.9845 32.7545 96.8605 27.7564 92.7545C17.2279 84.149 10.4406 71.8673 8.64025 58.1718C7.16627 46.962 7.92081 36.967 10.8863 28.4732C14.0729 19.3545 19.7442 12.2153 27.7318 7.26144L27.3282 6.59465C19.1687 11.6462 13.3851 18.9216 10.1318 28.2149C7.12767 36.8274 6.35909 46.941 7.84711 58.2766C9.67555 72.1676 16.5647 84.6272 27.2475 93.3619C32.3243 97.5316 38.1517 100.703 44.4194 102.708C50.7526 104.748 57.4356 105.491 64.0654 104.893Z" fill="#272219"/>
<path d="M62.7634 100.885L56.7868 105.256L62.7634 109.63L68.7401 105.256L62.7634 100.885Z" fill="#272219"/>
<path d="M81.9673 31.6047L67.982 30.9065L62.9986 17.9092L58.0151 30.9275L44.0298 31.6257L54.9373 40.3534L51.2769 53.7975L62.9986 46.18L74.7062 53.7836L71.0458 40.3394L81.9673 31.6047ZM74.1201 52.9632L63.0091 38.0842V45.7331L51.8946 52.9562L63.0056 38.0772L55.3549 40.2172L45.023 31.9434L63.0021 38.0877L58.2678 31.2731L62.995 18.9216V38.0877L67.7293 31.2731L80.9917 31.9259H80.9741L62.995 38.0702L70.6457 40.2102L74.1201 52.9632Z" fill="#272219"/>
<path d="M75.022 54.1955L62.9986 46.3825L50.9751 54.1955L54.7302 40.4057L43.5455 31.4476L57.8888 30.7494L62.9986 17.3995L68.1084 30.7494L82.4516 31.4476L71.2669 40.4057L75.022 54.1955ZM51.5752 53.3751L62.9986 45.9496L74.0288 53.1168L73.9832 53.0888L63.181 38.6218V45.8379L51.5752 53.3751ZM48.2938 34.7851L55.1443 40.2731L55.1128 40.3883L51.7051 52.8968L62.5353 38.3949L55.0917 40.4895L55.1443 40.2871L48.2938 34.7851ZM62.8161 38.6253L52.6386 52.2405L62.8161 45.6075V38.6253ZM63.4618 38.3984L73.699 52.1218L70.4948 40.3604L63.4618 38.3984ZM63.6092 38.0493L70.7966 40.0601L70.8528 40.2626L70.9475 40.1893L81.0653 32.083H81.0338L63.6092 38.0493ZM45.9285 32.4391L55.404 40.0147L62.3914 38.0597L45.9285 32.4391ZM44.9914 31.7409L45.0651 31.7653L62.5213 37.7316L57.9168 31.0985L44.9914 31.7409ZM67.803 31.4511L63.4408 37.7351L80.0476 32.0586L67.803 31.4511ZM63.16 18.8832V37.5047L67.6205 31.0846H67.8311L67.789 30.9729L63.16 18.8832ZM58.4503 31.2486L62.795 37.5047V19.8922L58.4503 31.2486ZM81.4584 31.7653L81.0724 32.0795L81.4584 31.7688V31.7653Z" fill="#272219"/>
</g>
</svg>
