<svg width="37" height="36" viewBox="0 0 37 36" fill="none" xmlns="http://www.w3.org/2000/svg">
<g id="Vector">
<path d="M11.6101 11.4363C11.0374 11.4363 10.5625 11.9112 10.5625 12.4839C10.5625 13.0566 11.0374 13.5316 11.6101 13.5316H25.5784C26.1511 13.5316 26.6261 13.0566 26.6261 12.4839C26.6261 11.9112 26.1511 11.4363 25.5784 11.4363H25.2292V7.88835C25.341 7.91629 25.4667 7.94422 25.5784 7.94422C25.8857 7.94422 26.1931 7.80454 26.4026 7.55311C26.7518 7.10612 26.6819 6.43564 26.235 6.07247L19.2508 0.485138C18.8597 0.191803 18.3289 0.191803 17.9378 0.485138L10.9536 6.07247C10.5066 6.43564 10.4368 7.10612 10.786 7.55311C11.0793 7.90232 11.5542 8.01406 11.9593 7.87438V11.4363H11.6101ZM17.5467 9.69026C17.5467 9.11756 18.0216 8.64264 18.5943 8.64264C19.167 8.64264 19.6419 9.11756 19.6419 9.69026V11.4363H17.5467V9.69026Z" fill="black"/>
<path d="M13.0768 16.6605C12.5181 16.1017 11.8057 15.7525 11.0235 15.6547C7.79677 15.2497 5.7993 19.3284 8.10407 21.6192L10.8698 24.3849C11.2749 24.79 11.2749 25.4605 10.8698 25.8656C10.4647 26.2707 9.79424 26.2707 9.38916 25.8656L6.62343 23.0999C4.30469 20.7811 4.55612 16.87 7.07041 14.8027V9.15947C7.07041 7.51121 5.89707 6.0166 4.24881 5.84898C2.36309 5.65342 0.784668 7.13406 0.784668 8.97788V22.4853C0.784668 23.5049 1.18975 24.4827 1.9161 25.2091L7.26597 30.5589C7.58724 30.8802 7.7828 31.3272 7.7828 31.7882V34.8193C7.7828 35.392 8.25772 35.8669 8.83042 35.8669H16.513C17.0857 35.8669 17.5606 35.392 17.5606 34.8193V21.5494C17.5606 21.27 17.4489 21.0046 17.2533 20.8091L13.0908 16.6465L13.0768 16.6605Z" fill="black"/>
<path d="M32.9398 5.86294C31.3055 6.03056 30.1182 7.52517 30.1182 9.17344V14.8166C32.6324 16.87 32.8839 20.7951 30.5651 23.1138L27.7994 25.8796C27.3943 26.2846 26.7238 26.2846 26.3188 25.8796C25.9137 25.4745 25.9137 24.804 26.3188 24.3989L29.0845 21.6332C31.3753 19.3424 29.3918 15.2636 26.1651 15.6687C25.3969 15.7665 24.6705 16.1157 24.1118 16.6744L19.9492 20.837C19.7537 21.0325 19.6419 21.2979 19.6419 21.5773V34.8472C19.6419 35.4199 20.1168 35.8948 20.6895 35.8948H28.3721C28.9448 35.8948 29.4197 35.4199 29.4197 34.8472V31.8161C29.4197 31.3551 29.6013 30.9081 29.9366 30.5869L35.2864 25.237C36.0128 24.5107 36.4179 23.5329 36.4179 22.5132V8.99185C36.4179 7.14803 34.8255 5.66739 32.9537 5.86294H32.9398Z" fill="black"/>
</g>
</svg>
