<svg width="24" height="23" viewBox="0 0 24 23" fill="none" xmlns="http://www.w3.org/2000/svg">
<g id="Vector">
<path d="M23.2492 12.3574C23.049 12.3574 22.8738 12.2842 22.7237 12.1377L16.9927 6.5723C16.6924 6.27939 16.6924 5.8156 16.9927 5.5471C17.293 5.25418 17.7685 5.25418 18.0438 5.5471L23.7748 11.1125C24.0751 11.4054 24.0751 11.8692 23.7748 12.1377C23.6246 12.2842 23.4244 12.3574 23.2492 12.3574Z" fill="#261F10"/>
<path d="M0.750782 12.3574C0.550573 12.3574 0.375391 12.2842 0.225235 12.1377C-0.0750782 11.8448 -0.0750782 11.381 0.225235 11.1125L5.93118 5.52269C6.23149 5.22977 6.70699 5.22977 6.98227 5.52269C7.28259 5.8156 7.28259 6.27939 6.98227 6.54789L1.27633 12.1377C1.12617 12.2842 0.950991 12.3574 0.750782 12.3574Z" fill="#261F10"/>
<path d="M21.7977 23H2.20229C1.00104 23 1.49167e-08 22.048 1.49167e-08 20.852V11.6983C1.49167e-08 11.2834 0.325339 10.966 0.750782 10.966H5.08029C5.45568 10.966 5.78102 10.6731 5.78102 10.2826V6.0597C5.78102 5.64473 6.10636 5.32741 6.5318 5.32741C6.95725 5.32741 7.28259 5.64473 7.28259 6.0597V10.2826C7.28259 11.4542 6.30657 12.4306 5.08029 12.4306H1.50156V20.852C1.50156 21.2181 1.80188 21.5354 2.20229 21.5354H21.7977C22.1731 21.5354 22.4984 21.2425 22.4984 20.852V12.4306H18.8196C17.6184 12.4306 16.6173 11.4786 16.6173 10.2826V6.0597C16.6173 5.64473 16.9426 5.32741 17.3681 5.32741C17.7935 5.32741 18.1189 5.64473 18.1189 6.0597V10.2826C18.1189 10.6487 18.4192 10.966 18.8196 10.966H23.2492C23.6747 10.966 24 11.2834 24 11.6983V20.852C24 22.0236 22.999 23 21.7977 23Z" fill="#261F10"/>
<path d="M13.1137 12.6503H10.8613C10.2357 12.6503 9.73514 12.1621 9.73514 11.5519V8.62271C9.73514 8.01247 10.2357 7.52428 10.8613 7.52428H13.1137C13.7393 7.52428 14.2398 8.01247 14.2398 8.62271V11.5519C14.2398 12.1621 13.7393 12.6503 13.1137 12.6503ZM10.8613 8.25657C10.6611 8.25657 10.4859 8.42744 10.4859 8.62271V11.5519C10.4859 11.7471 10.6611 11.918 10.8613 11.918H13.1137C13.3139 11.918 13.4891 11.7471 13.4891 11.5519V8.62271C13.4891 8.42744 13.3139 8.25657 13.1137 8.25657H10.8613Z" fill="#261F10"/>
<path d="M7.13243 19.4606H4.88008C4.25443 19.4606 3.75391 18.9724 3.75391 18.3622V15.433C3.75391 14.8228 4.25443 14.3346 4.88008 14.3346H7.13243C7.75808 14.3346 8.2586 14.8228 8.2586 15.433V18.3622C8.2586 18.948 7.75808 19.4606 7.13243 19.4606ZM4.88008 15.0669C4.67987 15.0669 4.50469 15.2377 4.50469 15.433V18.3622C4.50469 18.5574 4.67987 18.7283 4.88008 18.7283H7.13243C7.33264 18.7283 7.50782 18.5574 7.50782 18.3622V15.433C7.50782 15.2377 7.33264 15.0669 7.13243 15.0669H4.88008Z" fill="#261F10"/>
<path d="M19.3201 19.4606H17.0678C16.4421 19.4606 15.9416 18.9724 15.9416 18.3622V15.433C15.9416 14.8228 16.4421 14.3346 17.0678 14.3346H19.3201C19.9458 14.3346 20.4463 14.8228 20.4463 15.433V18.3622C20.4463 18.948 19.9207 19.4606 19.3201 19.4606ZM17.0678 15.0669C16.8676 15.0669 16.6924 15.2377 16.6924 15.433V18.3622C16.6924 18.5574 16.8676 18.7283 17.0678 18.7283H19.3201C19.5203 18.7283 19.6955 18.5574 19.6955 18.3622V15.433C19.6955 15.2377 19.5203 15.0669 19.3201 15.0669H17.0678Z" fill="#261F10"/>
<path d="M19.5454 6.5723H4.00417C3.67883 6.5723 3.37852 6.35261 3.27841 6.0597C3.17831 5.74237 3.30344 5.42505 3.57873 5.22977L11.2617 0.128151C11.512 -0.0427169 11.8373 -0.0427169 12.1126 0.128151L19.8707 5.18095C20.121 5.303 20.2961 5.5471 20.2961 5.84001C20.2961 6.25498 19.9708 6.5723 19.5454 6.5723ZM6.4317 5.10772H17.0428L11.6872 1.61714L6.4317 5.10772Z" fill="#261F10"/>
</g>
</svg>
