<svg width="49" height="49" viewBox="0 0 49 49" fill="none" xmlns="http://www.w3.org/2000/svg">
<g id="Vector">
<path d="M5.76471 17.2941H1.92157C0.864706 17.2941 0 18.1588 0 19.2157V45.1569C0 47.2706 1.72941 49 3.84314 49C5.95686 49 7.68627 47.2706 7.68627 45.1569V19.2157C7.68627 18.1588 6.82157 17.2941 5.76471 17.2941Z" fill="white"/>
<path d="M26.4216 34.8957V39.6804L29.2463 38.5467C29.5922 38.4122 29.9765 38.4122 30.3224 38.5467L33.1471 39.6804V34.8957C32.1094 35.3184 30.9757 35.549 29.7843 35.549C28.5929 35.549 27.4592 35.2992 26.4216 34.8957Z" fill="white"/>
<path d="M29.7843 20.1765C26.3447 20.1765 23.5392 22.982 23.5392 26.4216C23.5392 29.8612 26.3447 32.6667 29.7843 32.6667C33.2239 32.6667 36.0294 29.8612 36.0294 26.4216C36.0294 22.982 33.2239 20.1765 29.7843 20.1765ZM29.7843 27.8627C28.9965 27.8627 28.3431 27.2094 28.3431 26.4216C28.3431 25.6337 28.9965 24.9804 29.7843 24.9804C30.5722 24.9804 31.2255 25.6337 31.2255 26.4216C31.2255 27.2094 30.5722 27.8627 29.7843 27.8627Z" fill="white"/>
<path d="M45.6373 0H13.9314C12.0675 0 10.5686 1.49882 10.5686 3.36275V45.1569C10.5686 46.598 10.1267 47.9239 9.33882 49H43.7157C46.6365 49 49 46.6365 49 43.7157V3.36275C49 1.51804 47.482 0 45.6373 0ZM16.3333 5.76471H27.8627C28.6506 5.76471 29.3039 6.41804 29.3039 7.20588C29.3039 7.99373 28.6506 8.64706 27.8627 8.64706H16.3333C15.5455 8.64706 14.8922 7.99373 14.8922 7.20588C14.8922 6.41804 15.5455 5.76471 16.3333 5.76471ZM36.0294 33.051V41.7941C36.0294 42.7933 34.9918 43.5043 34.0502 43.1392L29.7843 41.429L25.5184 43.1392C24.5961 43.5043 23.5392 42.7933 23.5392 41.7941V33.051C21.7714 31.3792 20.6569 29.0349 20.6569 26.4216C20.6569 21.3871 24.7498 17.2941 29.7843 17.2941C34.8188 17.2941 38.9118 21.3871 38.9118 26.4216C38.9118 29.0349 37.7973 31.3792 36.0294 33.051ZM43.2353 14.4118H16.3333C15.5455 14.4118 14.8922 13.7584 14.8922 12.9706C14.8922 12.1827 15.5455 11.5294 16.3333 11.5294H43.2353C44.0231 11.5294 44.6765 12.1827 44.6765 12.9706C44.6765 13.7584 44.0231 14.4118 43.2353 14.4118Z" fill="white"/>
</g>
</svg>
