<svg width="24" height="24" viewBox="0 0 24 24" fill="none" xmlns="http://www.w3.org/2000/svg">
<path id="Vector" d="M16.004 12.002V12.001C16.004 9.792 14.213 8.001 12.004 8.001C9.795 8.001 8.004 9.792 8.004 12.001C8.004 14.21 9.795 16.001 12.004 16.001C13.108 16.001 14.108 15.553 14.832 14.83C15.555 14.129 16.004 13.148 16.004 12.062C16.004 12.041 16.004 12.02 16.003 11.999L16.004 12.002ZM18.164 12.002C18.152 15.381 15.41 18.116 12.029 18.116C8.641 18.116 5.894 15.369 5.894 11.981C5.894 8.593 8.641 5.846 12.029 5.846C13.723 5.846 15.257 6.533 16.367 7.643C17.476 8.723 18.165 10.23 18.165 11.899C18.165 11.935 18.165 11.972 18.164 12.008V12.003V12.002ZM19.851 5.596V5.598C19.851 6.393 19.206 7.038 18.411 7.038C17.616 7.038 16.971 6.393 16.971 5.598C16.971 4.803 17.616 4.158 18.411 4.158C18.809 4.158 19.169 4.319 19.429 4.58C19.685 4.831 19.844 5.181 19.844 5.568V5.597L19.851 5.596ZM12.011 2.156L10.816 2.148C10.092 2.14267 9.54233 2.14267 9.167 2.148C8.79167 2.15333 8.289 2.169 7.659 2.195C7.074 2.215 6.519 2.273 5.976 2.365L6.049 2.355C5.624 2.425 5.247 2.525 4.886 2.658L4.929 2.644C3.885 3.069 3.072 3.881 2.657 4.898L2.647 4.925C2.528 5.243 2.428 5.62 2.363 6.008L2.358 6.045C2.276 6.514 2.218 7.069 2.199 7.634L2.198 7.655C2.172 8.28567 2.15633 8.78833 2.151 9.163C2.14567 9.53767 2.14567 10.0873 2.151 10.812C2.15633 11.5367 2.159 11.935 2.159 12.007C2.159 12.079 2.15633 12.4773 2.151 13.202C2.14567 13.9267 2.14567 14.4763 2.151 14.851C2.15633 15.2257 2.172 15.7283 2.198 16.359C2.218 16.944 2.276 17.499 2.368 18.042L2.358 17.969C2.428 18.394 2.528 18.771 2.661 19.132L2.647 19.089C3.072 20.133 3.884 20.946 4.901 21.361L4.928 21.371C5.246 21.49 5.623 21.59 6.011 21.655L6.048 21.66C6.517 21.742 7.072 21.8 7.636 21.819L7.657 21.82C8.28767 21.846 8.79033 21.8617 9.165 21.867C9.53967 21.8723 10.0893 21.8723 10.814 21.867L12.002 21.843L13.197 21.851C13.921 21.8563 14.4707 21.8563 14.846 21.851C15.2213 21.8457 15.724 21.83 16.354 21.804C16.939 21.784 17.494 21.726 18.037 21.634L17.964 21.644C18.389 21.574 18.766 21.474 19.127 21.341L19.084 21.355C20.128 20.93 20.941 20.118 21.356 19.101L21.366 19.074C21.485 18.756 21.585 18.379 21.65 17.991L21.655 17.954C21.737 17.485 21.795 16.93 21.814 16.366L21.815 16.345C21.841 15.7143 21.8567 15.2117 21.862 14.837C21.8673 14.4623 21.8673 13.9127 21.862 13.188C21.8567 12.4633 21.854 12.065 21.854 11.993C21.854 11.921 21.8567 11.5227 21.862 10.798C21.8673 10.0733 21.8673 9.52367 21.862 9.149C21.8567 8.77433 21.841 8.27167 21.815 7.641C21.795 7.056 21.737 6.501 21.645 5.958L21.655 6.031C21.585 5.606 21.485 5.229 21.352 4.868L21.366 4.911C20.941 3.867 20.129 3.054 19.112 2.639L19.085 2.629C18.767 2.51 18.39 2.41 18.002 2.345L17.965 2.34C17.496 2.258 16.941 2.2 16.377 2.181L16.356 2.18C15.7253 2.154 15.2227 2.13833 14.848 2.133C14.4733 2.12767 13.9237 2.12767 13.199 2.133L12.011 2.156ZM24.004 12.002C24.004 14.3873 23.9773 16.0383 23.924 16.955C23.929 17.056 23.933 17.174 23.933 17.292C23.933 20.959 20.96 23.932 17.293 23.932C17.174 23.932 17.056 23.929 16.939 23.923L16.955 23.924C16.0383 23.9773 14.3873 24.004 12.002 24.004C9.61667 24.004 7.96567 23.9773 7.049 23.924C6.948 23.929 6.83 23.933 6.712 23.933C3.045 23.933 0.072 20.96 0.072 17.293C0.072 17.174 0.075 17.056 0.081 16.939L0.08 16.955C0.0266667 16.0383 0 14.3873 0 12.002C0 9.61667 0.0266667 7.96567 0.08 7.049C0.075 6.948 0.071 6.83 0.071 6.712C0.071 3.045 3.044 0.072 6.711 0.072C6.83 0.072 6.948 0.075 7.065 0.081L7.049 0.08C7.96567 0.0266667 9.61667 0 12.002 0C14.3873 0 16.0383 0.0266667 16.955 0.08C17.056 0.075 17.174 0.071 17.292 0.071C20.959 0.071 23.932 3.044 23.932 6.711C23.932 6.83 23.929 6.948 23.923 7.065L23.924 7.049C23.9773 7.965 24.004 9.616 24.004 12.002Z" fill="white"/>
</svg>
