<svg width="51" height="50" viewBox="0 0 51 50" fill="none" xmlns="http://www.w3.org/2000/svg">
<g id="Vector">
<path d="M24.94 28.3052C25.3 28.4425 25.7 28.4425 26.06 28.3052C32.7 25.6963 37 19.4782 37 12.4558V5.37461C37 4.35461 35.92 3.62883 34.94 4.00153C32.56 4.94307 29.84 4.27614 28.2 2.33421L26.64 0.509962C26.06 -0.156966 24.9 -0.156966 24.34 0.509962L22.78 2.33421C21.14 4.27614 18.44 4.94307 16.04 4.00153C15.06 3.60922 13.98 4.33499 13.98 5.37461V12.4558C13.98 19.4782 18.28 25.6963 24.92 28.3052H24.94ZM20.44 13.162C21.02 12.5931 21.98 12.5931 22.56 13.162L24.16 14.7312L28.44 10.5335C29.02 9.96465 29.98 9.96465 30.56 10.5335C31.14 11.1024 31.14 12.0439 30.56 12.6127C30.56 12.6127 25.24 17.8501 25.22 17.8501C24.64 18.4189 23.68 18.4189 23.1 17.8501L20.44 15.2412C19.86 14.6724 19.86 13.7308 20.44 13.162Z" fill="#101010"/>
<path d="M2.48 29.639C3 30.1883 3.86 30.2863 4.48 29.8548L14.16 23.1659C13 21.3809 12.14 19.4193 11.62 17.3205C5.98 21.322 0.64 25.1078 0.62 25.1275C-0.08 25.6375 -0.2 26.6575 0.38 27.2852L2.48 29.639Z" fill="#101010"/>
<path d="M46.52 29.8548C47.14 30.2863 48 30.1883 48.52 29.639C48.52 29.639 50.62 27.3048 50.62 27.2852C51.2 26.6575 51.08 25.6375 50.38 25.1275L39.38 17.3205C38.86 19.4193 38 21.3809 36.84 23.1659L46.52 29.8548Z" fill="#101010"/>
<path d="M49.5 47.0576H43V31.0317L35.04 25.5394C32.98 27.9129 30.3 29.8156 27.18 31.0514C26.14 31.4633 24.88 31.4829 23.84 31.0514C20.72 29.8156 18.04 27.9129 15.96 25.5394L8 31.0317V47.0576H1.5C0.68 47.0576 0 47.7246 0 48.5288C0 49.333 0.68 50 1.5 50H49.5C50.32 50 51 49.333 51 48.5288C51 47.7246 50.32 47.0576 49.5 47.0576ZM33 47.0576H30V42.6441C30 40.2118 27.98 38.2306 25.5 38.2306C23.02 38.2306 21 40.2118 21 42.6441V47.0576H18V42.6441C18 38.5837 21.36 35.2883 25.5 35.2883C29.64 35.2883 33 38.5837 33 42.6441V47.0576Z" fill="#101010"/>
</g>
</svg>
