<svg width="25" height="24" viewBox="0 0 25 24" fill="none" xmlns="http://www.w3.org/2000/svg">
<path id="Vector" d="M5.68263 7.7987V23.998H0.31255V7.7987H5.68263ZM6.02405 2.79753C6.02504 2.82653 6.02604 2.86052 6.02604 2.89552C6.02604 3.64439 5.70951 4.31828 5.20385 4.7902L5.20186 4.7912C4.65938 5.28912 3.93375 5.59407 3.13645 5.59407C3.08767 5.59407 3.0379 5.59307 2.98913 5.59107H2.9961H2.96325C2.92244 5.59307 2.87466 5.59407 2.82688 5.59407C2.0465 5.59407 1.33779 5.28812 0.811236 4.7902L0.812231 4.7912C0.310559 4.30328 0 3.6214 0 2.86652C0 2.84253 -1.15878e-10 2.81853 0.000995381 2.79353V2.79753C-1.15878e-10 2.77654 0 2.75254 0 2.72855C0 1.96667 0.322504 1.28079 0.837116 0.799867L0.839107 0.798867C1.38059 0.303949 2.10424 0 2.89756 0C2.94334 0 2.98814 0.000999833 3.03392 0.0029995H3.02795C3.07075 0.000999833 3.11953 0 3.17029 0C3.95166 0 4.66336 0.302949 5.1949 0.797867L5.1929 0.795867C5.70553 1.29278 6.02405 1.98867 6.02405 2.75954V2.80153V2.79953V2.79753ZM24.998 14.7155V23.998H19.6448V15.3344C19.6498 15.2555 19.6518 15.1635 19.6518 15.0715C19.6518 14.1756 19.404 13.3388 18.973 12.6249L18.9849 12.6459C18.5599 12.05 17.8731 11.6671 17.0977 11.6671C17.0379 11.6671 16.9782 11.6691 16.9185 11.6741H16.9265C16.8996 11.6731 16.8687 11.6721 16.8379 11.6721C16.2207 11.6721 15.6534 11.885 15.2045 12.242L15.2104 12.238C14.7595 12.6049 14.4062 13.0738 14.1832 13.6127L14.1752 13.6357C14.0598 13.9907 13.9941 14.3986 13.9941 14.8225C13.9941 14.8705 13.9951 14.9185 13.9971 14.9665V14.9595V24H8.64389C8.66579 19.6521 8.67674 16.1266 8.67674 13.4238C8.67674 10.7209 8.67143 9.10815 8.66081 8.58557L8.64489 7.8007H13.998V10.1543H13.9652C14.1782 9.80936 14.3982 9.51041 14.6401 9.23046L14.6321 9.23946C14.9118 8.93051 15.2124 8.65156 15.5359 8.4016L15.5518 8.3896C15.954 8.07865 16.4258 7.83469 16.9374 7.68572L16.9673 7.67872C17.5028 7.51775 18.1189 7.42476 18.756 7.42476H18.8346H18.8306C18.9013 7.42176 18.9839 7.41976 19.0665 7.41976C20.7398 7.41976 22.2468 8.13364 23.3029 9.27545L23.3059 9.27945C24.4353 10.5166 25 12.3283 25 14.7145L24.998 14.7155Z" fill="white"/>
</svg>
