<svg width="24" height="27" viewBox="0 0 24 27" fill="none" xmlns="http://www.w3.org/2000/svg">
<g id="Vector">
<path d="M6.16409 26.996C5.82164 26.996 5.50773 26.7977 5.36504 26.4861C5.19382 26.0611 5.39358 25.5513 5.82164 25.3813L11.9287 22.8318C12.157 22.7469 12.3853 22.7469 12.6136 22.8318L18.5493 25.3813C18.9774 25.5796 19.1772 26.0611 19.0059 26.4861C18.8062 26.911 18.321 27.1093 17.893 26.9393L12.2996 24.5315L6.53508 26.9393C6.39239 26.9676 6.27824 26.996 6.16409 26.996Z" fill="#261F10"/>
<path d="M18.1784 26.571C17.9501 26.571 17.7503 26.3728 17.7503 26.1461V10.1412C17.7503 9.91457 17.9501 9.71628 18.1784 9.71628C18.4067 9.71628 18.6064 9.91457 18.6064 10.1412V26.1461C18.6064 26.3728 18.4067 26.571 18.1784 26.571Z" fill="#261F10"/>
<path d="M6.16409 26.571C5.93579 26.571 5.73603 26.3728 5.73603 26.1461V10.1412C5.73603 9.91457 5.93579 9.71628 6.16409 9.71628C6.39239 9.71628 6.59215 9.91457 6.59215 10.1412V26.1461C6.59215 26.3728 6.39239 26.571 6.16409 26.571Z" fill="#261F10"/>
<path d="M23.1439 7.47842C22.6302 7.16682 22.0024 7.13849 21.4602 7.42176L18.8347 8.8098C18.6635 9.46133 18.3781 10.1978 18.0357 10.991C18.2069 11.0193 18.3496 10.991 18.5208 10.906L22.2592 8.92311V23.0018L17.6932 25.3813C17.2652 25.6079 17.1225 26.1178 17.3508 26.5427C17.4935 26.826 17.8074 26.996 18.1213 26.996C18.264 26.996 18.4067 26.9676 18.5208 26.911L23.0868 24.5315C23.6576 24.2482 24 23.6533 24 23.0301V8.92311C23.9715 8.32824 23.6576 7.79002 23.1439 7.47842Z" fill="#261F10"/>
<path d="M12.157 20.679C11.6718 20.679 11.2152 20.4523 10.9298 20.0558C8.9893 17.4496 4.45184 10.9627 4.45184 7.64838C4.45184 3.42761 7.90487 0 12.157 0C16.409 0 19.8621 3.42761 19.8621 7.64838C19.8621 10.9627 15.3246 17.4496 13.3841 20.0841C13.0702 20.4523 12.6136 20.679 12.157 20.679ZM12.157 1.69964C8.84661 1.69964 6.16409 4.36241 6.16409 7.64838C6.16409 9.88624 9.2176 14.8719 12.157 18.8377C15.0963 14.8435 18.1498 9.88624 18.1498 7.64838C18.1498 4.36241 15.4388 1.69964 12.157 1.69964Z" fill="#261F10"/>
<path d="M12.3567 11.1893C10.5018 11.1893 8.9893 9.68795 8.9893 7.84667C8.9893 6.0054 10.5018 4.50405 12.3567 4.50405C14.2117 4.50405 15.7241 6.0054 15.7241 7.84667C15.7241 9.68795 14.2117 11.1893 12.3567 11.1893ZM12.3567 5.35387C10.9869 5.35387 9.84542 6.45863 9.84542 7.84667C9.84542 9.20638 10.9584 10.3395 12.3567 10.3395C13.7265 10.3395 14.868 9.23471 14.868 7.84667C14.868 6.45863 13.7551 5.35387 12.3567 5.35387Z" fill="#261F10"/>
<path d="M6.42093 25.4096L1.71225 23.0018V8.92311L5.62188 10.906C5.7931 10.991 6.04994 11.0193 6.22117 10.991C5.87872 10.2262 5.62188 9.48966 5.45065 8.83813L2.79667 7.42176C2.25446 7.13849 1.48395 7.16682 0.970273 7.47842C0.456599 7.79002 0 8.32824 0 8.92311V23.0018C0 23.625 0.485137 24.2199 1.05589 24.5031L5.67895 26.911C5.7931 26.9676 5.99287 26.996 6.10702 26.996C6.42093 26.996 6.64923 26.826 6.82045 26.5427C7.04875 26.1178 6.82045 25.6079 6.42093 25.4096Z" fill="#261F10"/>
<path d="M11.9857 19.9708V24.0782C11.9857 24.3049 12.1855 24.5031 12.4138 24.5031C12.6421 24.5031 12.8419 24.3049 12.8419 24.0782V19.9708H11.9857Z" fill="#261F10"/>
</g>
</svg>
