<svg width="21" height="21" viewBox="0 0 21 21" fill="none" xmlns="http://www.w3.org/2000/svg">
<path id="Vector" d="M20.0412 15.2369C19.1703 14.342 16.6948 12.6656 15.0722 12.6656C14.6964 12.6656 14.3684 12.7491 14.0999 12.9222C13.3066 13.4293 12.6743 13.823 12.37 13.823C12.203 13.823 12.0241 13.6739 11.6304 13.3338L11.5647 13.2741C10.4731 12.3256 10.2405 12.081 9.81697 11.6395L9.7096 11.5261C9.63205 11.4486 9.56643 11.377 9.50082 11.3114C9.13098 10.9295 8.86255 10.6551 7.91409 9.58125L7.87234 9.53352C7.41899 9.02045 7.12073 8.68636 7.10284 8.44176C7.08494 8.20312 7.29372 7.81534 7.82462 7.09347C8.46885 6.22244 8.49271 5.14858 7.90216 3.9017C7.43092 2.91733 6.66142 1.97472 5.98139 1.14545L5.92174 1.07386C5.33716 0.357955 4.65714 0 3.89957 0C3.05848 0 2.36056 0.453409 1.99073 0.692045C1.9609 0.709943 1.93107 0.733807 1.90125 0.751704C1.0721 1.2767 0.469619 1.99858 0.242944 2.73239C-0.0970677 3.83608 -0.323742 5.2679 1.30474 8.24489C2.71251 10.8222 3.98904 12.5523 6.01718 14.6344C7.92602 16.5912 8.77307 17.2236 10.67 18.5957C12.7816 20.123 14.8098 21 16.2295 21C17.5478 21 18.5857 21 20.0651 19.2162C21.616 17.3429 20.9718 16.1974 20.0412 15.2369Z" fill="white"/>
</svg>
