<svg width="20" height="18" viewBox="0 0 20 18" fill="none" xmlns="http://www.w3.org/2000/svg">
<g id="Vector">
<path d="M8.47145 5.37141H5.26404V8.31735H8.47145V5.37141Z" fill="#261F10"/>
<path d="M9.13329 5.78206H4.60219L6.85926 3.40745L9.13329 5.78206Z" fill="#261F10"/>
<path d="M8.47145 3.8181H7.94536V5.08574H8.47145V3.8181Z" fill="#261F10"/>
<path d="M14.9541 3.76453H10.8812C10.7455 3.76453 10.6267 3.63955 10.6267 3.49672C10.6267 3.35389 10.7455 3.22891 10.8812 3.22891H14.9541C15.0899 3.22891 15.2087 3.35389 15.2087 3.49672C15.2087 3.63955 15.0899 3.76453 14.9541 3.76453Z" fill="#261F10"/>
<path d="M14.9541 4.83578H10.8812C10.7455 4.83578 10.6267 4.7108 10.6267 4.56797C10.6267 4.42514 10.7455 4.30016 10.8812 4.30016H14.9541C15.0899 4.30016 15.2087 4.42514 15.2087 4.56797C15.2087 4.7108 15.0899 4.83578 14.9541 4.83578Z" fill="#261F10"/>
<path d="M13.9529 6.83545C14.5129 6.83545 14.9711 7.31752 14.9711 7.9067V15.9232C14.9711 16.1196 14.8184 16.2803 14.6317 16.2803H10.7285C10.5418 16.2803 10.3891 16.1196 10.3891 15.9232V7.19254C10.3891 6.99614 10.5418 6.83545 10.7285 6.83545H13.9529ZM13.9529 5.7642H10.0497C9.67635 5.7642 9.37088 6.08558 9.37088 6.47837V16.6374C9.37088 17.0302 9.67635 17.3516 10.0497 17.3516H15.3105C15.6839 17.3516 15.9893 17.0302 15.9893 16.6374V7.9067C15.9893 6.72833 15.0729 5.7642 13.9529 5.7642Z" fill="#261F10"/>
<path d="M12.9177 8.04954H12.4086C12.2728 8.04954 12.154 7.92456 12.154 7.78172C12.154 7.63889 12.2728 7.51391 12.4086 7.51391H12.9177C13.0535 7.51391 13.1723 7.63889 13.1723 7.78172C13.1723 7.92456 13.0535 8.04954 12.9177 8.04954Z" fill="#261F10"/>
<path d="M12.6801 15.5661C12.2389 15.5661 11.8995 15.1912 11.8995 14.7449C11.8995 14.2985 12.2559 13.9236 12.6801 13.9236C13.1213 13.9236 13.4608 14.2985 13.4608 14.7449C13.4608 15.1912 13.1044 15.5661 12.6801 15.5661ZM12.6801 14.4949C12.5443 14.4949 12.4425 14.602 12.4425 14.7449C12.4425 14.8877 12.5443 14.9948 12.6801 14.9948C12.8159 14.9948 12.9177 14.8877 12.9177 14.7449C12.9177 14.602 12.7989 14.4949 12.6801 14.4949Z" fill="#261F10"/>
<path d="M14.3262 8.67443H10.8812V13.4058H14.3262V8.67443Z" fill="#261F10"/>
<path d="M15.3784 0.550781H4.68704C3.56699 0.550781 2.73544 1.60418 2.73544 2.78255V9.44216C2.73544 10.6205 3.56699 11.8168 4.68704 11.8168H9.86302V10.7455H4.68704C4.12702 10.7455 3.75367 10.0492 3.75367 9.44216V2.78255C3.75367 2.19337 4.12702 1.62203 4.68704 1.62203H15.3784C15.9384 1.62203 16.4815 2.19337 16.4815 2.78255V9.44216C16.4815 9.99564 15.9724 10.4599 15.4633 10.4956V11.5668C16.4815 11.5132 17.4997 10.5848 17.4997 9.44216V2.78255C17.4997 1.60418 16.4985 0.550781 15.3784 0.550781Z" fill="#261F10"/>
<path d="M9.91393 14.727H1.30993C0.868698 14.727 0.648082 14.1914 0.919609 13.8521L2.42998 11.9596C2.63362 11.7096 2.93909 11.549 3.26153 11.549H9.89696L9.91393 14.727Z" fill="#261F10"/>
<path d="M15.2087 14.727H18.6198C19.061 14.727 19.2816 14.1914 19.0101 13.8521L17.4997 11.9596C17.2961 11.7096 16.9906 11.549 16.6682 11.549H15.2087V14.727Z" fill="#261F10"/>
</g>
</svg>
