<svg width="20" height="18" viewBox="0 0 20 18" fill="none" xmlns="http://www.w3.org/2000/svg">
<g id="04">
<g id="Vector">
<path d="M18.5556 9.62644C18.4027 9.62644 18.2689 9.57052 18.1542 9.45868L13.7776 5.20853C13.5483 4.98484 13.5483 4.63066 13.7776 4.42561C14.007 4.20192 14.3701 4.20192 14.5803 4.42561L18.9569 8.67576C19.1862 8.89945 19.1862 9.25363 18.9569 9.45868C18.8422 9.57052 18.6893 9.62644 18.5556 9.62644Z" fill="#261F10"/>
<path d="M1.37413 9.62644C1.22124 9.62644 1.08746 9.57052 0.972787 9.45868C0.743446 9.23498 0.743446 8.88081 0.972787 8.67576L5.33026 4.40697C5.5596 4.18328 5.92272 4.18328 6.13295 4.40697C6.36229 4.63066 6.36229 4.98484 6.13295 5.18989L1.77548 9.45868C1.66081 9.57052 1.52703 9.62644 1.37413 9.62644Z" fill="#261F10"/>
<path d="M17.4471 17.7539H2.48261C1.56525 17.7539 0.800781 17.0269 0.800781 16.1135V9.12314C0.800781 8.80624 1.04923 8.56391 1.37413 8.56391H4.68046C4.96713 8.56391 5.21559 8.34022 5.21559 8.04196V4.81707C5.21559 4.50018 5.46404 4.25784 5.78894 4.25784C6.11384 4.25784 6.36229 4.50018 6.36229 4.81707V8.04196C6.36229 8.93673 5.61693 9.68237 4.68046 9.68237H1.94748V16.1135C1.94748 16.3931 2.17682 16.6354 2.48261 16.6354H17.4471C17.7338 16.6354 17.9822 16.4118 17.9822 16.1135V9.68237H15.1728C14.2554 9.68237 13.491 8.95537 13.491 8.04196V4.81707C13.491 4.50018 13.7394 4.25784 14.0643 4.25784C14.3892 4.25784 14.6377 4.50018 14.6377 4.81707V8.04196C14.6377 8.32158 14.867 8.56391 15.1728 8.56391H18.5556C18.8805 8.56391 19.1289 8.80624 19.1289 9.12314V16.1135C19.1289 17.0083 18.3644 17.7539 17.4471 17.7539Z" fill="#261F10"/>
<path d="M10.8153 9.85014H9.09526C8.61747 9.85014 8.23523 9.47732 8.23523 9.01129V6.77438C8.23523 6.30835 8.61747 5.93553 9.09526 5.93553H10.8153C11.2931 5.93553 11.6753 6.30835 11.6753 6.77438V9.01129C11.6753 9.47732 11.2931 9.85014 10.8153 9.85014ZM9.09526 6.49476C8.94237 6.49476 8.80859 6.62525 8.80859 6.77438V9.01129C8.80859 9.16042 8.94237 9.29091 9.09526 9.29091H10.8153C10.9682 9.29091 11.102 9.16042 11.102 9.01129V6.77438C11.102 6.62525 10.9682 6.49476 10.8153 6.49476H9.09526Z" fill="#261F10"/>
<path d="M6.24762 15.051H4.52756C4.04977 15.051 3.66754 14.6781 3.66754 14.2121V11.9752C3.66754 11.5092 4.04977 11.1364 4.52756 11.1364H6.24762C6.72541 11.1364 7.10764 11.5092 7.10764 11.9752V14.2121C7.10764 14.6595 6.72541 15.051 6.24762 15.051ZM4.52756 11.6956C4.37467 11.6956 4.24089 11.8261 4.24089 11.9752V14.2121C4.24089 14.3613 4.37467 14.4917 4.52756 14.4917H6.24762C6.40051 14.4917 6.53429 14.3613 6.53429 14.2121V11.9752C6.53429 11.8261 6.40051 11.6956 6.24762 11.6956H4.52756Z" fill="#261F10"/>
<path d="M15.555 15.051H13.835C13.3572 15.051 12.9749 14.6781 12.9749 14.2121V11.9752C12.9749 11.5092 13.3572 11.1364 13.835 11.1364H15.555C16.0328 11.1364 16.415 11.5092 16.415 11.9752V14.2121C16.415 14.6595 16.0137 15.051 15.555 15.051ZM13.835 11.6956C13.6821 11.6956 13.5483 11.8261 13.5483 11.9752V14.2121C13.5483 14.3613 13.6821 14.4917 13.835 14.4917H15.555C15.7079 14.4917 15.8417 14.3613 15.8417 14.2121V11.9752C15.8417 11.8261 15.7079 11.6956 15.555 11.6956H13.835Z" fill="#261F10"/>
<path d="M15.727 5.20853H3.85865C3.6102 5.20853 3.38086 5.04077 3.30441 4.81707C3.22797 4.57474 3.32353 4.33241 3.53376 4.18328L9.40105 0.287318C9.59216 0.156831 9.84062 0.156831 10.0508 0.287318L15.9755 4.146C16.1666 4.2392 16.3004 4.42561 16.3004 4.64931C16.3004 4.9662 16.0519 5.20853 15.727 5.20853ZM5.71249 4.09008H13.8159L9.72595 1.42442L5.71249 4.09008Z" fill="#261F10"/>
</g>
</g>
</svg>
