<svg width="48" height="48" viewBox="0 0 48 48" fill="none" xmlns="http://www.w3.org/2000/svg">
<g id="Vector">
<path d="M2.33412 28.4612C2.82353 28.9882 3.63294 29.0824 4.21647 28.6682L12.3482 22.9459C11.0306 21.4588 9.99529 19.7271 9.33647 17.8071C4.66824 21.1765 0.602353 24.1129 0.583529 24.1318C-0.0752941 24.6212 -0.188235 25.6 0.357647 26.2024L2.33412 28.4612Z" fill="white"/>
<path d="M43.7835 28.6682C44.3671 29.0824 45.1765 28.9882 45.6659 28.4612C45.6659 28.4612 47.6423 26.2212 47.6423 26.2024C48.1882 25.6 48.0753 24.6212 47.4165 24.1318L38.6635 17.8071C38.0047 19.7271 36.9694 21.4588 35.6518 22.9459L43.7835 28.6682Z" fill="white"/>
<path d="M46.5882 45.1765H40.4706V29.7976L33.5624 24.9224C30.9271 26.9929 27.6141 28.2353 24 28.2353C20.3859 28.2353 17.0729 26.9929 14.4376 24.9224L7.52941 29.7976V45.1765H1.41176C0.64 45.1765 0 45.8165 0 46.5882C0 47.36 0.64 48 1.41176 48H46.5882C47.36 48 48 47.36 48 46.5882C48 45.8165 47.36 45.1765 46.5882 45.1765ZM31.0588 45.1765H28.2353V39.0588C28.2353 36.7247 26.3341 34.8235 24 34.8235C21.6659 34.8235 19.7647 36.7247 19.7647 39.0588V45.1765H16.9412V39.0588C16.9412 35.1624 20.1035 32 24 32C27.8965 32 31.0588 35.1624 31.0588 39.0588V45.1765Z" fill="white"/>
<path d="M24 25.4118C31.0024 25.4118 36.7059 19.7082 36.7059 12.7059C36.7059 5.70353 31.0024 0 24 0C16.9976 0 11.2941 5.70353 11.2941 12.7059C11.2941 19.7082 16.9976 25.4118 24 25.4118ZM24 14.1176C21.6659 14.1176 19.7647 12.2165 19.7647 9.88235C19.7647 8.03765 20.9506 6.49412 22.5882 5.91059V5.17647C22.5882 4.40471 23.2282 3.76471 24 3.76471C24.7718 3.76471 25.4118 4.40471 25.4118 5.17647V5.91059C27.0494 6.49412 28.2353 8.05647 28.2353 9.88235C28.2353 10.6541 27.5953 11.2941 26.8235 11.2941C26.0518 11.2941 25.4118 10.6541 25.4118 9.88235C25.4118 9.11059 24.7718 8.47059 24 8.47059C23.2282 8.47059 22.5882 9.11059 22.5882 9.88235C22.5882 10.6541 23.2282 11.2941 24 11.2941C26.3341 11.2941 28.2353 13.1953 28.2353 15.5294C28.2353 17.3741 27.0494 18.9176 25.4118 19.5012V20.2353C25.4118 21.0071 24.7718 21.6471 24 21.6471C23.2282 21.6471 22.5882 21.0071 22.5882 20.2353V19.5012C20.9506 18.9176 19.7647 17.3553 19.7647 15.5294C19.7647 14.7576 20.4047 14.1176 21.1765 14.1176C21.9482 14.1176 22.5882 14.7576 22.5882 15.5294C22.5882 16.3012 23.2282 16.9412 24 16.9412C24.7718 16.9412 25.4118 16.3012 25.4118 15.5294C25.4118 14.7576 24.7718 14.1176 24 14.1176Z" fill="white"/>
</g>
</svg>
