<svg width="117" height="20" viewBox="0 0 117 20" fill="none" xmlns="http://www.w3.org/2000/svg">
<g id="Vector">
<path d="M76.4449 6.06648C75.9387 4.85226 75.2456 3.80425 74.3335 2.90859C73.4397 2.02216 72.3726 1.31117 71.1276 0.78024C69.8963 0.263158 68.5327 0 67.0689 0C65.605 0 64.2323 0.263158 62.9874 0.78024C61.7378 1.31117 60.6707 2.03601 59.7587 2.9409C58.8648 3.85042 58.1625 4.91228 57.6472 6.11727C57.3827 6.74054 57.1866 7.38227 57.0635 8.04247H61.5554C61.5965 7.89474 61.6466 7.75162 61.7059 7.60849C61.9841 6.87904 62.3672 6.25115 62.8779 5.6879C63.375 5.1385 63.977 4.69991 64.6838 4.39058C65.377 4.07664 66.1614 3.92428 67.0141 3.92428C67.8669 3.92428 68.6239 4.08587 69.3308 4.40905C70.0468 4.73223 70.6487 5.1662 71.1732 5.7156C71.6839 6.27424 72.0898 6.91597 72.3725 7.64543C72.4181 7.7747 72.4638 7.90859 72.5048 8.03786H77.0195C76.8964 7.34995 76.7094 6.7036 76.4449 6.06648ZM72.5595 11.8467C72.5002 12.0314 72.4364 12.2161 72.3771 12.3961C72.0944 13.1256 71.7022 13.7535 71.2051 14.3121C70.6989 14.8661 70.0969 15.3047 69.3901 15.614C68.6832 15.928 67.9034 16.0803 67.0734 16.0803C66.2435 16.0803 65.4363 15.9187 64.734 15.5956C64.0317 15.2724 63.4252 14.8384 62.9144 14.289C62.39 13.735 61.9932 13.0886 61.715 12.35C61.6466 12.1884 61.5919 12.0175 61.5463 11.8467H57.0453C57.1684 12.5762 57.3645 13.2641 57.6427 13.9335C58.1397 15.1339 58.842 16.1865 59.7359 17.0914C60.6479 17.9778 61.715 18.6888 62.9463 19.2105C64.1913 19.7415 65.5366 20 67.0141 20C68.4917 20 69.8507 19.7415 71.0911 19.2105C72.3361 18.6934 73.4123 17.9732 74.3153 17.0637C75.2182 16.1404 75.925 15.0923 76.4267 13.8827C76.7094 13.2271 76.9055 12.5531 77.0378 11.8467H72.5595Z" fill="white"/>
<path d="M94.326 19.6676L85.0776 7.37304V19.6676H80.9323V0.33241H84.8086L93.7605 12.2392V0.33241H97.9104V19.6676H94.326Z" fill="white"/>
<path d="M102.484 0.33241H116.863V4.11819H106.63V8.04247H115.632V11.8283H106.63V15.891H117V19.6768H102.484V0.33241Z" fill="white"/>
<path d="M12.3312 19.6676L6.41183 11.4358L4.20007 13.7581V19.6676H0V0.33241H4.20007V8.78578L11.9526 0.33241H17.0283L9.25292 8.53647L17.384 19.6676H12.3312Z" fill="#F6CA6A"/>
<path d="M19.9196 0.33241H34.2983V4.11819H24.0649V8.04247H33.0716V11.8283H24.0649V15.891H34.4351V19.6768H19.9196V0.33241Z" fill="#F6CA6A"/>
<path d="M47.7786 11.9621V19.6676H43.5786V12.0452L36.2364 0.33241H41.1479L45.7037 8.09326L50.3416 0.33241H55.1162L47.7741 11.9621H47.7786Z" fill="#F6CA6A"/>
</g>
</svg>
