<svg width="36" height="24" viewBox="0 0 36 24" fill="none" xmlns="http://www.w3.org/2000/svg">
<path id="Vector" d="M34.8615 10.8537H2.50746C2.07137 10.8537 1.63149 10.8498 1.1954 10.8537H1.13852C0.543161 10.8537 -0.0256505 11.381 0.000894041 12C0.0274386 12.6228 0.501449 13.1463 1.13852 13.1463H33.4925C33.9286 13.1463 34.3685 13.1502 34.8046 13.1463H34.8615C35.4568 13.1463 36.0257 12.619 35.9991 12C35.9688 11.3772 35.4986 10.8537 34.8615 10.8537ZM34.8615 0.00169827H2.50746C2.07137 0.00169827 1.63149 -0.00212284 1.1954 0.00169827H1.13852C0.543161 0.00169827 -0.0256505 0.529012 0.000894041 1.14803C0.0274386 1.77087 0.501449 2.29437 1.13852 2.29437H33.4925C33.9286 2.29437 34.3685 2.29819 34.8046 2.29437H34.8615C35.4568 2.29437 36.0257 1.76705 35.9991 1.14803C35.9688 0.525191 35.4986 0.00169827 34.8615 0.00169827ZM34.8615 21.7056H2.50746C2.07137 21.7056 1.63149 21.7018 1.1954 21.7056H1.13852C0.543161 21.7056 -0.0256505 22.2329 0.000894041 22.852C0.0274386 23.4748 0.501449 23.9983 1.13852 23.9983H33.4925C33.9286 23.9983 34.3685 24.0021 34.8046 23.9983H34.8615C35.4568 23.9983 36.0257 23.471 35.9991 22.852C35.9688 22.2291 35.4986 21.7056 34.8615 21.7056Z" fill="white"/>
</svg>
